%TF.GenerationSoftware,KiCad,Pcbnew,10.0.0*%
%TF.CreationDate,2026-06-24T15:33:42-04:00*%
%TF.ProjectId,CanBus,43616e42-7573-42e6-9b69-6361645f7063,rev?*%
%TF.SameCoordinates,Original*%
%TF.FileFunction,Copper,L4,Bot*%
%TF.FilePolarity,Positive*%
%FSLAX46Y46*%
G04 Gerber Fmt 4.6, Leading zero omitted, Abs format (unit mm)*
G04 Created by KiCad (PCBNEW 10.0.0) date 2026-06-24 15:33:42*
%MOMM*%
%LPD*%
G01*
G04 APERTURE LIST*
G04 Aperture macros list*
%AMRoundRect*
0 Rectangle with rounded corners*
0 $1 Rounding radius*
0 $2 $3 $4 $5 $6 $7 $8 $9 X,Y pos of 4 corners*
0 Add a 4 corners polygon primitive as box body*
4,1,4,$2,$3,$4,$5,$6,$7,$8,$9,$2,$3,0*
0 Add four circle primitives for the rounded corners*
1,1,$1+$1,$2,$3*
1,1,$1+$1,$4,$5*
1,1,$1+$1,$6,$7*
1,1,$1+$1,$8,$9*
0 Add four rect primitives between the rounded corners*
20,1,$1+$1,$2,$3,$4,$5,0*
20,1,$1+$1,$4,$5,$6,$7,0*
20,1,$1+$1,$6,$7,$8,$9,0*
20,1,$1+$1,$8,$9,$2,$3,0*%
G04 Aperture macros list end*
%TA.AperFunction,ComponentPad*%
%ADD10O,1.400000X0.800000*%
%TD*%
%TA.AperFunction,ComponentPad*%
%ADD11R,1.700000X1.700000*%
%TD*%
%TA.AperFunction,ComponentPad*%
%ADD12C,1.700000*%
%TD*%
%TA.AperFunction,ComponentPad*%
%ADD13RoundRect,0.250000X1.350000X-1.350000X1.350000X1.350000X-1.350000X1.350000X-1.350000X-1.350000X0*%
%TD*%
%TA.AperFunction,ComponentPad*%
%ADD14C,3.200000*%
%TD*%
%TA.AperFunction,ComponentPad*%
%ADD15C,2.000000*%
%TD*%
%TA.AperFunction,ComponentPad*%
%ADD16RoundRect,0.250000X1.050000X1.050000X-1.050000X1.050000X-1.050000X-1.050000X1.050000X-1.050000X0*%
%TD*%
%TA.AperFunction,ComponentPad*%
%ADD17C,2.600000*%
%TD*%
%TA.AperFunction,ViaPad*%
%ADD18C,0.600000*%
%TD*%
%TA.AperFunction,Conductor*%
%ADD19C,1.000000*%
%TD*%
%TA.AperFunction,Conductor*%
%ADD20C,0.200000*%
%TD*%
%TA.AperFunction,Conductor*%
%ADD21C,0.250000*%
%TD*%
%TA.AperFunction,Conductor*%
%ADD22C,0.400000*%
%TD*%
G04 APERTURE END LIST*
D10*
%TO.P,J5,SH,SHIELD_SH*%
%TO.N,unconnected-(J5-SHIELD-PadSH)_2*%
X212900000Y-65775000D03*
%TO.N,unconnected-(J5-SHIELD-PadSH)_3*%
X206950000Y-65415000D03*
%TO.N,unconnected-(J5-SHIELD-PadSH)*%
X206950000Y-57155000D03*
%TO.N,unconnected-(J5-SHIELD-PadSH)_1*%
X212900000Y-56795000D03*
%TD*%
D11*
%TO.P,J2,1,Pin_1_1*%
%TO.N,+3.3V*%
X160245000Y-100175000D03*
D12*
%TO.P,J2,2,Pin_2_2*%
%TO.N,/I2C_SCL*%
X162785000Y-100175000D03*
%TO.P,J2,3,Pin_3_3*%
%TO.N,/I2C_SDA*%
X165325000Y-100175000D03*
%TO.P,J2,4,Pin_4_4*%
%TO.N,GND*%
X167865000Y-100175000D03*
%TD*%
D13*
%TO.P,D1,1,K_1*%
%TO.N,Net-(D1-K)*%
X173350000Y-89325000D03*
D14*
%TO.P,D1,2,A_2*%
%TO.N,GND*%
X173350000Y-74085000D03*
%TD*%
D11*
%TO.P,J3,1,Pin_1_1*%
%TO.N,+3.3V*%
X177845000Y-49950000D03*
D12*
%TO.P,J3,2,Pin_2_2*%
%TO.N,/UART_TX*%
X180385000Y-49950000D03*
%TO.P,J3,3,Pin_3_3*%
%TO.N,/UART_RX*%
X182925000Y-49950000D03*
%TO.P,J3,4,Pin_4_4*%
%TO.N,GND*%
X185465000Y-49950000D03*
%TD*%
D15*
%TO.P,TP5,1,1_1*%
%TO.N,/CAN_H*%
X197575000Y-50100000D03*
%TD*%
%TO.P,TP22,1,1_1*%
%TO.N,/CAN_L*%
X193325000Y-50000000D03*
%TD*%
D16*
%TO.P,J4,1,Pin_1_1*%
%TO.N,/CAN_H*%
X171020000Y-52427500D03*
D17*
%TO.P,J4,2,Pin_2_2*%
%TO.N,/CAN_L*%
X165940000Y-52427500D03*
%TD*%
D11*
%TO.P,J1,1,Pin_1_1*%
%TO.N,+3.3V*%
X159630000Y-49600000D03*
D12*
%TO.P,J1,2,Pin_2_2*%
%TO.N,/SWDIO*%
X157090000Y-49600000D03*
%TO.P,J1,3,Pin_3_3*%
%TO.N,/SWCLK*%
X154550000Y-49600000D03*
%TO.P,J1,4,Pin_4_4*%
%TO.N,GND*%
X152010000Y-49600000D03*
%TD*%
D18*
%TO.N,+5V*%
X179025000Y-100875000D03*
X134000000Y-88275000D03*
X153800000Y-91200000D03*
X186650000Y-90175000D03*
X131175000Y-79525000D03*
X181725000Y-76400000D03*
%TO.N,GND*%
X134950000Y-80800000D03*
X177100000Y-78775000D03*
X201400000Y-71940000D03*
X145825000Y-75975000D03*
X128325000Y-82650000D03*
X175450000Y-94125000D03*
X176625000Y-100850000D03*
X149690000Y-85590000D03*
X142850000Y-86800000D03*
X171000000Y-101450000D03*
X132600000Y-58375000D03*
X204475000Y-58450000D03*
X144075000Y-78225000D03*
X145600000Y-72990000D03*
X147610000Y-83920000D03*
X167775000Y-96675000D03*
X149160000Y-86650000D03*
X139400000Y-78450000D03*
X203050000Y-74560000D03*
X174175000Y-92525000D03*
X136900000Y-71300000D03*
X175275000Y-92675000D03*
X173375000Y-92975000D03*
X138875000Y-75525000D03*
X169225000Y-95800000D03*
X138775000Y-80975000D03*
X139100000Y-76775000D03*
X203020000Y-72470000D03*
X200150000Y-55375000D03*
X171900000Y-101500000D03*
X135275000Y-86300000D03*
X138425000Y-78575000D03*
X138125000Y-71575000D03*
X151975000Y-51825000D03*
X147040000Y-87140000D03*
X207525000Y-58750000D03*
X139850000Y-77550000D03*
X134150000Y-66225000D03*
X135725000Y-71625000D03*
X185550000Y-52325000D03*
X130675000Y-85900000D03*
X145620000Y-72110000D03*
X148120000Y-87230000D03*
X143975000Y-86950000D03*
X170125000Y-100600000D03*
X201880000Y-75460000D03*
X167300000Y-97875000D03*
X138825000Y-72050000D03*
X178925000Y-96800000D03*
X139175000Y-86475000D03*
X142000000Y-71150000D03*
X133150000Y-77162500D03*
X167200000Y-97100000D03*
X170850000Y-94800000D03*
X136250000Y-86350000D03*
X134950000Y-71175000D03*
X135825000Y-70725000D03*
X135675000Y-78125000D03*
X160625000Y-63050000D03*
X136800000Y-70250000D03*
X150125000Y-80450000D03*
X163525000Y-73125000D03*
X148450000Y-100750000D03*
X179500000Y-95950000D03*
X203125000Y-73550000D03*
X129050000Y-84100000D03*
X157275000Y-82875000D03*
X168525000Y-96275000D03*
X168450000Y-98000000D03*
X132050000Y-86025000D03*
X170175000Y-95400000D03*
X135700000Y-74025000D03*
X163500000Y-61125000D03*
X151225000Y-82825000D03*
X138825000Y-73275000D03*
X176375000Y-95200000D03*
X144425000Y-64725000D03*
X138850000Y-74225000D03*
X173000000Y-101450000D03*
X138175000Y-86475000D03*
X175550000Y-94800000D03*
X178375000Y-95275000D03*
X128300000Y-83575000D03*
X199900000Y-67940000D03*
X159440000Y-62880000D03*
X169700000Y-97950000D03*
X135625000Y-77125000D03*
X203675000Y-64100000D03*
X180130000Y-70520000D03*
X138180000Y-101360000D03*
X191800000Y-101125000D03*
X175275000Y-93400000D03*
X169950000Y-98700000D03*
X138125000Y-100550000D03*
X183525000Y-69750000D03*
X170125000Y-101475000D03*
X142000000Y-86725000D03*
X179300000Y-95225000D03*
X178425000Y-97800000D03*
X138275000Y-79750000D03*
X150950000Y-69475000D03*
X175075000Y-92025000D03*
X169975000Y-99725000D03*
X137200000Y-86425000D03*
X159390000Y-61520000D03*
%TO.N,VBUS*%
X208425000Y-63775000D03*
X207675000Y-60075000D03*
X202775000Y-59950000D03*
X202750000Y-63225000D03*
%TO.N,Net-(J5-CC1)*%
X205810000Y-62150000D03*
X203710000Y-68640000D03*
%TO.N,/D+*%
X162225000Y-75275000D03*
X164025000Y-75150000D03*
%TO.N,/D-*%
X207775000Y-61750000D03*
X205900000Y-60600000D03*
%TO.N,+3.3V*%
X158375000Y-82600000D03*
X150900000Y-76200000D03*
X149375000Y-69125000D03*
X149450000Y-65100000D03*
X161050000Y-94650000D03*
X158775000Y-75050000D03*
X153225000Y-81750000D03*
X159575000Y-96000000D03*
%TO.N,+3.3VA*%
X144400000Y-71950000D03*
X142750000Y-81025000D03*
%TO.N,/CAN_TX*%
X163425000Y-60150000D03*
X164275000Y-60650000D03*
X154550000Y-60025000D03*
X151800000Y-74775000D03*
%TO.N,Net-(U5-NRST)*%
X150775000Y-77950000D03*
X140762500Y-92262500D03*
%TO.N,Net-(U5-PC2)*%
X130775000Y-89075000D03*
X147075000Y-79800000D03*
%TO.N,/UART_TX*%
X162150000Y-78075000D03*
X180475000Y-61425000D03*
%TO.N,/UART_RX*%
X182825000Y-57325000D03*
X162750000Y-77450000D03*
%TO.N,/CAN_RX*%
X152100000Y-71675000D03*
X163575000Y-62675000D03*
X146725000Y-52200000D03*
X152125000Y-69300000D03*
%TO.N,/CAN_H*%
X175575000Y-52725000D03*
X190350000Y-54900000D03*
%TO.N,/CAN_L*%
X170280000Y-62530000D03*
X166450000Y-56025000D03*
%TD*%
%TO.N,+5V*%
D19*
X186650000Y-90175000D02*
X186650000Y-89225000D01*
X181725000Y-84300000D02*
X181725000Y-76400000D01*
X131175000Y-79525000D02*
X134000000Y-82350000D01*
X186650000Y-89225000D02*
X181725000Y-84300000D01*
X153800000Y-91200000D02*
X169350000Y-91200000D01*
X134000000Y-82350000D02*
X134000000Y-88275000D01*
X169350000Y-91200000D02*
X179025000Y-100875000D01*
%TO.N,VBUS*%
D20*
X202775000Y-59950000D02*
X202775000Y-63200000D01*
X210300000Y-63025000D02*
X209575000Y-63750000D01*
X210075000Y-60075000D02*
X210300000Y-60300000D01*
X210300000Y-60300000D02*
X210300000Y-63025000D01*
X207675000Y-60075000D02*
X210075000Y-60075000D01*
X209575000Y-63750000D02*
X208450000Y-63750000D01*
X208450000Y-63750000D02*
X208425000Y-63775000D01*
X202775000Y-63200000D02*
X202750000Y-63225000D01*
%TO.N,Net-(J5-CC1)*%
D21*
X203670000Y-68600000D02*
X203710000Y-68640000D01*
X203670000Y-65390000D02*
X203670000Y-68600000D01*
X205810000Y-63250000D02*
X203670000Y-65390000D01*
X205810000Y-62150000D02*
X205810000Y-63250000D01*
%TO.N,/D+*%
X163900000Y-75275000D02*
X164025000Y-75150000D01*
X162225000Y-75275000D02*
X163900000Y-75275000D01*
%TO.N,/D-*%
X205900000Y-60600000D02*
X207720000Y-60760000D01*
X207720000Y-60760000D02*
X207775000Y-60815000D01*
X207775000Y-60815000D02*
X207775000Y-61750000D01*
%TO.N,+3.3V*%
D22*
X149450000Y-69050000D02*
X149375000Y-69125000D01*
D21*
X152950000Y-78275000D02*
X153225000Y-78275000D01*
X158350000Y-78275000D02*
X158375000Y-78300000D01*
X153225000Y-78275000D02*
X153225000Y-81750000D01*
D22*
X159575000Y-96000000D02*
X160925000Y-94650000D01*
X149450000Y-65100000D02*
X149450000Y-69050000D01*
D21*
X150900000Y-76200000D02*
X150900000Y-76225000D01*
X150900000Y-76225000D02*
X152950000Y-78275000D01*
X158375000Y-75450000D02*
X158375000Y-78300000D01*
X153225000Y-78275000D02*
X158350000Y-78275000D01*
X158775000Y-75050000D02*
X158375000Y-75450000D01*
X158375000Y-78300000D02*
X158375000Y-82600000D01*
D22*
X160925000Y-94650000D02*
X161050000Y-94650000D01*
%TO.N,+3.3VA*%
X142750000Y-73600000D02*
X144400000Y-71950000D01*
X142750000Y-81025000D02*
X142750000Y-73600000D01*
%TO.N,/CAN_TX*%
X154550000Y-60025000D02*
X163300000Y-60025000D01*
X163300000Y-60025000D02*
X163425000Y-60150000D01*
D21*
X164300000Y-63300000D02*
X164300000Y-60675000D01*
X164300000Y-60675000D02*
X164275000Y-60650000D01*
X152825000Y-74775000D02*
X164300000Y-63300000D01*
X151800000Y-74775000D02*
X152825000Y-74775000D01*
%TO.N,Net-(U5-NRST)*%
X150775000Y-82350000D02*
X150775000Y-77950000D01*
X140762500Y-92262500D02*
X150775000Y-82350000D01*
%TO.N,Net-(U5-PC2)*%
X137800000Y-89075000D02*
X147075000Y-79800000D01*
X130775000Y-89075000D02*
X137800000Y-89075000D01*
%TO.N,/UART_TX*%
X162150000Y-78075000D02*
X163825000Y-78075000D01*
X163825000Y-78075000D02*
X180475000Y-61425000D01*
%TO.N,/UART_RX*%
X182825000Y-57375000D02*
X182825000Y-57325000D01*
X162750000Y-77450000D02*
X182825000Y-57375000D01*
%TO.N,/CAN_RX*%
X154575000Y-71675000D02*
X163575000Y-62675000D01*
X152100000Y-71675000D02*
X154575000Y-71675000D01*
D22*
X152125000Y-57600000D02*
X152125000Y-69300000D01*
X146725000Y-52200000D02*
X152125000Y-57600000D01*
%TO.N,/CAN_H*%
X177750000Y-54900000D02*
X175575000Y-52725000D01*
X190350000Y-54900000D02*
X177750000Y-54900000D01*
%TO.N,/CAN_L*%
D21*
X166450000Y-56025000D02*
X170350000Y-56025000D01*
X170350000Y-62460000D02*
X170280000Y-62530000D01*
X170350000Y-56025000D02*
X170350000Y-62460000D01*
%TD*%
M02*
