%TF.GenerationSoftware,KiCad,Pcbnew,10.0.0*%
%TF.CreationDate,2026-06-24T15:33:42-04:00*%
%TF.ProjectId,CanBus,43616e42-7573-42e6-9b69-6361645f7063,rev?*%
%TF.SameCoordinates,Original*%
%TF.FileFunction,Soldermask,Top*%
%TF.FilePolarity,Negative*%
%FSLAX46Y46*%
G04 Gerber Fmt 4.6, Leading zero omitted, Abs format (unit mm)*
G04 Created by KiCad (PCBNEW 10.0.0) date 2026-06-24 15:33:42*
%MOMM*%
%LPD*%
G01*
G04 APERTURE LIST*
G04 Aperture macros list*
%AMRoundRect*
0 Rectangle with rounded corners*
0 $1 Rounding radius*
0 $2 $3 $4 $5 $6 $7 $8 $9 X,Y pos of 4 corners*
0 Add a 4 corners polygon primitive as box body*
4,1,4,$2,$3,$4,$5,$6,$7,$8,$9,$2,$3,0*
0 Add four circle primitives for the rounded corners*
1,1,$1+$1,$2,$3*
1,1,$1+$1,$4,$5*
1,1,$1+$1,$6,$7*
1,1,$1+$1,$8,$9*
0 Add four rect primitives between the rounded corners*
20,1,$1+$1,$2,$3,$4,$5,0*
20,1,$1+$1,$4,$5,$6,$7,0*
20,1,$1+$1,$6,$7,$8,$9,0*
20,1,$1+$1,$8,$9,$2,$3,0*%
G04 Aperture macros list end*
%ADD10RoundRect,0.250001X2.049999X0.799999X-2.049999X0.799999X-2.049999X-0.799999X2.049999X-0.799999X0*%
%ADD11RoundRect,0.218750X0.218750X0.256250X-0.218750X0.256250X-0.218750X-0.256250X0.218750X-0.256250X0*%
%ADD12C,0.650000*%
%ADD13O,0.650000X0.950000*%
%ADD14RoundRect,0.075000X0.275000X-0.075000X0.275000X0.075000X-0.275000X0.075000X-0.275000X-0.075000X0*%
%ADD15O,1.400000X0.800000*%
%ADD16R,5.400000X2.900000*%
%ADD17RoundRect,0.200000X-0.200000X-0.275000X0.200000X-0.275000X0.200000X0.275000X-0.200000X0.275000X0*%
%ADD18R,1.700000X1.700000*%
%ADD19C,1.700000*%
%ADD20RoundRect,0.225000X0.225000X0.250000X-0.225000X0.250000X-0.225000X-0.250000X0.225000X-0.250000X0*%
%ADD21RoundRect,0.218750X0.256250X-0.218750X0.256250X0.218750X-0.256250X0.218750X-0.256250X-0.218750X0*%
%ADD22RoundRect,0.250000X1.350000X-1.350000X1.350000X1.350000X-1.350000X1.350000X-1.350000X-1.350000X0*%
%ADD23C,3.200000*%
%ADD24R,1.000000X1.000000*%
%ADD25RoundRect,0.225000X-0.225000X-0.250000X0.225000X-0.250000X0.225000X0.250000X-0.225000X0.250000X0*%
%ADD26RoundRect,0.250000X-0.350000X0.450000X-0.350000X-0.450000X0.350000X-0.450000X0.350000X0.450000X0*%
%ADD27RoundRect,0.225000X-0.250000X0.225000X-0.250000X-0.225000X0.250000X-0.225000X0.250000X0.225000X0*%
%ADD28RoundRect,0.200000X0.200000X0.275000X-0.200000X0.275000X-0.200000X-0.275000X0.200000X-0.275000X0*%
%ADD29RoundRect,0.075000X-0.700000X-0.075000X0.700000X-0.075000X0.700000X0.075000X-0.700000X0.075000X0*%
%ADD30RoundRect,0.075000X-0.075000X-0.700000X0.075000X-0.700000X0.075000X0.700000X-0.075000X0.700000X0*%
%ADD31RoundRect,0.150000X0.150000X-0.512500X0.150000X0.512500X-0.150000X0.512500X-0.150000X-0.512500X0*%
%ADD32RoundRect,0.250001X-1.999999X-0.799999X1.999999X-0.799999X1.999999X0.799999X-1.999999X0.799999X0*%
%ADD33C,2.000000*%
%ADD34RoundRect,0.200000X-0.275000X0.200000X-0.275000X-0.200000X0.275000X-0.200000X0.275000X0.200000X0*%
%ADD35RoundRect,0.250000X1.050000X1.050000X-1.050000X1.050000X-1.050000X-1.050000X1.050000X-1.050000X0*%
%ADD36C,2.600000*%
%ADD37R,0.800000X1.000000*%
%ADD38C,0.900000*%
%ADD39R,1.500000X0.700000*%
%ADD40RoundRect,0.250000X-0.300000X2.050000X-0.300000X-2.050000X0.300000X-2.050000X0.300000X2.050000X0*%
%ADD41RoundRect,0.250002X-5.149998X4.449998X-5.149998X-4.449998X5.149998X-4.449998X5.149998X4.449998X0*%
%ADD42R,1.600000X1.400000*%
%ADD43RoundRect,0.218750X-0.256250X0.218750X-0.256250X-0.218750X0.256250X-0.218750X0.256250X0.218750X0*%
%ADD44RoundRect,0.125000X-0.537500X-0.125000X0.537500X-0.125000X0.537500X0.125000X-0.537500X0.125000X0*%
%ADD45R,1.500000X1.000000*%
G04 APERTURE END LIST*
%TO.C,JP1*%
G36*
X171800000Y-63075000D02*
G01*
X173300000Y-63075000D01*
X173300000Y-63375000D01*
X171800000Y-63375000D01*
X171800000Y-63075000D01*
G37*
%TD*%
D10*
%TO.C,C14*%
X187325000Y-93250000D03*
X178525000Y-93250000D03*
%TD*%
D11*
%TO.C,D3*%
X133737500Y-67625000D03*
X132162500Y-67625000D03*
%TD*%
D12*
%TO.C,J5*%
X205700000Y-64885000D03*
D13*
X205700000Y-57685000D03*
D14*
X205040000Y-64035000D03*
X205040000Y-63535000D03*
X205040000Y-63035000D03*
X205040000Y-62535000D03*
X205040000Y-62035000D03*
X205040000Y-61535000D03*
X205040000Y-61035000D03*
X205040000Y-60535000D03*
X205040000Y-60035000D03*
X205040000Y-59535000D03*
X205040000Y-59035000D03*
X205040000Y-58535000D03*
X206740000Y-58785000D03*
X206740000Y-59285000D03*
X206740000Y-59785000D03*
X206740000Y-60285000D03*
X206740000Y-60785000D03*
X206740000Y-61285000D03*
X206740000Y-61785000D03*
X206740000Y-62285000D03*
X206740000Y-62785000D03*
X206740000Y-63285000D03*
X206740000Y-63785000D03*
X206740000Y-64285000D03*
D15*
X212900000Y-65775000D03*
X206950000Y-65415000D03*
X206950000Y-57155000D03*
X212900000Y-56795000D03*
%TD*%
D16*
%TO.C,L1*%
X197225000Y-85975000D03*
X197225000Y-95875000D03*
%TD*%
D17*
%TO.C,R6*%
X128500000Y-67625000D03*
X130150000Y-67625000D03*
%TD*%
D18*
%TO.C,J2*%
X160245000Y-100175000D03*
D19*
X162785000Y-100175000D03*
X165325000Y-100175000D03*
X167865000Y-100175000D03*
%TD*%
D20*
%TO.C,C2*%
X148225000Y-72575000D03*
X146675000Y-72575000D03*
%TD*%
D21*
%TO.C,FB1*%
X144450000Y-70387500D03*
X144450000Y-68812500D03*
%TD*%
D22*
%TO.C,D1*%
X173350000Y-89325000D03*
D23*
X173350000Y-74085000D03*
%TD*%
D24*
%TO.C,TP20*%
X140400000Y-48500000D03*
%TD*%
%TO.C,TP4*%
X129025000Y-72350000D03*
%TD*%
D25*
%TO.C,C15*%
X160850000Y-73325000D03*
X162400000Y-73325000D03*
%TD*%
D26*
%TO.C,Y1*%
X144125000Y-75975000D03*
X144125000Y-78175000D03*
X145825000Y-78175000D03*
X145825000Y-75975000D03*
%TD*%
D27*
%TO.C,C9*%
X141975000Y-68775000D03*
X141975000Y-70325000D03*
%TD*%
D28*
%TO.C,R11*%
X163945000Y-95225000D03*
X162295000Y-95225000D03*
%TD*%
D23*
%TO.C,H2*%
X209400000Y-97375000D03*
%TD*%
D27*
%TO.C,C8*%
X143925000Y-81000000D03*
X143925000Y-82550000D03*
%TD*%
D29*
%TO.C,U5*%
X148875000Y-74950000D03*
X148875000Y-75450000D03*
X148875000Y-75950000D03*
X148875000Y-76450000D03*
X148875000Y-76950000D03*
X148875000Y-77450000D03*
X148875000Y-77950000D03*
X148875000Y-78450000D03*
X148875000Y-78950000D03*
X148875000Y-79450000D03*
X148875000Y-79950000D03*
X148875000Y-80450000D03*
X148875000Y-80950000D03*
X148875000Y-81450000D03*
X148875000Y-81950000D03*
X148875000Y-82450000D03*
D30*
X150800000Y-84375000D03*
X151300000Y-84375000D03*
X151800000Y-84375000D03*
X152300000Y-84375000D03*
X152800000Y-84375000D03*
X153300000Y-84375000D03*
X153800000Y-84375000D03*
X154300000Y-84375000D03*
X154800000Y-84375000D03*
X155300000Y-84375000D03*
X155800000Y-84375000D03*
X156300000Y-84375000D03*
X156800000Y-84375000D03*
X157300000Y-84375000D03*
X157800000Y-84375000D03*
X158300000Y-84375000D03*
D29*
X160225000Y-82450000D03*
X160225000Y-81950000D03*
X160225000Y-81450000D03*
X160225000Y-80950000D03*
X160225000Y-80450000D03*
X160225000Y-79950000D03*
X160225000Y-79450000D03*
X160225000Y-78950000D03*
X160225000Y-78450000D03*
X160225000Y-77950000D03*
X160225000Y-77450000D03*
X160225000Y-76950000D03*
X160225000Y-76450000D03*
X160225000Y-75950000D03*
X160225000Y-75450000D03*
X160225000Y-74950000D03*
D30*
X158300000Y-73025000D03*
X157800000Y-73025000D03*
X157300000Y-73025000D03*
X156800000Y-73025000D03*
X156300000Y-73025000D03*
X155800000Y-73025000D03*
X155300000Y-73025000D03*
X154800000Y-73025000D03*
X154300000Y-73025000D03*
X153800000Y-73025000D03*
X153300000Y-73025000D03*
X152800000Y-73025000D03*
X152300000Y-73025000D03*
X151800000Y-73025000D03*
X151300000Y-73025000D03*
X150800000Y-73025000D03*
%TD*%
D17*
%TO.C,R4*%
X199905000Y-67150000D03*
X201555000Y-67150000D03*
%TD*%
D31*
%TO.C,U2*%
X132200000Y-77162500D03*
X133150000Y-77162500D03*
X134100000Y-77162500D03*
X134100000Y-74887500D03*
X132200000Y-74887500D03*
%TD*%
D17*
%TO.C,R5*%
X201055000Y-55500000D03*
X202705000Y-55500000D03*
%TD*%
D32*
%TO.C,C1*%
X192800000Y-73675000D03*
X200000000Y-73675000D03*
%TD*%
D25*
%TO.C,C17*%
X149475000Y-70650000D03*
X151025000Y-70650000D03*
%TD*%
D27*
%TO.C,C10*%
X141300000Y-75950000D03*
X141300000Y-77500000D03*
%TD*%
D18*
%TO.C,J3*%
X177845000Y-49950000D03*
D19*
X180385000Y-49950000D03*
X182925000Y-49950000D03*
X185465000Y-49950000D03*
%TD*%
D28*
%TO.C,R1*%
X154750000Y-70675000D03*
X153100000Y-70675000D03*
%TD*%
D33*
%TO.C,TP5*%
X197575000Y-50100000D03*
%TD*%
D25*
%TO.C,C12*%
X132375000Y-79525000D03*
X133925000Y-79525000D03*
%TD*%
D24*
%TO.C,TP21*%
X142850000Y-48500000D03*
%TD*%
D34*
%TO.C,R7*%
X128825000Y-88962500D03*
X128825000Y-90612500D03*
%TD*%
D20*
%TO.C,C16*%
X162125000Y-61875000D03*
X160575000Y-61875000D03*
%TD*%
D33*
%TO.C,TP22*%
X193325000Y-50000000D03*
%TD*%
D11*
%TO.C,D6*%
X190712500Y-101075000D03*
X189137500Y-101075000D03*
%TD*%
D23*
%TO.C,H4*%
X132400000Y-51875000D03*
%TD*%
D24*
%TO.C,TP18*%
X129025000Y-79075000D03*
%TD*%
D17*
%TO.C,R8*%
X147750000Y-62600000D03*
X149400000Y-62600000D03*
%TD*%
D20*
%TO.C,C3*%
X152175000Y-86800000D03*
X150625000Y-86800000D03*
%TD*%
D27*
%TO.C,C7*%
X146275000Y-81100000D03*
X146275000Y-82650000D03*
%TD*%
D23*
%TO.C,H3*%
X209400000Y-51875000D03*
%TD*%
D24*
%TO.C,TP6*%
X149925000Y-100650000D03*
%TD*%
D20*
%TO.C,C4*%
X159375000Y-86550000D03*
X157825000Y-86550000D03*
%TD*%
D24*
%TO.C,TP2*%
X211775000Y-89425000D03*
%TD*%
D35*
%TO.C,J4*%
X171020000Y-52427500D03*
D36*
X165940000Y-52427500D03*
%TD*%
D34*
%TO.C,R10*%
X156720000Y-94155000D03*
X156720000Y-95805000D03*
%TD*%
D27*
%TO.C,C6*%
X139775000Y-93250000D03*
X139775000Y-94800000D03*
%TD*%
D20*
%TO.C,C11*%
X141325000Y-79850000D03*
X139775000Y-79850000D03*
%TD*%
D28*
%TO.C,R3*%
X166700000Y-64850000D03*
X165050000Y-64850000D03*
%TD*%
D25*
%TO.C,C13*%
X132275000Y-72650000D03*
X133825000Y-72650000D03*
%TD*%
D37*
%TO.C,SW2*%
X130505000Y-57075000D03*
X128295000Y-57075000D03*
D38*
X129395000Y-59225000D03*
X129395000Y-62225000D03*
D37*
X130505000Y-64375000D03*
X128295000Y-64375000D03*
D39*
X131155000Y-58475000D03*
X131155000Y-61475000D03*
X131155000Y-62975000D03*
%TD*%
D40*
%TO.C,U1*%
X186900000Y-73225000D03*
X185200000Y-73225000D03*
X183500000Y-73225000D03*
D41*
X183500000Y-82375000D03*
D40*
X181800000Y-73225000D03*
X180100000Y-73225000D03*
%TD*%
D21*
%TO.C,D5*%
X145825000Y-64062500D03*
X145825000Y-62487500D03*
%TD*%
D42*
%TO.C,SW1*%
X147000000Y-100600000D03*
X139800000Y-100600000D03*
X147000000Y-97600000D03*
X139800000Y-97600000D03*
%TD*%
D23*
%TO.C,H1*%
X132400000Y-97375000D03*
%TD*%
D18*
%TO.C,J1*%
X159630000Y-49600000D03*
D19*
X157090000Y-49600000D03*
X154550000Y-49600000D03*
X152010000Y-49600000D03*
%TD*%
D43*
%TO.C,D4*%
X128850000Y-85387500D03*
X128850000Y-86962500D03*
%TD*%
D24*
%TO.C,TP6*%
X175075000Y-100850000D03*
%TD*%
D44*
%TO.C,U3*%
X165562500Y-60650000D03*
X165562500Y-61300000D03*
X165562500Y-61950000D03*
X165562500Y-62600000D03*
X167837500Y-62600000D03*
X167837500Y-61950000D03*
X167837500Y-61300000D03*
X167837500Y-60650000D03*
%TD*%
D28*
%TO.C,R9*%
X190800000Y-99050000D03*
X189150000Y-99050000D03*
%TD*%
D27*
%TO.C,C5*%
X138225000Y-68525000D03*
X138225000Y-70075000D03*
%TD*%
D45*
%TO.C,JP1*%
X172550000Y-63875000D03*
X172550000Y-62575000D03*
%TD*%
M02*
