%TF.GenerationSoftware,KiCad,Pcbnew,10.0.0*%
%TF.CreationDate,2026-06-24T15:33:42-04:00*%
%TF.ProjectId,CanBus,43616e42-7573-42e6-9b69-6361645f7063,rev?*%
%TF.SameCoordinates,Original*%
%TF.FileFunction,Copper,L1,Top*%
%TF.FilePolarity,Positive*%
%FSLAX46Y46*%
G04 Gerber Fmt 4.6, Leading zero omitted, Abs format (unit mm)*
G04 Created by KiCad (PCBNEW 10.0.0) date 2026-06-24 15:33:42*
%MOMM*%
%LPD*%
G01*
G04 APERTURE LIST*
G04 Aperture macros list*
%AMRoundRect*
0 Rectangle with rounded corners*
0 $1 Rounding radius*
0 $2 $3 $4 $5 $6 $7 $8 $9 X,Y pos of 4 corners*
0 Add a 4 corners polygon primitive as box body*
4,1,4,$2,$3,$4,$5,$6,$7,$8,$9,$2,$3,0*
0 Add four circle primitives for the rounded corners*
1,1,$1+$1,$2,$3*
1,1,$1+$1,$4,$5*
1,1,$1+$1,$6,$7*
1,1,$1+$1,$8,$9*
0 Add four rect primitives between the rounded corners*
20,1,$1+$1,$2,$3,$4,$5,0*
20,1,$1+$1,$4,$5,$6,$7,0*
20,1,$1+$1,$6,$7,$8,$9,0*
20,1,$1+$1,$8,$9,$2,$3,0*%
G04 Aperture macros list end*
%TA.AperFunction,EtchedComponent*%
%ADD10C,0.000000*%
%TD*%
%TA.AperFunction,SMDPad,CuDef*%
%ADD11RoundRect,0.250001X2.049999X0.799999X-2.049999X0.799999X-2.049999X-0.799999X2.049999X-0.799999X0*%
%TD*%
%TA.AperFunction,SMDPad,CuDef*%
%ADD12RoundRect,0.218750X0.218750X0.256250X-0.218750X0.256250X-0.218750X-0.256250X0.218750X-0.256250X0*%
%TD*%
%TA.AperFunction,SMDPad,CuDef*%
%ADD13RoundRect,0.075000X0.275000X-0.075000X0.275000X0.075000X-0.275000X0.075000X-0.275000X-0.075000X0*%
%TD*%
%TA.AperFunction,ComponentPad*%
%ADD14O,1.400000X0.800000*%
%TD*%
%TA.AperFunction,SMDPad,CuDef*%
%ADD15R,5.400000X2.900000*%
%TD*%
%TA.AperFunction,SMDPad,CuDef*%
%ADD16RoundRect,0.200000X-0.200000X-0.275000X0.200000X-0.275000X0.200000X0.275000X-0.200000X0.275000X0*%
%TD*%
%TA.AperFunction,ComponentPad*%
%ADD17R,1.700000X1.700000*%
%TD*%
%TA.AperFunction,ComponentPad*%
%ADD18C,1.700000*%
%TD*%
%TA.AperFunction,SMDPad,CuDef*%
%ADD19RoundRect,0.225000X0.225000X0.250000X-0.225000X0.250000X-0.225000X-0.250000X0.225000X-0.250000X0*%
%TD*%
%TA.AperFunction,SMDPad,CuDef*%
%ADD20RoundRect,0.218750X0.256250X-0.218750X0.256250X0.218750X-0.256250X0.218750X-0.256250X-0.218750X0*%
%TD*%
%TA.AperFunction,ComponentPad*%
%ADD21RoundRect,0.250000X1.350000X-1.350000X1.350000X1.350000X-1.350000X1.350000X-1.350000X-1.350000X0*%
%TD*%
%TA.AperFunction,ComponentPad*%
%ADD22C,3.200000*%
%TD*%
%TA.AperFunction,SMDPad,CuDef*%
%ADD23R,1.000000X1.000000*%
%TD*%
%TA.AperFunction,SMDPad,CuDef*%
%ADD24RoundRect,0.225000X-0.225000X-0.250000X0.225000X-0.250000X0.225000X0.250000X-0.225000X0.250000X0*%
%TD*%
%TA.AperFunction,SMDPad,CuDef*%
%ADD25RoundRect,0.250000X-0.350000X0.450000X-0.350000X-0.450000X0.350000X-0.450000X0.350000X0.450000X0*%
%TD*%
%TA.AperFunction,SMDPad,CuDef*%
%ADD26RoundRect,0.225000X-0.250000X0.225000X-0.250000X-0.225000X0.250000X-0.225000X0.250000X0.225000X0*%
%TD*%
%TA.AperFunction,SMDPad,CuDef*%
%ADD27RoundRect,0.200000X0.200000X0.275000X-0.200000X0.275000X-0.200000X-0.275000X0.200000X-0.275000X0*%
%TD*%
%TA.AperFunction,SMDPad,CuDef*%
%ADD28RoundRect,0.075000X-0.700000X-0.075000X0.700000X-0.075000X0.700000X0.075000X-0.700000X0.075000X0*%
%TD*%
%TA.AperFunction,SMDPad,CuDef*%
%ADD29RoundRect,0.075000X-0.075000X-0.700000X0.075000X-0.700000X0.075000X0.700000X-0.075000X0.700000X0*%
%TD*%
%TA.AperFunction,SMDPad,CuDef*%
%ADD30RoundRect,0.150000X0.150000X-0.512500X0.150000X0.512500X-0.150000X0.512500X-0.150000X-0.512500X0*%
%TD*%
%TA.AperFunction,SMDPad,CuDef*%
%ADD31RoundRect,0.250001X-1.999999X-0.799999X1.999999X-0.799999X1.999999X0.799999X-1.999999X0.799999X0*%
%TD*%
%TA.AperFunction,ComponentPad*%
%ADD32C,2.000000*%
%TD*%
%TA.AperFunction,SMDPad,CuDef*%
%ADD33RoundRect,0.200000X-0.275000X0.200000X-0.275000X-0.200000X0.275000X-0.200000X0.275000X0.200000X0*%
%TD*%
%TA.AperFunction,ComponentPad*%
%ADD34RoundRect,0.250000X1.050000X1.050000X-1.050000X1.050000X-1.050000X-1.050000X1.050000X-1.050000X0*%
%TD*%
%TA.AperFunction,ComponentPad*%
%ADD35C,2.600000*%
%TD*%
%TA.AperFunction,SMDPad,CuDef*%
%ADD36R,0.800000X1.000000*%
%TD*%
%TA.AperFunction,SMDPad,CuDef*%
%ADD37R,1.500000X0.700000*%
%TD*%
%TA.AperFunction,SMDPad,CuDef*%
%ADD38RoundRect,0.250000X-0.300000X2.050000X-0.300000X-2.050000X0.300000X-2.050000X0.300000X2.050000X0*%
%TD*%
%TA.AperFunction,SMDPad,CuDef*%
%ADD39RoundRect,0.250002X-5.149998X4.449998X-5.149998X-4.449998X5.149998X-4.449998X5.149998X4.449998X0*%
%TD*%
%TA.AperFunction,SMDPad,CuDef*%
%ADD40R,1.600000X1.400000*%
%TD*%
%TA.AperFunction,SMDPad,CuDef*%
%ADD41RoundRect,0.218750X-0.256250X0.218750X-0.256250X-0.218750X0.256250X-0.218750X0.256250X0.218750X0*%
%TD*%
%TA.AperFunction,SMDPad,CuDef*%
%ADD42RoundRect,0.125000X-0.537500X-0.125000X0.537500X-0.125000X0.537500X0.125000X-0.537500X0.125000X0*%
%TD*%
%TA.AperFunction,SMDPad,CuDef*%
%ADD43R,1.500000X1.000000*%
%TD*%
%TA.AperFunction,ViaPad*%
%ADD44C,0.600000*%
%TD*%
%TA.AperFunction,Conductor*%
%ADD45C,1.000000*%
%TD*%
%TA.AperFunction,Conductor*%
%ADD46C,0.400000*%
%TD*%
%TA.AperFunction,Conductor*%
%ADD47C,0.250000*%
%TD*%
%TA.AperFunction,Conductor*%
%ADD48C,0.200000*%
%TD*%
G04 APERTURE END LIST*
D10*
%TA.AperFunction,EtchedComponent*%
%TO.C,JP1*%
G36*
X172850000Y-63475000D02*
G01*
X172250000Y-63475000D01*
X172250000Y-62975000D01*
X172850000Y-62975000D01*
X172850000Y-63475000D01*
G37*
%TD.AperFunction*%
%TD*%
D11*
%TO.P,C14,1*%
%TO.N,+5V*%
X187325000Y-93250000D03*
%TO.P,C14,2*%
%TO.N,GND*%
X178525000Y-93250000D03*
%TD*%
D12*
%TO.P,D3,1,K_1*%
%TO.N,GND*%
X133737500Y-67625000D03*
%TO.P,D3,2,A_2*%
%TO.N,Net-(D3-A)*%
X132162500Y-67625000D03*
%TD*%
D13*
%TO.P,J5,A1,GND_A1*%
%TO.N,GND*%
X205040000Y-64035000D03*
%TO.P,J5,A2*%
%TO.N,N/C*%
X205040000Y-63535000D03*
%TO.P,J5,A3*%
X205040000Y-63035000D03*
%TO.P,J5,A4,VBUS_A4*%
%TO.N,VBUS*%
X205040000Y-62535000D03*
%TO.P,J5,A5,CC1_A5*%
%TO.N,Net-(J5-CC1)*%
X205040000Y-62035000D03*
%TO.P,J5,A6,D+_A6*%
%TO.N,/D+*%
X205040000Y-61535000D03*
%TO.P,J5,A7,D-_A7*%
%TO.N,/D-*%
X205040000Y-61035000D03*
%TO.P,J5,A8,SBU1_A8*%
%TO.N,unconnected-(J5-SBU1-PadA8)*%
X205040000Y-60535000D03*
%TO.P,J5,A9,VBUS_A9*%
%TO.N,VBUS*%
X205040000Y-60035000D03*
%TO.P,J5,A10*%
%TO.N,N/C*%
X205040000Y-59535000D03*
%TO.P,J5,A11*%
X205040000Y-59035000D03*
%TO.P,J5,A12,GND_A12*%
%TO.N,GND*%
X205040000Y-58535000D03*
%TO.P,J5,B1,GND_B1*%
X206740000Y-58785000D03*
%TO.P,J5,B2*%
%TO.N,N/C*%
X206740000Y-59285000D03*
%TO.P,J5,B3*%
X206740000Y-59785000D03*
%TO.P,J5,B4,VBUS_B4*%
%TO.N,VBUS*%
X206740000Y-60285000D03*
%TO.P,J5,B5,CC2_B5*%
%TO.N,Net-(J5-CC2)*%
X206740000Y-60785000D03*
%TO.P,J5,B6,D+_B6*%
%TO.N,/D+*%
X206740000Y-61285000D03*
%TO.P,J5,B7,D-_B7*%
%TO.N,/D-*%
X206740000Y-61785000D03*
%TO.P,J5,B8,SBU2_B8*%
%TO.N,unconnected-(J5-SBU2-PadB8)*%
X206740000Y-62285000D03*
%TO.P,J5,B9,VBUS_B9*%
%TO.N,VBUS*%
X206740000Y-62785000D03*
%TO.P,J5,B10*%
%TO.N,N/C*%
X206740000Y-63285000D03*
%TO.P,J5,B11*%
X206740000Y-63785000D03*
%TO.P,J5,B12,GND_B12*%
%TO.N,GND*%
X206740000Y-64285000D03*
D14*
%TO.P,J5,SH,SHIELD_SH*%
%TO.N,unconnected-(J5-SHIELD-PadSH)_2*%
X212900000Y-65775000D03*
%TO.N,unconnected-(J5-SHIELD-PadSH)_3*%
X206950000Y-65415000D03*
%TO.N,unconnected-(J5-SHIELD-PadSH)*%
X206950000Y-57155000D03*
%TO.N,unconnected-(J5-SHIELD-PadSH)_1*%
X212900000Y-56795000D03*
%TD*%
D15*
%TO.P,L1,1,1_1*%
%TO.N,Net-(D1-K)*%
X197225000Y-85975000D03*
%TO.P,L1,2,2_2*%
%TO.N,+5V*%
X197225000Y-95875000D03*
%TD*%
D16*
%TO.P,R6,1*%
%TO.N,+3.3V*%
X128500000Y-67625000D03*
%TO.P,R6,2*%
%TO.N,Net-(D3-A)*%
X130150000Y-67625000D03*
%TD*%
D17*
%TO.P,J2,1,Pin_1_1*%
%TO.N,+3.3V*%
X160245000Y-100175000D03*
D18*
%TO.P,J2,2,Pin_2_2*%
%TO.N,/I2C_SCL*%
X162785000Y-100175000D03*
%TO.P,J2,3,Pin_3_3*%
%TO.N,/I2C_SDA*%
X165325000Y-100175000D03*
%TO.P,J2,4,Pin_4_4*%
%TO.N,GND*%
X167865000Y-100175000D03*
%TD*%
D19*
%TO.P,C2,1*%
%TO.N,+3.3V*%
X148225000Y-72575000D03*
%TO.P,C2,2*%
%TO.N,GND*%
X146675000Y-72575000D03*
%TD*%
D20*
%TO.P,FB1,1*%
%TO.N,+3.3VA*%
X144450000Y-70387500D03*
%TO.P,FB1,2*%
%TO.N,+3.3V*%
X144450000Y-68812500D03*
%TD*%
D21*
%TO.P,D1,1,K_1*%
%TO.N,Net-(D1-K)*%
X173350000Y-89325000D03*
D22*
%TO.P,D1,2,A_2*%
%TO.N,GND*%
X173350000Y-74085000D03*
%TD*%
D23*
%TO.P,TP20,1,1_1*%
%TO.N,/CAN_TX*%
X140400000Y-48500000D03*
%TD*%
%TO.P,TP4,1,1_1*%
%TO.N,+3.3V*%
X129025000Y-72350000D03*
%TD*%
D24*
%TO.P,C15,1*%
%TO.N,+3.3V*%
X160850000Y-73325000D03*
%TO.P,C15,2*%
%TO.N,GND*%
X162400000Y-73325000D03*
%TD*%
D25*
%TO.P,Y1,1,1_1*%
%TO.N,/OSC_IN*%
X144125000Y-75975000D03*
%TO.P,Y1,2,G_2*%
%TO.N,GND*%
X144125000Y-78175000D03*
%TO.P,Y1,3,3_3*%
%TO.N,/OSC_OUT*%
X145825000Y-78175000D03*
%TO.P,Y1,4,G_4*%
%TO.N,GND*%
X145825000Y-75975000D03*
%TD*%
D26*
%TO.P,C9,1*%
%TO.N,+3.3V*%
X141975000Y-68775000D03*
%TO.P,C9,2*%
%TO.N,GND*%
X141975000Y-70325000D03*
%TD*%
D27*
%TO.P,R11,1*%
%TO.N,/I2C_SDA*%
X163945000Y-95225000D03*
%TO.P,R11,2*%
%TO.N,+3.3V*%
X162295000Y-95225000D03*
%TD*%
D26*
%TO.P,C8,1*%
%TO.N,+3.3VA*%
X143925000Y-81000000D03*
%TO.P,C8,2*%
%TO.N,GND*%
X143925000Y-82550000D03*
%TD*%
D28*
%TO.P,U5,1,VBAT_1*%
%TO.N,+3.3V*%
X148875000Y-74950000D03*
%TO.P,U5,2,PC13_2*%
%TO.N,unconnected-(U5-PC13-Pad2)*%
X148875000Y-75450000D03*
%TO.P,U5,3,PC14_3*%
%TO.N,unconnected-(U5-PC14-Pad3)*%
X148875000Y-75950000D03*
%TO.P,U5,4,PC15_4*%
%TO.N,unconnected-(U5-PC15-Pad4)*%
X148875000Y-76450000D03*
%TO.P,U5,5,PH0_5*%
%TO.N,/OSC_IN*%
X148875000Y-76950000D03*
%TO.P,U5,6,PH1_6*%
%TO.N,/OSC_OUT*%
X148875000Y-77450000D03*
%TO.P,U5,7,NRST_7*%
%TO.N,Net-(U5-NRST)*%
X148875000Y-77950000D03*
%TO.P,U5,8,PC0_8*%
%TO.N,unconnected-(U5-PC0-Pad8)*%
X148875000Y-78450000D03*
%TO.P,U5,9,PC1_9*%
%TO.N,unconnected-(U5-PC1-Pad9)*%
X148875000Y-78950000D03*
%TO.P,U5,10,PC2_10*%
%TO.N,Net-(U5-PC2)*%
X148875000Y-79450000D03*
%TO.P,U5,11,PC3_11*%
%TO.N,unconnected-(U5-PC3-Pad11)*%
X148875000Y-79950000D03*
%TO.P,U5,12,VSSA_12*%
%TO.N,GND*%
X148875000Y-80450000D03*
%TO.P,U5,13,VDDA_13*%
%TO.N,+3.3VA*%
X148875000Y-80950000D03*
%TO.P,U5,14,PA0_14*%
%TO.N,unconnected-(U5-PA0-Pad14)*%
X148875000Y-81450000D03*
%TO.P,U5,15,PA1_15*%
%TO.N,unconnected-(U5-PA1-Pad15)*%
X148875000Y-81950000D03*
%TO.P,U5,16,PA2_16*%
%TO.N,unconnected-(U5-PA2-Pad16)*%
X148875000Y-82450000D03*
D29*
%TO.P,U5,17,PA3_17*%
%TO.N,unconnected-(U5-PA3-Pad17)*%
X150800000Y-84375000D03*
%TO.P,U5,18,VSS_18*%
%TO.N,GND*%
X151300000Y-84375000D03*
%TO.P,U5,19,VDD_19*%
%TO.N,+3.3V*%
X151800000Y-84375000D03*
%TO.P,U5,20,PA4_20*%
%TO.N,unconnected-(U5-PA4-Pad20)*%
X152300000Y-84375000D03*
%TO.P,U5,21,PA5_21*%
%TO.N,unconnected-(U5-PA5-Pad21)*%
X152800000Y-84375000D03*
%TO.P,U5,22,PA6_22*%
%TO.N,unconnected-(U5-PA6-Pad22)*%
X153300000Y-84375000D03*
%TO.P,U5,23,PA7_23*%
%TO.N,unconnected-(U5-PA7-Pad23)*%
X153800000Y-84375000D03*
%TO.P,U5,24,PC4_24*%
%TO.N,unconnected-(U5-PC4-Pad24)*%
X154300000Y-84375000D03*
%TO.P,U5,25,PC5_25*%
%TO.N,unconnected-(U5-PC5-Pad25)*%
X154800000Y-84375000D03*
%TO.P,U5,26,PB0_26*%
%TO.N,unconnected-(U5-PB0-Pad26)*%
X155300000Y-84375000D03*
%TO.P,U5,27,PB1_27*%
%TO.N,unconnected-(U5-PB1-Pad27)*%
X155800000Y-84375000D03*
%TO.P,U5,28,PB2_28*%
%TO.N,unconnected-(U5-PB2-Pad28)*%
X156300000Y-84375000D03*
%TO.P,U5,29,PB10_29*%
%TO.N,/I2C_SCL*%
X156800000Y-84375000D03*
%TO.P,U5,30,VCAP_1_30*%
%TO.N,unconnected-(U5-VCAP_1-Pad30)*%
X157300000Y-84375000D03*
%TO.P,U5,31,VSS_31*%
%TO.N,GND*%
X157800000Y-84375000D03*
%TO.P,U5,32,VDD_32*%
%TO.N,+3.3V*%
X158300000Y-84375000D03*
D28*
%TO.P,U5,33,PB12_33*%
%TO.N,/I2C_SDA*%
X160225000Y-82450000D03*
%TO.P,U5,34,PB13_34*%
%TO.N,unconnected-(U5-PB13-Pad34)*%
X160225000Y-81950000D03*
%TO.P,U5,35,PB14_35*%
%TO.N,unconnected-(U5-PB14-Pad35)*%
X160225000Y-81450000D03*
%TO.P,U5,36,PB15_36*%
%TO.N,unconnected-(U5-PB15-Pad36)*%
X160225000Y-80950000D03*
%TO.P,U5,37,PC6_37*%
%TO.N,unconnected-(U5-PC6-Pad37)*%
X160225000Y-80450000D03*
%TO.P,U5,38,PC7_38*%
%TO.N,unconnected-(U5-PC7-Pad38)*%
X160225000Y-79950000D03*
%TO.P,U5,39,PC8_39*%
%TO.N,unconnected-(U5-PC8-Pad39)*%
X160225000Y-79450000D03*
%TO.P,U5,40,PC9_40*%
%TO.N,unconnected-(U5-PC9-Pad40)*%
X160225000Y-78950000D03*
%TO.P,U5,41,PA8_41*%
%TO.N,unconnected-(U5-PA8-Pad41)*%
X160225000Y-78450000D03*
%TO.P,U5,42,PA9_42*%
%TO.N,/UART_TX*%
X160225000Y-77950000D03*
%TO.P,U5,43,PA10_43*%
%TO.N,/UART_RX*%
X160225000Y-77450000D03*
%TO.P,U5,44,PA11_44*%
%TO.N,/D-*%
X160225000Y-76950000D03*
%TO.P,U5,45,PA12_45*%
%TO.N,/D+*%
X160225000Y-76450000D03*
%TO.P,U5,46,PA13_46*%
%TO.N,/SWDIO*%
X160225000Y-75950000D03*
%TO.P,U5,47,VSS_47*%
%TO.N,GND*%
X160225000Y-75450000D03*
%TO.P,U5,48,VDD_48*%
%TO.N,+3.3V*%
X160225000Y-74950000D03*
D29*
%TO.P,U5,49,PA14_49*%
%TO.N,/SWCLK*%
X158300000Y-73025000D03*
%TO.P,U5,50,PA15_50*%
%TO.N,unconnected-(U5-PA15-Pad50)*%
X157800000Y-73025000D03*
%TO.P,U5,51,PC10_51*%
%TO.N,unconnected-(U5-PC10-Pad51)*%
X157300000Y-73025000D03*
%TO.P,U5,52,PC11_52*%
%TO.N,unconnected-(U5-PC11-Pad52)*%
X156800000Y-73025000D03*
%TO.P,U5,53,PC12_53*%
%TO.N,unconnected-(U5-PC12-Pad53)*%
X156300000Y-73025000D03*
%TO.P,U5,54,PD2_54*%
%TO.N,unconnected-(U5-PD2-Pad54)*%
X155800000Y-73025000D03*
%TO.P,U5,55,PB3_55*%
%TO.N,unconnected-(U5-PB3-Pad55)*%
X155300000Y-73025000D03*
%TO.P,U5,56,PB4_56*%
%TO.N,unconnected-(U5-PB4-Pad56)*%
X154800000Y-73025000D03*
%TO.P,U5,57,PB5_57*%
%TO.N,unconnected-(U5-PB5-Pad57)*%
X154300000Y-73025000D03*
%TO.P,U5,58,PB6_58*%
%TO.N,unconnected-(U5-PB6-Pad58)*%
X153800000Y-73025000D03*
%TO.P,U5,59,PB7_59*%
%TO.N,unconnected-(U5-PB7-Pad59)*%
X153300000Y-73025000D03*
%TO.P,U5,60,BOOT0_60*%
%TO.N,/BOOTO*%
X152800000Y-73025000D03*
%TO.P,U5,61,PB8_61*%
%TO.N,/CAN_RX*%
X152300000Y-73025000D03*
%TO.P,U5,62,PB9_62*%
%TO.N,/CAN_TX*%
X151800000Y-73025000D03*
%TO.P,U5,63,VSS_63*%
%TO.N,GND*%
X151300000Y-73025000D03*
%TO.P,U5,64,VDD_64*%
%TO.N,+3.3V*%
X150800000Y-73025000D03*
%TD*%
D16*
%TO.P,R4,1*%
%TO.N,GND*%
X199905000Y-67150000D03*
%TO.P,R4,2*%
%TO.N,Net-(J5-CC1)*%
X201555000Y-67150000D03*
%TD*%
D30*
%TO.P,U2,1,VIN_1*%
%TO.N,+5V*%
X132200000Y-77162500D03*
%TO.P,U2,2,GND_2*%
%TO.N,GND*%
X133150000Y-77162500D03*
%TO.P,U2,3,EN_3*%
%TO.N,+5V*%
X134100000Y-77162500D03*
%TO.P,U2,4,NC_4*%
%TO.N,unconnected-(U2-NC-Pad4)*%
X134100000Y-74887500D03*
%TO.P,U2,5,VOUT_5*%
%TO.N,+3.3V*%
X132200000Y-74887500D03*
%TD*%
D16*
%TO.P,R5,1*%
%TO.N,GND*%
X201055000Y-55500000D03*
%TO.P,R5,2*%
%TO.N,Net-(J5-CC2)*%
X202705000Y-55500000D03*
%TD*%
D31*
%TO.P,C1,1*%
%TO.N,+12V*%
X192800000Y-73675000D03*
%TO.P,C1,2*%
%TO.N,GND*%
X200000000Y-73675000D03*
%TD*%
D24*
%TO.P,C17,1*%
%TO.N,+3.3V*%
X149475000Y-70650000D03*
%TO.P,C17,2*%
%TO.N,GND*%
X151025000Y-70650000D03*
%TD*%
D26*
%TO.P,C10,1*%
%TO.N,/OSC_IN*%
X141300000Y-75950000D03*
%TO.P,C10,2*%
%TO.N,GND*%
X141300000Y-77500000D03*
%TD*%
D17*
%TO.P,J3,1,Pin_1_1*%
%TO.N,+3.3V*%
X177845000Y-49950000D03*
D18*
%TO.P,J3,2,Pin_2_2*%
%TO.N,/UART_TX*%
X180385000Y-49950000D03*
%TO.P,J3,3,Pin_3_3*%
%TO.N,/UART_RX*%
X182925000Y-49950000D03*
%TO.P,J3,4,Pin_4_4*%
%TO.N,GND*%
X185465000Y-49950000D03*
%TD*%
D27*
%TO.P,R1,1*%
%TO.N,Net-(SW2-B)*%
X154750000Y-70675000D03*
%TO.P,R1,2*%
%TO.N,/BOOTO*%
X153100000Y-70675000D03*
%TD*%
D32*
%TO.P,TP5,1,1_1*%
%TO.N,/CAN_H*%
X197575000Y-50100000D03*
%TD*%
D24*
%TO.P,C12,1*%
%TO.N,+5V*%
X132375000Y-79525000D03*
%TO.P,C12,2*%
%TO.N,GND*%
X133925000Y-79525000D03*
%TD*%
D23*
%TO.P,TP21,1,1_1*%
%TO.N,/CAN_RX*%
X142850000Y-48500000D03*
%TD*%
D33*
%TO.P,R7,1*%
%TO.N,Net-(D4-A)*%
X128825000Y-88962500D03*
%TO.P,R7,2*%
%TO.N,Net-(U5-PC2)*%
X128825000Y-90612500D03*
%TD*%
D19*
%TO.P,C16,1*%
%TO.N,+3.3V*%
X162125000Y-61875000D03*
%TO.P,C16,2*%
%TO.N,GND*%
X160575000Y-61875000D03*
%TD*%
D32*
%TO.P,TP22,1,1_1*%
%TO.N,/CAN_L*%
X193325000Y-50000000D03*
%TD*%
D12*
%TO.P,D6,1,K_1*%
%TO.N,GND*%
X190712500Y-101075000D03*
%TO.P,D6,2,A_2*%
%TO.N,Net-(D6-A)*%
X189137500Y-101075000D03*
%TD*%
D23*
%TO.P,TP18,1,1_1*%
%TO.N,GND*%
X129025000Y-79075000D03*
%TD*%
D16*
%TO.P,R8,1*%
%TO.N,/PWR_LED*%
X147750000Y-62600000D03*
%TO.P,R8,2*%
%TO.N,+3.3V*%
X149400000Y-62600000D03*
%TD*%
D19*
%TO.P,C3,1*%
%TO.N,+3.3V*%
X152175000Y-86800000D03*
%TO.P,C3,2*%
%TO.N,GND*%
X150625000Y-86800000D03*
%TD*%
D26*
%TO.P,C7,1*%
%TO.N,+3.3VA*%
X146275000Y-81100000D03*
%TO.P,C7,2*%
%TO.N,GND*%
X146275000Y-82650000D03*
%TD*%
D23*
%TO.P,TP6,1,1_1*%
%TO.N,Net-(C6-Pad2)*%
X149925000Y-100650000D03*
%TD*%
D19*
%TO.P,C4,1*%
%TO.N,+3.3V*%
X159375000Y-86550000D03*
%TO.P,C4,2*%
%TO.N,GND*%
X157825000Y-86550000D03*
%TD*%
D23*
%TO.P,TP2,1,1_1*%
%TO.N,+5V*%
X211775000Y-89425000D03*
%TD*%
D34*
%TO.P,J4,1,Pin_1_1*%
%TO.N,/CAN_H*%
X171020000Y-52427500D03*
D35*
%TO.P,J4,2,Pin_2_2*%
%TO.N,/CAN_L*%
X165940000Y-52427500D03*
%TD*%
D33*
%TO.P,R10,1*%
%TO.N,/I2C_SCL*%
X156720000Y-94155000D03*
%TO.P,R10,2*%
%TO.N,+3.3V*%
X156720000Y-95805000D03*
%TD*%
D26*
%TO.P,C6,1*%
%TO.N,Net-(U5-NRST)*%
X139775000Y-93250000D03*
%TO.P,C6,2*%
%TO.N,Net-(C6-Pad2)*%
X139775000Y-94800000D03*
%TD*%
D19*
%TO.P,C11,1*%
%TO.N,/OSC_OUT*%
X141325000Y-79850000D03*
%TO.P,C11,2*%
%TO.N,GND*%
X139775000Y-79850000D03*
%TD*%
D27*
%TO.P,R3,1*%
%TO.N,Net-(JP1-A)*%
X166700000Y-64850000D03*
%TO.P,R3,2*%
%TO.N,/CAN_L*%
X165050000Y-64850000D03*
%TD*%
D24*
%TO.P,C13,1*%
%TO.N,+3.3V*%
X132275000Y-72650000D03*
%TO.P,C13,2*%
%TO.N,GND*%
X133825000Y-72650000D03*
%TD*%
D36*
%TO.P,SW2,*%
%TO.N,*%
X130505000Y-57075000D03*
X128295000Y-57075000D03*
X130505000Y-64375000D03*
X128295000Y-64375000D03*
D37*
%TO.P,SW2,1,A_1*%
%TO.N,GND*%
X131155000Y-58475000D03*
%TO.P,SW2,2,B_2*%
%TO.N,Net-(SW2-B)*%
X131155000Y-61475000D03*
%TO.P,SW2,3,C_3*%
%TO.N,+3.3V*%
X131155000Y-62975000D03*
%TD*%
D38*
%TO.P,U1,1,VIN_1*%
%TO.N,+12V*%
X186900000Y-73225000D03*
%TO.P,U1,2,OUT_2*%
%TO.N,Net-(D1-K)*%
X185200000Y-73225000D03*
%TO.P,U1,3,GND_3*%
%TO.N,GND*%
X183500000Y-73225000D03*
D39*
X183500000Y-82375000D03*
D38*
%TO.P,U1,4,FB_4*%
%TO.N,+5V*%
X181800000Y-73225000D03*
%TO.P,U1,5,~{ON}/OFF_5*%
%TO.N,GND*%
X180100000Y-73225000D03*
%TD*%
D20*
%TO.P,D5,1,K_1*%
%TO.N,GND*%
X145825000Y-64062500D03*
%TO.P,D5,2,A_2*%
%TO.N,/PWR_LED*%
X145825000Y-62487500D03*
%TD*%
D40*
%TO.P,SW1,1,1_1*%
%TO.N,GND*%
X147000000Y-100600000D03*
X139800000Y-100600000D03*
%TO.P,SW1,2,2_2*%
%TO.N,Net-(C6-Pad2)*%
X147000000Y-97600000D03*
X139800000Y-97600000D03*
%TD*%
D17*
%TO.P,J1,1,Pin_1_1*%
%TO.N,+3.3V*%
X159630000Y-49600000D03*
D18*
%TO.P,J1,2,Pin_2_2*%
%TO.N,/SWDIO*%
X157090000Y-49600000D03*
%TO.P,J1,3,Pin_3_3*%
%TO.N,/SWCLK*%
X154550000Y-49600000D03*
%TO.P,J1,4,Pin_4_4*%
%TO.N,GND*%
X152010000Y-49600000D03*
%TD*%
D41*
%TO.P,D4,1,K_1*%
%TO.N,GND*%
X128850000Y-85387500D03*
%TO.P,D4,2,A_2*%
%TO.N,Net-(D4-A)*%
X128850000Y-86962500D03*
%TD*%
D23*
%TO.P,TP6,1,1_1*%
%TO.N,GND*%
X175075000Y-100850000D03*
%TD*%
D42*
%TO.P,U3,1,TXD_1*%
%TO.N,/CAN_TX*%
X165562500Y-60650000D03*
%TO.P,U3,2,GND_2*%
%TO.N,GND*%
X165562500Y-61300000D03*
%TO.P,U3,3,VCC_3*%
%TO.N,+3.3V*%
X165562500Y-61950000D03*
%TO.P,U3,4,RXD_4*%
%TO.N,/CAN_RX*%
X165562500Y-62600000D03*
%TO.P,U3,5,NC_5*%
%TO.N,unconnected-(U3-NC-Pad5)*%
X167837500Y-62600000D03*
%TO.P,U3,6,CANL_6*%
%TO.N,/CAN_L*%
X167837500Y-61950000D03*
%TO.P,U3,7,CANH_7*%
%TO.N,/CAN_H*%
X167837500Y-61300000D03*
%TO.P,U3,8,NC_8*%
%TO.N,unconnected-(U3-NC-Pad8)*%
X167837500Y-60650000D03*
%TD*%
D27*
%TO.P,R9,1*%
%TO.N,+5V*%
X190800000Y-99050000D03*
%TO.P,R9,2*%
%TO.N,Net-(D6-A)*%
X189150000Y-99050000D03*
%TD*%
D26*
%TO.P,C5,1*%
%TO.N,+3.3V*%
X138225000Y-68525000D03*
%TO.P,C5,2*%
%TO.N,GND*%
X138225000Y-70075000D03*
%TD*%
D43*
%TO.P,JP1,1,A_1*%
%TO.N,Net-(JP1-A)*%
X172550000Y-63875000D03*
%TO.P,JP1,2,B_2*%
%TO.N,/CAN_H*%
X172550000Y-62575000D03*
%TD*%
D44*
%TO.N,+5V*%
X179025000Y-100875000D03*
X134000000Y-88275000D03*
X153800000Y-91200000D03*
X186650000Y-90175000D03*
X131175000Y-79525000D03*
X181725000Y-76400000D03*
%TO.N,GND*%
X134950000Y-80800000D03*
X177100000Y-78775000D03*
X201400000Y-71940000D03*
X145825000Y-75975000D03*
X128325000Y-82650000D03*
X175450000Y-94125000D03*
X176625000Y-100850000D03*
X149690000Y-85590000D03*
X142850000Y-86800000D03*
X171000000Y-101450000D03*
X132600000Y-58375000D03*
X204475000Y-58450000D03*
X144075000Y-78225000D03*
X145600000Y-72990000D03*
X147610000Y-83920000D03*
X167775000Y-96675000D03*
X149160000Y-86650000D03*
X139400000Y-78450000D03*
X203050000Y-74560000D03*
X174175000Y-92525000D03*
X136900000Y-71300000D03*
X175275000Y-92675000D03*
X173375000Y-92975000D03*
X138875000Y-75525000D03*
X169225000Y-95800000D03*
X138775000Y-80975000D03*
X139100000Y-76775000D03*
X203020000Y-72470000D03*
X200150000Y-55375000D03*
X171900000Y-101500000D03*
X135275000Y-86300000D03*
X138425000Y-78575000D03*
X138125000Y-71575000D03*
X151975000Y-51825000D03*
X147040000Y-87140000D03*
X207525000Y-58750000D03*
X139850000Y-77550000D03*
X134150000Y-66225000D03*
X135725000Y-71625000D03*
X185550000Y-52325000D03*
X130675000Y-85900000D03*
X145620000Y-72110000D03*
X148120000Y-87230000D03*
X143975000Y-86950000D03*
X170125000Y-100600000D03*
X201880000Y-75460000D03*
X167300000Y-97875000D03*
X138825000Y-72050000D03*
X178925000Y-96800000D03*
X139175000Y-86475000D03*
X142000000Y-71150000D03*
X133150000Y-77162500D03*
X167200000Y-97100000D03*
X170850000Y-94800000D03*
X136250000Y-86350000D03*
X134950000Y-71175000D03*
X135825000Y-70725000D03*
X135675000Y-78125000D03*
X160625000Y-63050000D03*
X136800000Y-70250000D03*
X150125000Y-80450000D03*
X163525000Y-73125000D03*
X148450000Y-100750000D03*
X179500000Y-95950000D03*
X203125000Y-73550000D03*
X129050000Y-84100000D03*
X157275000Y-82875000D03*
X168525000Y-96275000D03*
X168450000Y-98000000D03*
X132050000Y-86025000D03*
X170175000Y-95400000D03*
X135700000Y-74025000D03*
X163500000Y-61125000D03*
X151225000Y-82825000D03*
X138825000Y-73275000D03*
X176375000Y-95200000D03*
X144425000Y-64725000D03*
X138850000Y-74225000D03*
X173000000Y-101450000D03*
X138175000Y-86475000D03*
X175550000Y-94800000D03*
X178375000Y-95275000D03*
X128300000Y-83575000D03*
X199900000Y-67940000D03*
X159440000Y-62880000D03*
X169700000Y-97950000D03*
X135625000Y-77125000D03*
X203675000Y-64100000D03*
X180130000Y-70520000D03*
X138180000Y-101360000D03*
X191800000Y-101125000D03*
X175275000Y-93400000D03*
X169950000Y-98700000D03*
X138125000Y-100550000D03*
X183525000Y-69750000D03*
X170125000Y-101475000D03*
X142000000Y-86725000D03*
X179300000Y-95225000D03*
X178425000Y-97800000D03*
X138275000Y-79750000D03*
X150950000Y-69475000D03*
X175075000Y-92025000D03*
X169975000Y-99725000D03*
X137200000Y-86425000D03*
X159390000Y-61520000D03*
%TO.N,VBUS*%
X208425000Y-63775000D03*
X207675000Y-60075000D03*
X202775000Y-59950000D03*
X202750000Y-63225000D03*
%TO.N,Net-(J5-CC1)*%
X205810000Y-62150000D03*
X203710000Y-68640000D03*
%TO.N,/D+*%
X162225000Y-75275000D03*
X164025000Y-75150000D03*
%TO.N,/D-*%
X207775000Y-61750000D03*
X205900000Y-60600000D03*
%TO.N,+3.3V*%
X158375000Y-82600000D03*
X150900000Y-76200000D03*
X149375000Y-69125000D03*
X149450000Y-65100000D03*
X161050000Y-94650000D03*
X158775000Y-75050000D03*
X153225000Y-81750000D03*
X159575000Y-96000000D03*
%TO.N,+3.3VA*%
X144400000Y-71950000D03*
X142750000Y-81025000D03*
%TO.N,/CAN_TX*%
X163425000Y-60150000D03*
X164275000Y-60650000D03*
X154550000Y-60025000D03*
X151800000Y-74775000D03*
%TO.N,Net-(U5-NRST)*%
X150775000Y-77950000D03*
X140762500Y-92262500D03*
%TO.N,Net-(U5-PC2)*%
X130775000Y-89075000D03*
X147075000Y-79800000D03*
%TO.N,/UART_TX*%
X162150000Y-78075000D03*
X180475000Y-61425000D03*
%TO.N,/UART_RX*%
X182825000Y-57325000D03*
X162750000Y-77450000D03*
%TO.N,/CAN_RX*%
X152100000Y-71675000D03*
X163575000Y-62675000D03*
X146725000Y-52200000D03*
X152125000Y-69300000D03*
%TO.N,/CAN_H*%
X175575000Y-52725000D03*
X190350000Y-54900000D03*
%TO.N,/CAN_L*%
X170280000Y-62530000D03*
X166450000Y-56025000D03*
%TD*%
%TO.N,+5V*%
D45*
X132375000Y-79525000D02*
X131175000Y-79525000D01*
X134000000Y-88275000D02*
X134000000Y-90500000D01*
D46*
X132200000Y-78325000D02*
X132200000Y-79350000D01*
D45*
X186625000Y-90150000D02*
X186650000Y-90175000D01*
D46*
X132250000Y-78275000D02*
X132200000Y-78325000D01*
X181800000Y-76325000D02*
X181725000Y-76400000D01*
D45*
X179025000Y-100875000D02*
X186325000Y-100875000D01*
D46*
X186650000Y-92575000D02*
X187325000Y-93250000D01*
X132200000Y-77162500D02*
X132200000Y-78325000D01*
D45*
X186650000Y-90175000D02*
X186650000Y-92575000D01*
D46*
X134100000Y-77162500D02*
X134100000Y-78275000D01*
D45*
X181800000Y-73225000D02*
X181800000Y-76325000D01*
X134700000Y-91200000D02*
X153800000Y-91200000D01*
D46*
X132200000Y-79350000D02*
X132375000Y-79525000D01*
D45*
X186375000Y-94200000D02*
X187325000Y-93250000D01*
D46*
X134100000Y-78275000D02*
X132250000Y-78275000D01*
D45*
X186375000Y-100925000D02*
X186375000Y-94200000D01*
X186325000Y-100875000D02*
X186375000Y-100925000D01*
X134000000Y-90500000D02*
X134700000Y-91200000D01*
%TO.N,GND*%
D47*
X160575000Y-61875000D02*
X160575000Y-63000000D01*
D46*
X200000000Y-73675000D02*
X203000000Y-73675000D01*
D47*
X199905000Y-67935000D02*
X199900000Y-67940000D01*
D46*
X148300000Y-100600000D02*
X148450000Y-100750000D01*
D47*
X151300000Y-84375000D02*
X151300000Y-82900000D01*
X206740000Y-64285000D02*
X206185000Y-64285000D01*
D46*
X203000000Y-73675000D02*
X203125000Y-73550000D01*
X132500000Y-58475000D02*
X132600000Y-58375000D01*
D47*
X151025000Y-69550000D02*
X150950000Y-69475000D01*
X205950000Y-64050000D02*
X205055000Y-64050000D01*
X157825000Y-86550000D02*
X157825000Y-84400000D01*
D46*
X185465000Y-52240000D02*
X185550000Y-52325000D01*
D48*
X205040000Y-58535000D02*
X204955000Y-58450000D01*
X144075000Y-78225000D02*
X144050000Y-78250000D01*
X144125000Y-78175000D02*
X144075000Y-78225000D01*
D47*
X146675000Y-75125000D02*
X145825000Y-75975000D01*
D46*
X141975000Y-70325000D02*
X141975000Y-71125000D01*
D47*
X161425000Y-75400000D02*
X161375000Y-75450000D01*
D46*
X183500000Y-82375000D02*
X179900000Y-78775000D01*
D47*
X157825000Y-84400000D02*
X157800000Y-84375000D01*
D46*
X131155000Y-58475000D02*
X132500000Y-58475000D01*
X180100000Y-70550000D02*
X180130000Y-70520000D01*
D47*
X162400000Y-73325000D02*
X162400000Y-74000000D01*
X162400000Y-74000000D02*
X161425000Y-74975000D01*
X206185000Y-64285000D02*
X205950000Y-64050000D01*
X206740000Y-58785000D02*
X207490000Y-58785000D01*
D45*
X179240000Y-74085000D02*
X180100000Y-73225000D01*
D47*
X157800000Y-83400000D02*
X157275000Y-82875000D01*
X205040000Y-64035000D02*
X203740000Y-64035000D01*
X161425000Y-74975000D02*
X161425000Y-75400000D01*
D48*
X148875000Y-80450000D02*
X150125000Y-80450000D01*
D47*
X160575000Y-63000000D02*
X160625000Y-63050000D01*
D46*
X151895000Y-51745000D02*
X151975000Y-51825000D01*
X133737500Y-66637500D02*
X134150000Y-66225000D01*
X145825000Y-64062500D02*
X145087500Y-64062500D01*
D47*
X161375000Y-75450000D02*
X160225000Y-75450000D01*
D46*
X185465000Y-49950000D02*
X185465000Y-52240000D01*
D47*
X207490000Y-58785000D02*
X207525000Y-58750000D01*
X151025000Y-70650000D02*
X151025000Y-69550000D01*
D46*
X180100000Y-73225000D02*
X180100000Y-70550000D01*
X141975000Y-71125000D02*
X142000000Y-71150000D01*
D47*
X162400000Y-73325000D02*
X163325000Y-73325000D01*
D46*
X200950000Y-55375000D02*
X200150000Y-55375000D01*
D47*
X163325000Y-73325000D02*
X163525000Y-73125000D01*
D46*
X201100000Y-55525000D02*
X200950000Y-55375000D01*
X133737500Y-67625000D02*
X133737500Y-66637500D01*
D48*
X204955000Y-58450000D02*
X204475000Y-58450000D01*
D47*
X151300000Y-82900000D02*
X151225000Y-82825000D01*
X165562500Y-61300000D02*
X163675000Y-61300000D01*
X146675000Y-72575000D02*
X146675000Y-75125000D01*
X163675000Y-61300000D02*
X163500000Y-61125000D01*
D46*
X145087500Y-64062500D02*
X144425000Y-64725000D01*
X138175000Y-100600000D02*
X138125000Y-100550000D01*
D47*
X151300000Y-70925000D02*
X151025000Y-70650000D01*
X205055000Y-64050000D02*
X205040000Y-64035000D01*
D46*
X147000000Y-100600000D02*
X148300000Y-100600000D01*
X191750000Y-101075000D02*
X191800000Y-101125000D01*
D47*
X151300000Y-73025000D02*
X151300000Y-70925000D01*
X203740000Y-64035000D02*
X203675000Y-64100000D01*
X199905000Y-67150000D02*
X199905000Y-67935000D01*
D45*
X179900000Y-78775000D02*
X177100000Y-78775000D01*
D46*
X139800000Y-100600000D02*
X138175000Y-100600000D01*
X190712500Y-101075000D02*
X191750000Y-101075000D01*
X151895000Y-49675000D02*
X151895000Y-51745000D01*
X183500000Y-69775000D02*
X183525000Y-69750000D01*
D45*
X183500000Y-73225000D02*
X183500000Y-69775000D01*
X173350000Y-74085000D02*
X179240000Y-74085000D01*
D47*
X157800000Y-84375000D02*
X157800000Y-83400000D01*
%TO.N,Net-(D3-A)*%
X130150000Y-67625000D02*
X132162500Y-67625000D01*
%TO.N,VBUS*%
D48*
X203050000Y-67700000D02*
X208500000Y-67700000D01*
X208575000Y-63925000D02*
X208425000Y-63775000D01*
X208150000Y-63775000D02*
X207160000Y-62785000D01*
X205040000Y-62535000D02*
X204190000Y-62535000D01*
X207160000Y-62785000D02*
X206740000Y-62785000D01*
X204190000Y-62535000D02*
X202775000Y-63950000D01*
X208500000Y-67700000D02*
X208575000Y-67625000D01*
X208575000Y-67625000D02*
X208575000Y-63925000D01*
X202775000Y-63950000D02*
X202775000Y-67425000D01*
X205040000Y-60035000D02*
X202860000Y-60035000D01*
X202860000Y-60035000D02*
X202775000Y-59950000D01*
X206740000Y-60285000D02*
X206775000Y-60250000D01*
X202750000Y-63225000D02*
X202750000Y-63925000D01*
X206775000Y-60250000D02*
X207725000Y-60250000D01*
X208425000Y-63775000D02*
X208150000Y-63775000D01*
X202775000Y-67425000D02*
X203050000Y-67700000D01*
X207725000Y-60125000D02*
X207675000Y-60075000D01*
X207725000Y-60250000D02*
X207725000Y-60125000D01*
X202750000Y-63925000D02*
X202775000Y-63950000D01*
%TO.N,Net-(J5-CC1)*%
D47*
X203570000Y-68780000D02*
X201730000Y-68780000D01*
X201730000Y-68780000D02*
X201630000Y-68680000D01*
X201630000Y-68680000D02*
X201630000Y-67225000D01*
X205695000Y-62035000D02*
X205810000Y-62150000D01*
X203710000Y-68640000D02*
X203570000Y-68780000D01*
X205040000Y-62035000D02*
X205695000Y-62035000D01*
X201630000Y-67225000D02*
X201555000Y-67150000D01*
%TO.N,/D+*%
X160225000Y-76450000D02*
X161150000Y-76450000D01*
X164025000Y-75150000D02*
X171275000Y-67900000D01*
X206050000Y-61300000D02*
X206725000Y-61300000D01*
X161150000Y-76450000D02*
X162225000Y-75375000D01*
X206725000Y-61300000D02*
X206740000Y-61285000D01*
X197078554Y-67900000D02*
X203453554Y-61525000D01*
X171275000Y-67900000D02*
X197078554Y-67900000D01*
X205040000Y-61535000D02*
X205950000Y-61475000D01*
X205950000Y-61475000D02*
X206050000Y-61300000D01*
X203453554Y-61525000D02*
X204975000Y-61525000D01*
X162225000Y-75375000D02*
X162225000Y-75275000D01*
%TO.N,/D-*%
X207740000Y-61785000D02*
X206740000Y-61785000D01*
X163375000Y-74975000D02*
X163675000Y-74575000D01*
X163325000Y-75075000D02*
X163375000Y-74975000D01*
X203246446Y-61025000D02*
X204975000Y-61025000D01*
X207775000Y-61750000D02*
X207740000Y-61785000D01*
X163700000Y-74575000D02*
X170875000Y-67400000D01*
X160225000Y-76950000D02*
X161450000Y-76950000D01*
X161450000Y-76950000D02*
X163325000Y-75075000D01*
X163675000Y-74575000D02*
X163700000Y-74575000D01*
X196871446Y-67400000D02*
X203246446Y-61025000D01*
X170875000Y-67400000D02*
X196871446Y-67400000D01*
X205465000Y-61035000D02*
X205900000Y-60600000D01*
X205040000Y-61035000D02*
X205465000Y-61035000D01*
%TO.N,Net-(J5-CC2)*%
X208240000Y-60785000D02*
X206740000Y-60785000D01*
X208325000Y-60700000D02*
X208240000Y-60785000D01*
X202750000Y-55525000D02*
X202785000Y-55490000D01*
X208325000Y-56000000D02*
X208325000Y-60700000D01*
X207815000Y-55490000D02*
X208325000Y-56000000D01*
X202785000Y-55490000D02*
X207815000Y-55490000D01*
%TO.N,Net-(D1-K)*%
D45*
X190450000Y-80525000D02*
X197175000Y-80525000D01*
X185200000Y-76350000D02*
X185450000Y-76600000D01*
X173350000Y-89325000D02*
X174450000Y-88225000D01*
X174450000Y-88225000D02*
X197200000Y-88225000D01*
X197200000Y-88225000D02*
X197200000Y-86000000D01*
X185200000Y-73225000D02*
X185200000Y-75600000D01*
X197175000Y-80525000D02*
X197200000Y-80550000D01*
X185200000Y-75600000D02*
X185200000Y-76350000D01*
X185450000Y-76600000D02*
X190450000Y-76600000D01*
X190450000Y-76600000D02*
X190450000Y-80525000D01*
X197200000Y-85950000D02*
X197225000Y-85975000D01*
X197200000Y-86000000D02*
X197225000Y-85975000D01*
X197200000Y-80550000D02*
X197200000Y-85950000D01*
%TO.N,+3.3V*%
D47*
X151800000Y-83150000D02*
X151800000Y-84375000D01*
X160225000Y-74950000D02*
X158875000Y-74950000D01*
D46*
X162125000Y-61875000D02*
X163075000Y-61875000D01*
X162100000Y-58500000D02*
X162100000Y-61850000D01*
X144450000Y-68812500D02*
X149062500Y-68812500D01*
X159985000Y-96865000D02*
X159985000Y-96410000D01*
X161050000Y-94650000D02*
X161720000Y-94650000D01*
X162125000Y-68275000D02*
X160625000Y-69775000D01*
X161720000Y-94650000D02*
X162295000Y-95225000D01*
X149375000Y-70550000D02*
X149475000Y-70650000D01*
D47*
X152050000Y-82900000D02*
X151800000Y-83150000D01*
D46*
X177495000Y-49600000D02*
X159630000Y-49600000D01*
X160850000Y-73325000D02*
X160850000Y-74275000D01*
X162100000Y-61850000D02*
X162125000Y-61875000D01*
X149400000Y-65050000D02*
X149450000Y-65100000D01*
X163550000Y-61925000D02*
X163800000Y-61950000D01*
D47*
X153225000Y-81750000D02*
X152075000Y-82900000D01*
X161025000Y-91650000D02*
X161025000Y-94625000D01*
D46*
X150300000Y-72575000D02*
X150750000Y-73025000D01*
D47*
X150800000Y-76100000D02*
X150900000Y-76200000D01*
D46*
X160625000Y-69775000D02*
X160625000Y-73100000D01*
X160625000Y-73100000D02*
X160850000Y-73325000D01*
X160850000Y-74275000D02*
X160225000Y-74900000D01*
D48*
X152175000Y-86175000D02*
X152175000Y-86800000D01*
D46*
X159630000Y-56030000D02*
X162100000Y-58500000D01*
X148225000Y-72575000D02*
X148225000Y-74250000D01*
X149475000Y-71325000D02*
X148225000Y-72575000D01*
X159985000Y-96410000D02*
X159575000Y-96000000D01*
D47*
X159375000Y-86550000D02*
X159375000Y-84700000D01*
X158375000Y-84300000D02*
X158300000Y-84375000D01*
D46*
X159630000Y-49600000D02*
X159630000Y-56030000D01*
D47*
X159325000Y-84650000D02*
X158575000Y-84650000D01*
X158375000Y-82600000D02*
X158375000Y-84300000D01*
D46*
X163800000Y-61950000D02*
X165562500Y-61950000D01*
X148225000Y-72575000D02*
X150300000Y-72575000D01*
D48*
X151800000Y-84375000D02*
X151800000Y-85800000D01*
D46*
X177845000Y-49950000D02*
X177495000Y-49600000D01*
D47*
X156915000Y-96000000D02*
X159575000Y-96000000D01*
D48*
X151800000Y-85800000D02*
X152175000Y-86175000D01*
D47*
X156720000Y-95805000D02*
X156915000Y-96000000D01*
D46*
X159975000Y-96875000D02*
X159985000Y-96865000D01*
D47*
X159375000Y-86550000D02*
X159375000Y-90000000D01*
X158875000Y-74950000D02*
X158775000Y-75050000D01*
D46*
X149475000Y-70650000D02*
X149475000Y-71325000D01*
X163075000Y-61875000D02*
X163550000Y-61925000D01*
D47*
X159375000Y-90000000D02*
X161025000Y-91650000D01*
X158575000Y-84650000D02*
X158300000Y-84375000D01*
X152075000Y-82900000D02*
X152050000Y-82900000D01*
D46*
X148225000Y-74250000D02*
X148875000Y-74900000D01*
X160245000Y-100175000D02*
X160245000Y-97425000D01*
X149062500Y-68812500D02*
X149375000Y-69125000D01*
X149375000Y-69125000D02*
X149375000Y-70550000D01*
D47*
X159450000Y-86475000D02*
X159375000Y-86550000D01*
D46*
X160245000Y-97425000D02*
X159975000Y-97155000D01*
D47*
X150800000Y-73025000D02*
X150800000Y-76100000D01*
X161025000Y-94625000D02*
X161050000Y-94650000D01*
D46*
X159975000Y-97155000D02*
X159975000Y-96875000D01*
X162125000Y-61875000D02*
X162125000Y-68275000D01*
X149400000Y-62600000D02*
X149400000Y-65050000D01*
D47*
X159375000Y-84700000D02*
X159325000Y-84650000D01*
%TO.N,/I2C_SCL*%
X161635000Y-96615000D02*
X161635000Y-97010000D01*
X162170000Y-97545000D02*
X162170000Y-99560000D01*
X156720000Y-94155000D02*
X156720000Y-91630000D01*
X156800000Y-91550000D02*
X156800000Y-91780000D01*
X156800000Y-84375000D02*
X156800000Y-91550000D01*
X161635000Y-97010000D02*
X162170000Y-97545000D01*
X156720000Y-91630000D02*
X156800000Y-91550000D01*
X162170000Y-99560000D02*
X162785000Y-100175000D01*
X156800000Y-91780000D02*
X161635000Y-96615000D01*
%TO.N,/I2C_SDA*%
X163945000Y-95345000D02*
X165500000Y-96900000D01*
X160225000Y-82450000D02*
X163945000Y-86170000D01*
X163945000Y-86170000D02*
X163945000Y-95225000D01*
X165500000Y-96900000D02*
X165500000Y-100000000D01*
X163945000Y-95225000D02*
X163945000Y-95345000D01*
X165500000Y-100000000D02*
X165325000Y-100175000D01*
%TO.N,+3.3VA*%
D46*
X142775000Y-81000000D02*
X142750000Y-81025000D01*
X143925000Y-81000000D02*
X142775000Y-81000000D01*
X144400000Y-70437500D02*
X144450000Y-70387500D01*
D47*
X147075000Y-81100000D02*
X147225000Y-81000000D01*
X147225000Y-81000000D02*
X148875000Y-80950000D01*
D46*
X146175000Y-81000000D02*
X146275000Y-81100000D01*
X144400000Y-71950000D02*
X144400000Y-70437500D01*
D47*
X146275000Y-81100000D02*
X147075000Y-81100000D01*
D46*
X143925000Y-81000000D02*
X146175000Y-81000000D01*
%TO.N,/CAN_TX*%
D47*
X151800000Y-73025000D02*
X151800000Y-74775000D01*
D46*
X163775000Y-60150000D02*
X164275000Y-60650000D01*
D47*
X164275000Y-60650000D02*
X165562500Y-60650000D01*
D46*
X163425000Y-60150000D02*
X163775000Y-60150000D01*
X140400000Y-48500000D02*
X151925000Y-60025000D01*
X151925000Y-60025000D02*
X154550000Y-60025000D01*
%TO.N,/OSC_IN*%
D47*
X141300000Y-75950000D02*
X144100000Y-75950000D01*
X145175000Y-77025000D02*
X147075000Y-77025000D01*
X147150000Y-76950000D02*
X148875000Y-76950000D01*
X147075000Y-77025000D02*
X147150000Y-76950000D01*
X144125000Y-75975000D02*
X145175000Y-77025000D01*
X144100000Y-75950000D02*
X144125000Y-75975000D01*
%TO.N,/OSC_OUT*%
X141325000Y-79850000D02*
X145650000Y-79850000D01*
X146625000Y-78175000D02*
X147350000Y-77450000D01*
X145650000Y-79850000D02*
X145825000Y-79675000D01*
X145825000Y-78175000D02*
X146625000Y-78175000D01*
X145825000Y-79675000D02*
X145825000Y-78175000D01*
X147350000Y-77450000D02*
X148875000Y-77450000D01*
%TO.N,Net-(U5-NRST)*%
X150775000Y-77950000D02*
X148875000Y-77950000D01*
X140762500Y-92262500D02*
X139775000Y-93250000D01*
%TO.N,Net-(U5-PC2)*%
X147075000Y-79625000D02*
X147275000Y-79425000D01*
X129237500Y-90612500D02*
X130775000Y-89075000D01*
X128825000Y-90612500D02*
X129237500Y-90612500D01*
X147075000Y-79800000D02*
X147075000Y-79625000D01*
X147275000Y-79425000D02*
X148850000Y-79425000D01*
X148850000Y-79425000D02*
X148875000Y-79450000D01*
%TO.N,/UART_TX*%
X180475000Y-50040000D02*
X180385000Y-49950000D01*
X160225000Y-77950000D02*
X162025000Y-77950000D01*
X180475000Y-61425000D02*
X180475000Y-50040000D01*
X162025000Y-77950000D02*
X162150000Y-78075000D01*
%TO.N,/UART_RX*%
X182825000Y-50050000D02*
X182925000Y-49950000D01*
X160225000Y-77450000D02*
X162750000Y-77450000D01*
X182825000Y-57325000D02*
X182825000Y-50050000D01*
%TO.N,/SWDIO*%
X159025000Y-73250000D02*
X159000000Y-73925000D01*
X157800000Y-74425000D02*
X157800000Y-75875000D01*
X156975000Y-64275000D02*
X159200000Y-64275000D01*
X159200000Y-64275000D02*
X159025000Y-73250000D01*
X157800000Y-75875000D02*
X157875000Y-75950000D01*
X157875000Y-75950000D02*
X160225000Y-75950000D01*
X159000000Y-74350000D02*
X157875000Y-74350000D01*
X156975000Y-49675000D02*
X156975000Y-64275000D01*
X157875000Y-74350000D02*
X157800000Y-74425000D01*
X159000000Y-73925000D02*
X159000000Y-74350000D01*
%TO.N,/SWCLK*%
X155875000Y-66000000D02*
X158100000Y-66000000D01*
X154435000Y-49675000D02*
X155875000Y-51115000D01*
X158100000Y-66000000D02*
X158125000Y-66025000D01*
X158350000Y-72975000D02*
X158300000Y-73025000D01*
X158350000Y-69925000D02*
X158350000Y-72975000D01*
X155875000Y-51115000D02*
X155875000Y-66000000D01*
X158125000Y-66025000D02*
X158125000Y-69925000D01*
X158125000Y-69925000D02*
X158350000Y-69925000D01*
%TO.N,/BOOTO*%
X152800000Y-70975000D02*
X153100000Y-70675000D01*
X152800000Y-73025000D02*
X152800000Y-70975000D01*
%TO.N,/CAN_RX*%
X165487500Y-62675000D02*
X165562500Y-62600000D01*
D46*
X152125000Y-69300000D02*
X152125000Y-71650000D01*
D47*
X163575000Y-62675000D02*
X165487500Y-62675000D01*
D46*
X143025000Y-48500000D02*
X146725000Y-52200000D01*
D47*
X152300000Y-71875000D02*
X152100000Y-71675000D01*
D46*
X152125000Y-71650000D02*
X152100000Y-71675000D01*
D47*
X152300000Y-73025000D02*
X152300000Y-71875000D01*
D46*
X142850000Y-48500000D02*
X143025000Y-48500000D01*
%TO.N,Net-(SW2-B)*%
D47*
X154625000Y-66200000D02*
X154625000Y-70550000D01*
X154625000Y-70550000D02*
X154750000Y-70675000D01*
X143375000Y-66200000D02*
X154625000Y-66200000D01*
X131155000Y-61475000D02*
X138650000Y-61475000D01*
X138650000Y-61475000D02*
X143375000Y-66200000D01*
%TO.N,/CAN_H*%
X169150000Y-61290000D02*
X169610000Y-61290000D01*
X169625000Y-53822500D02*
X171020000Y-52427500D01*
X172550000Y-62575000D02*
X172550000Y-61320000D01*
D46*
X197575000Y-50100000D02*
X192775000Y-54900000D01*
X192775000Y-54900000D02*
X190350000Y-54900000D01*
D47*
X169610000Y-61290000D02*
X169625000Y-61275000D01*
D46*
X175575000Y-52725000D02*
X171317500Y-52725000D01*
D47*
X167837500Y-61300000D02*
X167847500Y-61290000D01*
D46*
X171317500Y-52725000D02*
X171020000Y-52427500D01*
D47*
X169625000Y-61275000D02*
X169625000Y-53822500D01*
X172550000Y-61320000D02*
X169180000Y-61320000D01*
X167847500Y-61290000D02*
X169150000Y-61290000D01*
X169180000Y-61320000D02*
X169150000Y-61290000D01*
%TO.N,Net-(D4-A)*%
X128825000Y-88962500D02*
X128825000Y-86987500D01*
X128825000Y-86987500D02*
X128850000Y-86962500D01*
%TO.N,/CAN_L*%
X169575000Y-63700000D02*
X169575000Y-62540000D01*
X167837500Y-61950000D02*
X169375000Y-61950000D01*
X169575000Y-62150000D02*
X169475000Y-62050000D01*
X170280000Y-62530000D02*
X169585000Y-62530000D01*
D46*
X165025000Y-66575000D02*
X165025000Y-64875000D01*
D47*
X169585000Y-62530000D02*
X169575000Y-62540000D01*
D46*
X193325000Y-50000000D02*
X176750000Y-66575000D01*
D47*
X166450000Y-52937500D02*
X165940000Y-52427500D01*
X165050000Y-64850000D02*
X165050000Y-63900000D01*
X165050000Y-63900000D02*
X165250000Y-63700000D01*
X165250000Y-63700000D02*
X169575000Y-63700000D01*
X166450000Y-56025000D02*
X166450000Y-52937500D01*
X169375000Y-61950000D02*
X169475000Y-62050000D01*
D46*
X176750000Y-66575000D02*
X165025000Y-66575000D01*
D47*
X169575000Y-62540000D02*
X169575000Y-62150000D01*
D46*
X165025000Y-64875000D02*
X165050000Y-64850000D01*
%TO.N,Net-(D6-A)*%
D47*
X189137500Y-99062500D02*
X189137500Y-101075000D01*
X189150000Y-99050000D02*
X189137500Y-99062500D01*
%TO.N,/PWR_LED*%
D46*
X147637500Y-62487500D02*
X147750000Y-62600000D01*
X145825000Y-62487500D02*
X147637500Y-62487500D01*
%TO.N,Net-(C6-Pad2)*%
D47*
X149925000Y-100650000D02*
X149925000Y-100525000D01*
X149925000Y-100525000D02*
X147000000Y-97600000D01*
X139775000Y-97575000D02*
X139800000Y-97600000D01*
X139800000Y-97600000D02*
X147000000Y-97600000D01*
X139775000Y-94800000D02*
X139775000Y-97575000D01*
%TO.N,Net-(JP1-A)*%
X166700000Y-64850000D02*
X172150000Y-64850000D01*
X172550000Y-64450000D02*
X172550000Y-63875000D01*
X172150000Y-64850000D02*
X172550000Y-64450000D01*
%TD*%
%TA.AperFunction,Conductor*%
%TO.N,GND*%
G36*
X137137617Y-69301343D02*
G01*
X137475601Y-69313414D01*
X137536268Y-69331796D01*
X137666294Y-69411998D01*
X137666297Y-69411999D01*
X137666303Y-69412003D01*
X137827292Y-69465349D01*
X137926655Y-69475500D01*
X138523344Y-69475499D01*
X138523352Y-69475498D01*
X138523355Y-69475498D01*
X138577760Y-69469940D01*
X138622708Y-69465349D01*
X138783697Y-69412003D01*
X138831214Y-69382693D01*
X138898602Y-69364253D01*
X138900618Y-69364307D01*
X139085214Y-69370900D01*
X139151507Y-69392965D01*
X139195348Y-69447368D01*
X139204684Y-69489764D01*
X139499999Y-76724999D01*
X139500000Y-76725000D01*
X140541170Y-76734552D01*
X140605126Y-76753007D01*
X140741303Y-76837003D01*
X140902292Y-76890349D01*
X141001655Y-76900500D01*
X141598344Y-76900499D01*
X141598352Y-76900498D01*
X141598355Y-76900498D01*
X141665334Y-76893656D01*
X141697708Y-76890349D01*
X141858697Y-76837003D01*
X141972598Y-76766747D01*
X142038828Y-76748292D01*
X142108691Y-76748932D01*
X142175544Y-76769231D01*
X142220812Y-76822453D01*
X142231364Y-76866143D01*
X142260616Y-77400000D01*
X142317834Y-78444216D01*
X142301847Y-78512232D01*
X142251626Y-78560807D01*
X142194020Y-78575000D01*
X140500000Y-78575000D01*
X140514878Y-79051092D01*
X140517151Y-79123835D01*
X140499569Y-79191457D01*
X140498750Y-79192804D01*
X140438001Y-79291296D01*
X140437996Y-79291305D01*
X140384651Y-79452290D01*
X140374500Y-79551647D01*
X140374500Y-80148337D01*
X140374501Y-80148355D01*
X140384650Y-80247707D01*
X140384651Y-80247710D01*
X140437996Y-80408694D01*
X140438001Y-80408705D01*
X140527029Y-80553040D01*
X140527032Y-80553044D01*
X140528210Y-80554222D01*
X140528759Y-80555229D01*
X140531510Y-80558707D01*
X140530915Y-80559176D01*
X140561695Y-80615545D01*
X140564468Y-80638030D01*
X140599999Y-81775000D01*
X140629778Y-81775674D01*
X142650700Y-81821430D01*
X142671158Y-81825500D01*
X142828842Y-81825500D01*
X142829003Y-81825467D01*
X143249568Y-81834990D01*
X143311855Y-81853419D01*
X143366299Y-81887001D01*
X143366300Y-81887001D01*
X143366303Y-81887003D01*
X143527292Y-81940349D01*
X143626655Y-81950500D01*
X144223344Y-81950499D01*
X144223352Y-81950498D01*
X144223355Y-81950498D01*
X144290980Y-81943590D01*
X144322708Y-81940349D01*
X144483697Y-81887003D01*
X144490111Y-81883046D01*
X144557501Y-81864604D01*
X144557654Y-81864607D01*
X145520817Y-81886414D01*
X145583101Y-81904842D01*
X145716303Y-81987003D01*
X145877292Y-82040349D01*
X145976655Y-82050500D01*
X146573344Y-82050499D01*
X146573352Y-82050498D01*
X146573355Y-82050498D01*
X146627760Y-82044940D01*
X146672708Y-82040349D01*
X146833697Y-81987003D01*
X146833699Y-81987001D01*
X146833701Y-81987001D01*
X146860665Y-81970368D01*
X146913289Y-81937909D01*
X146980678Y-81919468D01*
X147109867Y-81922393D01*
X147176444Y-81943590D01*
X147220992Y-81997416D01*
X147230897Y-82040010D01*
X147292632Y-83243819D01*
X147292632Y-83243820D01*
X150157412Y-85375748D01*
X151134626Y-86102978D01*
X151222579Y-86168431D01*
X151264609Y-86224246D01*
X151269790Y-86293923D01*
X151266256Y-86306911D01*
X151234651Y-86402288D01*
X151224500Y-86501647D01*
X151224500Y-87098337D01*
X151224501Y-87098355D01*
X151234650Y-87197707D01*
X151234651Y-87197710D01*
X151287996Y-87358694D01*
X151287998Y-87358699D01*
X151364013Y-87481937D01*
X151382462Y-87545299D01*
X151384540Y-87693765D01*
X151365795Y-87761073D01*
X151313637Y-87807562D01*
X151251925Y-87819200D01*
X129741843Y-86319135D01*
X129676336Y-86294834D01*
X129662789Y-86283117D01*
X129620975Y-86241303D01*
X129555391Y-86175719D01*
X129555388Y-86175717D01*
X129555387Y-86175716D01*
X129412295Y-86087455D01*
X129412289Y-86087452D01*
X129412287Y-86087451D01*
X129252685Y-86034564D01*
X129252683Y-86034563D01*
X129154181Y-86024500D01*
X129154174Y-86024500D01*
X128545826Y-86024500D01*
X128545818Y-86024500D01*
X128447316Y-86034563D01*
X128447315Y-86034564D01*
X128376515Y-86058025D01*
X128287715Y-86087450D01*
X128287704Y-86087455D01*
X128138462Y-86179510D01*
X128137734Y-86178330D01*
X128080218Y-86201522D01*
X128059500Y-86201813D01*
X127791699Y-86183138D01*
X127726191Y-86158837D01*
X127684220Y-86102978D01*
X127676333Y-86058025D01*
X127722003Y-82050498D01*
X127773658Y-77517730D01*
X127794105Y-77450921D01*
X127847427Y-77405771D01*
X127892640Y-77395246D01*
X130138350Y-77304511D01*
X130206130Y-77321473D01*
X130253979Y-77372387D01*
X130266067Y-77410580D01*
X130461179Y-78753417D01*
X130451339Y-78822590D01*
X130426152Y-78858926D01*
X130397858Y-78887221D01*
X130288371Y-79051079D01*
X130288364Y-79051092D01*
X130212950Y-79233160D01*
X130212947Y-79233170D01*
X130174500Y-79426456D01*
X130174500Y-79426459D01*
X130174500Y-79623541D01*
X130174500Y-79623543D01*
X130174499Y-79623543D01*
X130212947Y-79816829D01*
X130212950Y-79816839D01*
X130288364Y-79998907D01*
X130288371Y-79998920D01*
X130397860Y-80162781D01*
X130397863Y-80162785D01*
X130537214Y-80302136D01*
X130537218Y-80302139D01*
X130701079Y-80411628D01*
X130701092Y-80411635D01*
X130883160Y-80487049D01*
X130883165Y-80487051D01*
X130883169Y-80487051D01*
X130883170Y-80487052D01*
X131076456Y-80525500D01*
X131424451Y-80525500D01*
X131469393Y-80533930D01*
X133195982Y-81205382D01*
X133199071Y-80220501D01*
X133217531Y-80155796D01*
X133262003Y-80083697D01*
X133315349Y-79922708D01*
X133320755Y-79869788D01*
X133329550Y-79834942D01*
X133337051Y-79816835D01*
X133375500Y-79623541D01*
X133375500Y-79426459D01*
X133375500Y-79426456D01*
X133337052Y-79233170D01*
X133337051Y-79233169D01*
X133337051Y-79233165D01*
X133329549Y-79215055D01*
X133320939Y-79181898D01*
X133320838Y-79181027D01*
X133315349Y-79127292D01*
X133314200Y-79123824D01*
X133313036Y-79113793D01*
X133317987Y-79084957D01*
X133320172Y-79055780D01*
X133323831Y-79050924D01*
X133324861Y-79044932D01*
X133344619Y-79023347D01*
X133362230Y-78999986D01*
X133367932Y-78997880D01*
X133372039Y-78993395D01*
X133400328Y-78985920D01*
X133427775Y-78975787D01*
X133436209Y-78975500D01*
X134168995Y-78975500D01*
X134260041Y-78957389D01*
X134304328Y-78948580D01*
X134431811Y-78895775D01*
X134546542Y-78819114D01*
X134644114Y-78721542D01*
X134644124Y-78721526D01*
X134645952Y-78719300D01*
X134647223Y-78718433D01*
X134648422Y-78717235D01*
X134648649Y-78717462D01*
X134703692Y-78679957D01*
X134742202Y-78673951D01*
X135076418Y-78675000D01*
X135350000Y-73850000D01*
X135349999Y-73849999D01*
X133303902Y-73564498D01*
X133240226Y-73535738D01*
X133202207Y-73477117D01*
X133197087Y-73445138D01*
X133188918Y-73151059D01*
X133195162Y-73108625D01*
X133215349Y-73047708D01*
X133225500Y-72948345D01*
X133225499Y-72351656D01*
X133215349Y-72252292D01*
X133164987Y-72100309D01*
X133158743Y-72064759D01*
X133151979Y-71821248D01*
X133169795Y-71753688D01*
X133210569Y-71712431D01*
X137067932Y-69319890D01*
X137135275Y-69301283D01*
X137137617Y-69301343D01*
G37*
%TD.AperFunction*%
%TD*%
%TA.AperFunction,Conductor*%
%TO.N,+3.3V*%
G36*
X130357127Y-62325500D02*
G01*
X131631254Y-62325499D01*
X131643704Y-62326126D01*
X131656071Y-62327374D01*
X131668404Y-62329249D01*
X136733558Y-63362896D01*
X140164366Y-64063020D01*
X140193688Y-64072949D01*
X140220888Y-64086143D01*
X140246836Y-64103024D01*
X141190299Y-64900804D01*
X141194185Y-64904232D01*
X141197995Y-64907737D01*
X141201724Y-64911314D01*
X142886016Y-66595606D01*
X142886045Y-66595637D01*
X142976264Y-66685856D01*
X142976267Y-66685858D01*
X143027490Y-66720084D01*
X143078714Y-66754312D01*
X143078715Y-66754312D01*
X143078716Y-66754313D01*
X143093379Y-66760386D01*
X143093380Y-66760387D01*
X143156558Y-66786556D01*
X143156589Y-66786567D01*
X143159175Y-66787639D01*
X143159203Y-66787661D01*
X143159207Y-66787652D01*
X143192548Y-66801463D01*
X143252971Y-66813481D01*
X143313393Y-66825500D01*
X143403232Y-66825500D01*
X143438164Y-66830521D01*
X143465482Y-66838543D01*
X143510611Y-66862833D01*
X143525000Y-66875000D01*
X146089539Y-67207440D01*
X146123536Y-67216911D01*
X146137841Y-67223205D01*
X146191276Y-67268222D01*
X146191278Y-67268224D01*
X146193062Y-67270917D01*
X146212978Y-67326156D01*
X146213541Y-67331398D01*
X146213794Y-67355267D01*
X146036821Y-69412569D01*
X146028822Y-69446945D01*
X146023150Y-69461508D01*
X145980500Y-69516816D01*
X145978184Y-69518499D01*
X145923124Y-69540899D01*
X145917269Y-69541750D01*
X145892749Y-69542859D01*
X144975351Y-69493328D01*
X144958982Y-69491346D01*
X144942895Y-69488302D01*
X144926946Y-69484170D01*
X144852690Y-69459565D01*
X144852687Y-69459564D01*
X144852679Y-69459562D01*
X144754190Y-69449500D01*
X144754181Y-69449500D01*
X144754174Y-69449500D01*
X144168583Y-69449500D01*
X144165260Y-69449455D01*
X144162054Y-69449369D01*
X144161903Y-69449365D01*
X144158572Y-69449230D01*
X139699438Y-69208477D01*
X139633557Y-69185206D01*
X139599481Y-69147931D01*
X139588949Y-69130180D01*
X139545114Y-69075784D01*
X139545109Y-69075778D01*
X139439807Y-68977738D01*
X139311147Y-68913335D01*
X139311132Y-68913329D01*
X139244906Y-68891287D01*
X139244897Y-68891280D01*
X139244852Y-68891269D01*
X139103254Y-68865721D01*
X138918744Y-68859131D01*
X138914125Y-68858987D01*
X138913050Y-68858958D01*
X138912137Y-68858934D01*
X138911417Y-68858917D01*
X138907948Y-68858838D01*
X138765177Y-68876678D01*
X138709362Y-68891951D01*
X138709351Y-68891955D01*
X138697794Y-68895118D01*
X138697792Y-68895118D01*
X138578020Y-68947160D01*
X138577254Y-68947483D01*
X138577022Y-68947509D01*
X138568210Y-68950876D01*
X138529501Y-68963704D01*
X138490494Y-68969999D01*
X137959504Y-68969999D01*
X137920501Y-68963705D01*
X137895148Y-68955304D01*
X137869053Y-68943136D01*
X137801646Y-68901558D01*
X137682858Y-68848018D01*
X137682839Y-68848011D01*
X137622187Y-68829634D01*
X137622181Y-68829633D01*
X137493642Y-68808235D01*
X137155650Y-68796164D01*
X137150607Y-68796010D01*
X137148122Y-68795946D01*
X137143380Y-68795848D01*
X137143367Y-68795848D01*
X137000647Y-68814040D01*
X136937094Y-68831599D01*
X136933965Y-68832357D01*
X136801486Y-68890312D01*
X136801481Y-68890315D01*
X136594779Y-69018521D01*
X136527433Y-69037129D01*
X136522735Y-69036965D01*
X135375000Y-68975000D01*
X133396307Y-70998155D01*
X133373017Y-71016829D01*
X132944122Y-71282853D01*
X132851023Y-71357102D01*
X132851022Y-71357103D01*
X132810257Y-71398352D01*
X132810245Y-71398365D01*
X132737119Y-71492302D01*
X132737118Y-71492304D01*
X132681004Y-71624790D01*
X132664199Y-71688519D01*
X132663573Y-71690618D01*
X132663187Y-71692356D01*
X132646674Y-71835278D01*
X132646673Y-71835281D01*
X132653437Y-72078784D01*
X132653439Y-72078811D01*
X132660862Y-72152194D01*
X132660864Y-72152207D01*
X132667107Y-72187756D01*
X132685147Y-72259320D01*
X132700431Y-72305443D01*
X132713705Y-72345503D01*
X132719999Y-72384504D01*
X132719999Y-72915882D01*
X132715679Y-72946930D01*
X132715945Y-72946993D01*
X132695044Y-73035049D01*
X132688803Y-73077468D01*
X132688802Y-73077479D01*
X132683613Y-73165087D01*
X132683613Y-73165113D01*
X132691781Y-73459166D01*
X132697943Y-73525049D01*
X132697943Y-73525052D01*
X132703064Y-73557037D01*
X132717778Y-73621546D01*
X132778087Y-73752166D01*
X132778091Y-73752172D01*
X132778094Y-73752178D01*
X132816113Y-73810799D01*
X132816114Y-73810800D01*
X132816115Y-73810801D01*
X132816773Y-73811614D01*
X132817779Y-73812705D01*
X132910788Y-73919145D01*
X132923129Y-73927003D01*
X132934077Y-73938881D01*
X132942687Y-73956300D01*
X132955476Y-73970933D01*
X132958811Y-73988918D01*
X132965039Y-74001516D01*
X132963569Y-74014570D01*
X132966631Y-74031079D01*
X132858810Y-75666368D01*
X132851500Y-75700896D01*
X132846119Y-75715572D01*
X132804576Y-75771725D01*
X132801408Y-75774125D01*
X132748898Y-75797252D01*
X132745002Y-75797966D01*
X132722637Y-75800000D01*
X127940313Y-75800000D01*
X127905372Y-75794975D01*
X127890373Y-75790570D01*
X127831625Y-75752826D01*
X127830171Y-75751149D01*
X127802859Y-75697024D01*
X127801320Y-75690152D01*
X127798332Y-75664588D01*
X127750960Y-71817962D01*
X127676831Y-65798764D01*
X127681424Y-65763773D01*
X127685644Y-65748717D01*
X127717360Y-65694511D01*
X127717361Y-65694510D01*
X127778684Y-65661025D01*
X127780471Y-65660649D01*
X127791093Y-65658504D01*
X127820868Y-65656163D01*
X129310559Y-65719107D01*
X129345247Y-65725598D01*
X129360047Y-65730632D01*
X129417179Y-65770854D01*
X129417179Y-65770855D01*
X129418685Y-65772749D01*
X129443597Y-65827573D01*
X129444802Y-65834149D01*
X129446798Y-65859451D01*
X129423925Y-66820126D01*
X129418071Y-66854934D01*
X129408311Y-66885463D01*
X129396317Y-66911852D01*
X129306523Y-67060390D01*
X129255911Y-67222811D01*
X129249500Y-67293377D01*
X129249500Y-67956620D01*
X129254747Y-68014361D01*
X129255913Y-68027192D01*
X129255913Y-68027194D01*
X129255914Y-68027196D01*
X129260642Y-68042371D01*
X129260645Y-68042382D01*
X129298529Y-68163957D01*
X129305799Y-68187287D01*
X129305802Y-68187296D01*
X129305801Y-68187296D01*
X129306519Y-68189601D01*
X129306521Y-68189604D01*
X129360233Y-68278455D01*
X129373949Y-68310730D01*
X129382690Y-68343592D01*
X129386822Y-68378418D01*
X129375000Y-68875000D01*
X134825000Y-68600000D01*
X135100000Y-64225000D01*
X135099999Y-64224999D01*
X135100000Y-64224998D01*
X131467669Y-63720237D01*
X131433762Y-63710455D01*
X131417476Y-63703111D01*
X131366763Y-63661036D01*
X131358654Y-63649415D01*
X131349933Y-63634895D01*
X131348794Y-63632666D01*
X131262547Y-63517455D01*
X131262544Y-63517452D01*
X131262542Y-63517450D01*
X131204616Y-63474086D01*
X131147335Y-63431206D01*
X131147332Y-63431204D01*
X131147330Y-63431203D01*
X131147328Y-63431202D01*
X131012482Y-63380908D01*
X131012483Y-63380908D01*
X130952883Y-63374501D01*
X130952881Y-63374500D01*
X130952873Y-63374500D01*
X130952864Y-63374500D01*
X130951841Y-63374500D01*
X130056257Y-63374500D01*
X130034237Y-63372528D01*
X130018418Y-63369673D01*
X129955942Y-63338393D01*
X129920297Y-63278304D01*
X129919143Y-63273780D01*
X129921466Y-63204494D01*
X130177863Y-62422504D01*
X130193518Y-62390878D01*
X130202373Y-62378002D01*
X130256572Y-62333921D01*
X130263611Y-62330969D01*
X130324829Y-62322027D01*
X130357127Y-62325500D01*
G37*
%TD.AperFunction*%
%TD*%
%TA.AperFunction,Conductor*%
%TO.N,GND*%
G36*
X175190060Y-91402050D02*
G01*
X182273238Y-91764670D01*
X182339181Y-91787757D01*
X182382176Y-91842831D01*
X182388571Y-91912407D01*
X182374446Y-91950225D01*
X176585638Y-102037896D01*
X176535198Y-102086245D01*
X176478398Y-102100179D01*
X166705440Y-102124610D01*
X166681169Y-102124610D01*
X166614130Y-102104925D01*
X166568375Y-102052121D01*
X166557364Y-101993673D01*
X166640915Y-100503665D01*
X166642245Y-100491245D01*
X166642246Y-100491243D01*
X166675500Y-100281287D01*
X166675500Y-100068713D01*
X166670045Y-100034277D01*
X166668713Y-100007946D01*
X166846473Y-96837895D01*
X166869881Y-96772063D01*
X166902875Y-96740758D01*
X175116324Y-91421807D01*
X175183294Y-91401890D01*
X175190060Y-91402050D01*
G37*
%TD.AperFunction*%
%TD*%
%TA.AperFunction,Conductor*%
%TO.N,+5V*%
G36*
X213491679Y-86495444D02*
G01*
X213538116Y-86547649D01*
X213550000Y-86600621D01*
X213550000Y-92723580D01*
X213530315Y-92790619D01*
X213477511Y-92836374D01*
X213423604Y-92847557D01*
X208374999Y-92749999D01*
X199132440Y-99899904D01*
X199067370Y-99925354D01*
X199058992Y-99925801D01*
X190264515Y-100097760D01*
X190197104Y-100079390D01*
X190150325Y-100027491D01*
X190138696Y-99986021D01*
X190132679Y-99925354D01*
X190051105Y-99102808D01*
X190050500Y-99090571D01*
X190050500Y-98718386D01*
X190044086Y-98647807D01*
X190044086Y-98647804D01*
X189993478Y-98485394D01*
X189993475Y-98485389D01*
X189991951Y-98480498D01*
X189986944Y-98455857D01*
X189850000Y-97075000D01*
X189849999Y-97074999D01*
X184367098Y-95796475D01*
X184306280Y-95762081D01*
X184273712Y-95700266D01*
X184271350Y-95680511D01*
X184054677Y-90071103D01*
X184071760Y-90003358D01*
X184122758Y-89955599D01*
X184170965Y-89942555D01*
X190451941Y-89556034D01*
X190520062Y-89571564D01*
X190568973Y-89621458D01*
X190578300Y-89644080D01*
X191474999Y-92625000D01*
X199050000Y-92625000D01*
X199050001Y-92625000D01*
X199050002Y-92624999D01*
X211600057Y-86512148D01*
X211652738Y-86499639D01*
X213424391Y-86476631D01*
X213491679Y-86495444D01*
G37*
%TD.AperFunction*%
%TD*%
%TA.AperFunction,Conductor*%
%TO.N,+12V*%
G36*
X195344752Y-69694835D02*
G01*
X195390650Y-69747514D01*
X195401980Y-69797324D01*
X195497981Y-75725332D01*
X195479384Y-75792682D01*
X195427328Y-75839285D01*
X195375323Y-75851333D01*
X191213460Y-75895844D01*
X191146214Y-75876877D01*
X191124452Y-75859531D01*
X191087785Y-75822863D01*
X191087781Y-75822860D01*
X190923920Y-75713371D01*
X190923907Y-75713364D01*
X190741839Y-75637950D01*
X190741829Y-75637947D01*
X190548543Y-75599500D01*
X190548541Y-75599500D01*
X186354822Y-75599500D01*
X186287783Y-75579815D01*
X186242028Y-75527011D01*
X186232084Y-75457853D01*
X186237116Y-75436496D01*
X186239999Y-75427797D01*
X186250500Y-75325009D01*
X186250499Y-71124992D01*
X186239999Y-71022203D01*
X186198212Y-70896101D01*
X186191925Y-70856089D01*
X186200000Y-69875000D01*
X186200000Y-69823663D01*
X186219685Y-69756624D01*
X186272489Y-69710869D01*
X186323658Y-69699663D01*
X195277660Y-69675332D01*
X195344752Y-69694835D01*
G37*
%TD.AperFunction*%
%TD*%
M02*
