M48
; DRILL file KiCad 10.0.0 date 2026-06-24T15:33:32
; FORMAT={3:3/ absolute / metric / suppress trailing zeros}
; #@! TF.CreationDate,2026-06-24T15:33:32-04:00
; #@! TF.GenerationSoftware,Kicad,Pcbnew,10.0.0
; #@! TF.FileFunction,Plated,1,4,PTH
FMAT,2
METRIC,LZ
; #@! TA.AperFunction,Plated,PTH,ViaDrill
T1C0.300
; #@! TA.AperFunction,Plated,PTH,ComponentDrill
T2C0.500
; #@! TA.AperFunction,Plated,PTH,ComponentDrill
T3C1.000
; #@! TA.AperFunction,Plated,PTH,ComponentDrill
T4C1.300
; #@! TA.AperFunction,Plated,PTH,ComponentDrill
T5C1.600
%
G90
G05
T1
X1283Y-083575
X128325Y-08265
X12905Y-0841
X130675Y-0859
X130775Y-089075
X131175Y-079525
X13205Y-086025
X1326Y-058375
X13315Y-077163
X134Y-088275
X13415Y-066225
X13495Y-071175
X13495Y-0808
X135275Y-0863
X135625Y-077125
X135675Y-078125
X1357Y-074025
X135725Y-071625
X135825Y-070725
X13625Y-08635
X1368Y-07025
X1369Y-0713
X1372Y-086425
X138125Y-071575
X138125Y-10055
X138175Y-086475
X13818Y-10136
X138275Y-07975
X138425Y-078575
X138775Y-080975
X138825Y-07205
X138825Y-073275
X13885Y-074225
X138875Y-075525
X1391Y-076775
X139175Y-086475
X1394Y-07845
X13985Y-07755
X140763Y-092263
X142Y-07115
X142Y-086725
X14275Y-081025
X14285Y-0868
X143975Y-08695
X144075Y-078225
X1444Y-07195
X144425Y-064725
X1456Y-07299
X14562Y-07211
X145825Y-075975
X146725Y-0522
X14704Y-08714
X147075Y-0798
X14761Y-08392
X14812Y-08723
X14845Y-10075
X14916Y-08665
X149375Y-069125
X14945Y-0651
X14969Y-08559
X150125Y-08045
X150775Y-07795
X1509Y-0762
X15095Y-069475
X151225Y-082825
X1518Y-074775
X151975Y-051825
X1521Y-071675
X152125Y-0693
X153225Y-08175
X1538Y-0912
X15455Y-060025
X157275Y-082875
X158375Y-0826
X158775Y-07505
X15939Y-06152
X15944Y-06288
X159575Y-096
X160625Y-06305
X16105Y-09465
X16215Y-078075
X162225Y-075275
X16275Y-07745
X163425Y-06015
X1635Y-061125
X163525Y-073125
X163575Y-062675
X164025Y-07515
X164275Y-06065
X16645Y-056025
X1672Y-0971
X1673Y-097875
X167775Y-096675
X16845Y-098
X168525Y-096275
X169225Y-0958
X1697Y-09795
X16995Y-0987
X169975Y-099725
X170125Y-1006
X170125Y-101475
X170175Y-0954
X17028Y-06253
X17085Y-0948
X171Y-10145
X1719Y-1015
X173Y-10145
X173375Y-092975
X174175Y-092525
X175075Y-092025
X175275Y-092675
X175275Y-0934
X17545Y-094125
X17555Y-0948
X175575Y-052725
X176375Y-0952
X176625Y-10085
X1771Y-078775
X178375Y-095275
X178425Y-0978
X178925Y-0968
X179025Y-100875
X1793Y-095225
X1795Y-09595
X18013Y-07052
X180475Y-061425
X181725Y-0764
X182825Y-057325
X183525Y-06975
X18555Y-052325
X18665Y-090175
X19035Y-0549
X1918Y-101125
X1999Y-06794
X20015Y-055375
X2014Y-07194
X20188Y-07546
X20275Y-063225
X202775Y-05995
X20302Y-07247
X20305Y-07456
X203125Y-07355
X203675Y-0641
X20371Y-06864
X204475Y-05845
X20581Y-06215
X2059Y-0606
X207525Y-05875
X207675Y-060075
X207775Y-06175
X208425Y-063775
T3
X15201Y-0496
X15455Y-0496
X15709Y-0496
X15963Y-0496
X160245Y-100175
X162785Y-100175
X165325Y-100175
X167865Y-100175
X177845Y-04995
X180385Y-04995
X182925Y-04995
X185465Y-04995
X193325Y-05
X197575Y-0501
T4
X16594Y-052428
X17102Y-052428
T5
X17335Y-074085
X17335Y-089325
T2
G00X20665Y-057155
M15
G01X20725Y-057155
M16
G05
G00X20665Y-065415
M15
G01X20725Y-065415
M16
G05
G00X2126Y-056795
M15
G01X2132Y-056795
M16
G05
G00X2126Y-065775
M15
G01X2132Y-065775
M16
G05
M30
