%TF.GenerationSoftware,KiCad,Pcbnew,10.0.0*%
%TF.CreationDate,2026-06-24T15:33:42-04:00*%
%TF.ProjectId,CanBus,43616e42-7573-42e6-9b69-6361645f7063,rev?*%
%TF.SameCoordinates,Original*%
%TF.FileFunction,Copper,L3,Inr*%
%TF.FilePolarity,Positive*%
%FSLAX46Y46*%
G04 Gerber Fmt 4.6, Leading zero omitted, Abs format (unit mm)*
G04 Created by KiCad (PCBNEW 10.0.0) date 2026-06-24 15:33:42*
%MOMM*%
%LPD*%
G01*
G04 APERTURE LIST*
G04 Aperture macros list*
%AMRoundRect*
0 Rectangle with rounded corners*
0 $1 Rounding radius*
0 $2 $3 $4 $5 $6 $7 $8 $9 X,Y pos of 4 corners*
0 Add a 4 corners polygon primitive as box body*
4,1,4,$2,$3,$4,$5,$6,$7,$8,$9,$2,$3,0*
0 Add four circle primitives for the rounded corners*
1,1,$1+$1,$2,$3*
1,1,$1+$1,$4,$5*
1,1,$1+$1,$6,$7*
1,1,$1+$1,$8,$9*
0 Add four rect primitives between the rounded corners*
20,1,$1+$1,$2,$3,$4,$5,0*
20,1,$1+$1,$4,$5,$6,$7,0*
20,1,$1+$1,$6,$7,$8,$9,0*
20,1,$1+$1,$8,$9,$2,$3,0*%
G04 Aperture macros list end*
%TA.AperFunction,ComponentPad*%
%ADD10O,1.400000X0.800000*%
%TD*%
%TA.AperFunction,ComponentPad*%
%ADD11R,1.700000X1.700000*%
%TD*%
%TA.AperFunction,ComponentPad*%
%ADD12C,1.700000*%
%TD*%
%TA.AperFunction,ComponentPad*%
%ADD13RoundRect,0.250000X1.350000X-1.350000X1.350000X1.350000X-1.350000X1.350000X-1.350000X-1.350000X0*%
%TD*%
%TA.AperFunction,ComponentPad*%
%ADD14C,3.200000*%
%TD*%
%TA.AperFunction,ComponentPad*%
%ADD15C,2.000000*%
%TD*%
%TA.AperFunction,ComponentPad*%
%ADD16RoundRect,0.250000X1.050000X1.050000X-1.050000X1.050000X-1.050000X-1.050000X1.050000X-1.050000X0*%
%TD*%
%TA.AperFunction,ComponentPad*%
%ADD17C,2.600000*%
%TD*%
%TA.AperFunction,ViaPad*%
%ADD18C,0.600000*%
%TD*%
G04 APERTURE END LIST*
D10*
%TO.N,unconnected-(J5-SHIELD-PadSH)_2*%
%TO.C,J5*%
X212900000Y-65775000D03*
%TO.N,unconnected-(J5-SHIELD-PadSH)_3*%
X206950000Y-65415000D03*
%TO.N,unconnected-(J5-SHIELD-PadSH)*%
X206950000Y-57155000D03*
%TO.N,unconnected-(J5-SHIELD-PadSH)_1*%
X212900000Y-56795000D03*
%TD*%
D11*
%TO.N,+3.3V*%
%TO.C,J2*%
X160245000Y-100175000D03*
D12*
%TO.N,/I2C_SCL*%
X162785000Y-100175000D03*
%TO.N,/I2C_SDA*%
X165325000Y-100175000D03*
%TO.N,GND*%
X167865000Y-100175000D03*
%TD*%
D13*
%TO.N,Net-(D1-K)*%
%TO.C,D1*%
X173350000Y-89325000D03*
D14*
%TO.N,GND*%
X173350000Y-74085000D03*
%TD*%
D11*
%TO.N,+3.3V*%
%TO.C,J3*%
X177845000Y-49950000D03*
D12*
%TO.N,/UART_TX*%
X180385000Y-49950000D03*
%TO.N,/UART_RX*%
X182925000Y-49950000D03*
%TO.N,GND*%
X185465000Y-49950000D03*
%TD*%
D15*
%TO.N,/CAN_H*%
%TO.C,TP5*%
X197575000Y-50100000D03*
%TD*%
%TO.N,/CAN_L*%
%TO.C,TP22*%
X193325000Y-50000000D03*
%TD*%
D16*
%TO.N,/CAN_H*%
%TO.C,J4*%
X171020000Y-52427500D03*
D17*
%TO.N,/CAN_L*%
X165940000Y-52427500D03*
%TD*%
D11*
%TO.N,+3.3V*%
%TO.C,J1*%
X159630000Y-49600000D03*
D12*
%TO.N,/SWDIO*%
X157090000Y-49600000D03*
%TO.N,/SWCLK*%
X154550000Y-49600000D03*
%TO.N,GND*%
X152010000Y-49600000D03*
%TD*%
D18*
%TO.N,+5V*%
X179025000Y-100875000D03*
X134000000Y-88275000D03*
X153800000Y-91200000D03*
X186650000Y-90175000D03*
X131175000Y-79525000D03*
X181725000Y-76400000D03*
%TO.N,GND*%
X134950000Y-80800000D03*
X177100000Y-78775000D03*
X201400000Y-71940000D03*
X145825000Y-75975000D03*
X128325000Y-82650000D03*
X175450000Y-94125000D03*
X176625000Y-100850000D03*
X149690000Y-85590000D03*
X142850000Y-86800000D03*
X171000000Y-101450000D03*
X132600000Y-58375000D03*
X204475000Y-58450000D03*
X144075000Y-78225000D03*
X145600000Y-72990000D03*
X147610000Y-83920000D03*
X167775000Y-96675000D03*
X149160000Y-86650000D03*
X139400000Y-78450000D03*
X203050000Y-74560000D03*
X174175000Y-92525000D03*
X136900000Y-71300000D03*
X175275000Y-92675000D03*
X173375000Y-92975000D03*
X138875000Y-75525000D03*
X169225000Y-95800000D03*
X138775000Y-80975000D03*
X139100000Y-76775000D03*
X203020000Y-72470000D03*
X200150000Y-55375000D03*
X171900000Y-101500000D03*
X135275000Y-86300000D03*
X138425000Y-78575000D03*
X138125000Y-71575000D03*
X151975000Y-51825000D03*
X147040000Y-87140000D03*
X207525000Y-58750000D03*
X139850000Y-77550000D03*
X134150000Y-66225000D03*
X135725000Y-71625000D03*
X185550000Y-52325000D03*
X130675000Y-85900000D03*
X145620000Y-72110000D03*
X148120000Y-87230000D03*
X143975000Y-86950000D03*
X170125000Y-100600000D03*
X201880000Y-75460000D03*
X167300000Y-97875000D03*
X138825000Y-72050000D03*
X178925000Y-96800000D03*
X139175000Y-86475000D03*
X142000000Y-71150000D03*
X133150000Y-77162500D03*
X167200000Y-97100000D03*
X170850000Y-94800000D03*
X136250000Y-86350000D03*
X134950000Y-71175000D03*
X135825000Y-70725000D03*
X135675000Y-78125000D03*
X160625000Y-63050000D03*
X136800000Y-70250000D03*
X150125000Y-80450000D03*
X163525000Y-73125000D03*
X148450000Y-100750000D03*
X179500000Y-95950000D03*
X203125000Y-73550000D03*
X129050000Y-84100000D03*
X157275000Y-82875000D03*
X168525000Y-96275000D03*
X168450000Y-98000000D03*
X132050000Y-86025000D03*
X170175000Y-95400000D03*
X135700000Y-74025000D03*
X163500000Y-61125000D03*
X151225000Y-82825000D03*
X138825000Y-73275000D03*
X176375000Y-95200000D03*
X144425000Y-64725000D03*
X138850000Y-74225000D03*
X173000000Y-101450000D03*
X138175000Y-86475000D03*
X175550000Y-94800000D03*
X178375000Y-95275000D03*
X128300000Y-83575000D03*
X199900000Y-67940000D03*
X159440000Y-62880000D03*
X169700000Y-97950000D03*
X135625000Y-77125000D03*
X203675000Y-64100000D03*
X180130000Y-70520000D03*
X138180000Y-101360000D03*
X191800000Y-101125000D03*
X175275000Y-93400000D03*
X169950000Y-98700000D03*
X138125000Y-100550000D03*
X183525000Y-69750000D03*
X170125000Y-101475000D03*
X142000000Y-86725000D03*
X179300000Y-95225000D03*
X178425000Y-97800000D03*
X138275000Y-79750000D03*
X150950000Y-69475000D03*
X175075000Y-92025000D03*
X169975000Y-99725000D03*
X137200000Y-86425000D03*
X159390000Y-61520000D03*
%TO.N,VBUS*%
X208425000Y-63775000D03*
X207675000Y-60075000D03*
X202775000Y-59950000D03*
X202750000Y-63225000D03*
%TO.N,Net-(J5-CC1)*%
X205810000Y-62150000D03*
X203710000Y-68640000D03*
%TO.N,/D+*%
X162225000Y-75275000D03*
X164025000Y-75150000D03*
%TO.N,/D-*%
X207775000Y-61750000D03*
X205900000Y-60600000D03*
%TO.N,+3.3V*%
X158375000Y-82600000D03*
X150900000Y-76200000D03*
X149375000Y-69125000D03*
X149450000Y-65100000D03*
X161050000Y-94650000D03*
X158775000Y-75050000D03*
X153225000Y-81750000D03*
X159575000Y-96000000D03*
%TO.N,+3.3VA*%
X144400000Y-71950000D03*
X142750000Y-81025000D03*
%TO.N,/CAN_TX*%
X163425000Y-60150000D03*
X164275000Y-60650000D03*
X154550000Y-60025000D03*
X151800000Y-74775000D03*
%TO.N,Net-(U5-NRST)*%
X150775000Y-77950000D03*
X140762500Y-92262500D03*
%TO.N,Net-(U5-PC2)*%
X130775000Y-89075000D03*
X147075000Y-79800000D03*
%TO.N,/UART_TX*%
X162150000Y-78075000D03*
X180475000Y-61425000D03*
%TO.N,/UART_RX*%
X182825000Y-57325000D03*
X162750000Y-77450000D03*
%TO.N,/CAN_RX*%
X152100000Y-71675000D03*
X163575000Y-62675000D03*
X146725000Y-52200000D03*
X152125000Y-69300000D03*
%TO.N,/CAN_H*%
X175575000Y-52725000D03*
X190350000Y-54900000D03*
%TO.N,/CAN_L*%
X170280000Y-62530000D03*
X166450000Y-56025000D03*
%TD*%
%TA.AperFunction,Conductor*%
%TO.N,GND*%
G36*
X209402734Y-47125370D02*
G01*
X209811151Y-47143315D01*
X209821980Y-47144268D01*
X210224594Y-47197615D01*
X210235304Y-47199516D01*
X210631658Y-47287963D01*
X210642153Y-47290794D01*
X211029240Y-47413670D01*
X211039438Y-47417407D01*
X211414257Y-47573761D01*
X211424094Y-47578381D01*
X211783755Y-47767008D01*
X211793164Y-47772483D01*
X212134866Y-47991910D01*
X212143760Y-47998189D01*
X212464909Y-48246748D01*
X212473217Y-48253782D01*
X212623122Y-48392452D01*
X212757323Y-48516596D01*
X212771337Y-48529559D01*
X212778993Y-48537292D01*
X213051764Y-48838143D01*
X213058714Y-48846519D01*
X213067166Y-48857669D01*
X213304046Y-49170134D01*
X213310236Y-49179089D01*
X213526248Y-49522987D01*
X213531628Y-49532451D01*
X213716636Y-49893956D01*
X213721166Y-49903856D01*
X213873759Y-50280208D01*
X213877402Y-50290466D01*
X213996394Y-50678738D01*
X213999124Y-50689277D01*
X214083603Y-51086494D01*
X214085398Y-51097231D01*
X214134711Y-51500320D01*
X214135558Y-51511174D01*
X214149420Y-51919774D01*
X214149491Y-51923958D01*
X214149491Y-51924681D01*
X214149071Y-51966663D01*
X214149498Y-51967873D01*
X214149500Y-51979451D01*
X214149498Y-51979455D01*
X214149500Y-51979471D01*
X214149500Y-56186396D01*
X214129815Y-56253435D01*
X214077011Y-56299190D01*
X214007853Y-56309134D01*
X213944297Y-56280109D01*
X213922398Y-56255288D01*
X213899464Y-56220965D01*
X213899463Y-56220964D01*
X213899461Y-56220961D01*
X213774038Y-56095538D01*
X213774034Y-56095535D01*
X213626553Y-55996990D01*
X213626540Y-55996983D01*
X213462667Y-55929106D01*
X213462658Y-55929103D01*
X213288694Y-55894500D01*
X213288691Y-55894500D01*
X212511309Y-55894500D01*
X212511306Y-55894500D01*
X212337341Y-55929103D01*
X212337332Y-55929106D01*
X212173459Y-55996983D01*
X212173446Y-55996990D01*
X212025965Y-56095535D01*
X212025961Y-56095538D01*
X211900538Y-56220961D01*
X211900535Y-56220965D01*
X211801990Y-56368446D01*
X211801983Y-56368459D01*
X211734106Y-56532332D01*
X211734103Y-56532341D01*
X211699500Y-56706304D01*
X211699500Y-56883695D01*
X211734103Y-57057658D01*
X211734106Y-57057667D01*
X211801983Y-57221540D01*
X211801990Y-57221553D01*
X211900535Y-57369034D01*
X211900538Y-57369038D01*
X212025961Y-57494461D01*
X212025965Y-57494464D01*
X212173446Y-57593009D01*
X212173459Y-57593016D01*
X212296363Y-57643923D01*
X212337334Y-57660894D01*
X212337336Y-57660894D01*
X212337341Y-57660896D01*
X212511304Y-57695499D01*
X212511307Y-57695500D01*
X212511309Y-57695500D01*
X213288693Y-57695500D01*
X213288694Y-57695499D01*
X213346682Y-57683964D01*
X213462658Y-57660896D01*
X213462661Y-57660894D01*
X213462666Y-57660894D01*
X213626547Y-57593013D01*
X213774035Y-57494464D01*
X213899464Y-57369035D01*
X213907627Y-57356818D01*
X213922398Y-57334713D01*
X213976010Y-57289907D01*
X214045335Y-57281200D01*
X214108362Y-57311354D01*
X214145082Y-57370797D01*
X214149500Y-57403603D01*
X214149500Y-65166396D01*
X214129815Y-65233435D01*
X214077011Y-65279190D01*
X214007853Y-65289134D01*
X213944297Y-65260109D01*
X213922398Y-65235288D01*
X213899461Y-65200961D01*
X213774038Y-65075538D01*
X213774034Y-65075535D01*
X213626553Y-64976990D01*
X213626540Y-64976983D01*
X213462667Y-64909106D01*
X213462658Y-64909103D01*
X213288694Y-64874500D01*
X213288691Y-64874500D01*
X212511309Y-64874500D01*
X212511306Y-64874500D01*
X212337341Y-64909103D01*
X212337332Y-64909106D01*
X212173459Y-64976983D01*
X212173446Y-64976990D01*
X212025965Y-65075535D01*
X212025961Y-65075538D01*
X211900538Y-65200961D01*
X211900535Y-65200965D01*
X211801990Y-65348446D01*
X211801983Y-65348459D01*
X211734106Y-65512332D01*
X211734103Y-65512341D01*
X211699500Y-65686304D01*
X211699500Y-65863695D01*
X211734103Y-66037658D01*
X211734106Y-66037667D01*
X211801983Y-66201540D01*
X211801990Y-66201553D01*
X211900535Y-66349034D01*
X211900538Y-66349038D01*
X212025961Y-66474461D01*
X212025965Y-66474464D01*
X212173446Y-66573009D01*
X212173459Y-66573016D01*
X212296363Y-66623923D01*
X212337334Y-66640894D01*
X212337336Y-66640894D01*
X212337341Y-66640896D01*
X212511304Y-66675499D01*
X212511307Y-66675500D01*
X212511309Y-66675500D01*
X213288693Y-66675500D01*
X213288694Y-66675499D01*
X213346682Y-66663964D01*
X213462658Y-66640896D01*
X213462661Y-66640894D01*
X213462666Y-66640894D01*
X213626547Y-66573013D01*
X213774035Y-66474464D01*
X213899464Y-66349035D01*
X213921872Y-66315500D01*
X213922398Y-66314713D01*
X213976010Y-66269907D01*
X214045335Y-66261200D01*
X214108362Y-66291354D01*
X214145082Y-66350797D01*
X214149500Y-66383603D01*
X214149500Y-97419420D01*
X214149324Y-97426033D01*
X214127841Y-97828265D01*
X214126803Y-97838963D01*
X214070825Y-98236007D01*
X214068864Y-98246576D01*
X213978713Y-98637267D01*
X213975845Y-98647626D01*
X213852194Y-99029057D01*
X213848439Y-99039129D01*
X213692219Y-99408417D01*
X213687606Y-99418125D01*
X213500000Y-99772485D01*
X213494564Y-99781758D01*
X213276965Y-100118552D01*
X213270746Y-100127319D01*
X213024803Y-100443996D01*
X213017848Y-100452191D01*
X212745401Y-100746383D01*
X212737763Y-100753946D01*
X212440858Y-101023441D01*
X212432603Y-101030305D01*
X212202819Y-101205109D01*
X212113474Y-101273076D01*
X212104645Y-101279206D01*
X211765706Y-101493417D01*
X211756380Y-101498761D01*
X211400137Y-101682829D01*
X211390382Y-101687344D01*
X211019566Y-101839856D01*
X211009457Y-101843510D01*
X210626812Y-101963340D01*
X210616425Y-101966105D01*
X210224845Y-102052346D01*
X210214258Y-102054201D01*
X209816662Y-102106208D01*
X209805953Y-102107138D01*
X209402700Y-102124631D01*
X209397326Y-102124748D01*
X132444170Y-102124500D01*
X132402706Y-102124500D01*
X132397297Y-102124382D01*
X131991460Y-102106663D01*
X131980685Y-102105720D01*
X131780656Y-102079385D01*
X131580629Y-102053051D01*
X131569977Y-102051173D01*
X131315393Y-101994733D01*
X131176022Y-101963836D01*
X131165579Y-101961038D01*
X130780733Y-101839696D01*
X130770570Y-101835997D01*
X130397773Y-101681579D01*
X130387969Y-101677007D01*
X130030057Y-101490690D01*
X130020689Y-101485282D01*
X129680361Y-101268469D01*
X129671500Y-101262264D01*
X129351372Y-101016621D01*
X129343085Y-101009667D01*
X129045587Y-100737061D01*
X129037938Y-100729412D01*
X128765332Y-100431914D01*
X128758378Y-100423627D01*
X128512735Y-100103499D01*
X128506530Y-100094638D01*
X128289717Y-99754310D01*
X128284309Y-99744942D01*
X128174914Y-99534795D01*
X128097989Y-99387024D01*
X128093420Y-99377226D01*
X128058083Y-99291915D01*
X128051961Y-99277135D01*
X158894500Y-99277135D01*
X158894500Y-101072870D01*
X158894501Y-101072876D01*
X158900908Y-101132483D01*
X158951202Y-101267328D01*
X158951206Y-101267335D01*
X159037452Y-101382544D01*
X159037455Y-101382547D01*
X159152664Y-101468793D01*
X159152671Y-101468797D01*
X159287517Y-101519091D01*
X159287516Y-101519091D01*
X159294444Y-101519835D01*
X159347127Y-101525500D01*
X161142872Y-101525499D01*
X161202483Y-101519091D01*
X161337331Y-101468796D01*
X161452546Y-101382546D01*
X161538796Y-101267331D01*
X161587810Y-101135916D01*
X161629681Y-101079984D01*
X161695145Y-101055566D01*
X161763418Y-101070417D01*
X161791673Y-101091569D01*
X161905213Y-101205109D01*
X162077179Y-101330048D01*
X162077181Y-101330049D01*
X162077184Y-101330051D01*
X162266588Y-101426557D01*
X162468757Y-101492246D01*
X162678713Y-101525500D01*
X162678714Y-101525500D01*
X162891286Y-101525500D01*
X162891287Y-101525500D01*
X163101243Y-101492246D01*
X163303412Y-101426557D01*
X163492816Y-101330051D01*
X163562799Y-101279206D01*
X163664786Y-101205109D01*
X163664788Y-101205106D01*
X163664792Y-101205104D01*
X163815104Y-101054792D01*
X163815106Y-101054788D01*
X163815109Y-101054786D01*
X163940048Y-100882820D01*
X163940047Y-100882820D01*
X163940051Y-100882816D01*
X163944514Y-100874054D01*
X163992488Y-100823259D01*
X164060308Y-100806463D01*
X164126444Y-100828999D01*
X164165486Y-100874056D01*
X164169951Y-100882820D01*
X164294890Y-101054786D01*
X164445213Y-101205109D01*
X164617179Y-101330048D01*
X164617181Y-101330049D01*
X164617184Y-101330051D01*
X164806588Y-101426557D01*
X165008757Y-101492246D01*
X165218713Y-101525500D01*
X165218714Y-101525500D01*
X165431286Y-101525500D01*
X165431287Y-101525500D01*
X165641243Y-101492246D01*
X165843412Y-101426557D01*
X166032816Y-101330051D01*
X166102799Y-101279206D01*
X166204786Y-101205109D01*
X166204788Y-101205106D01*
X166204792Y-101205104D01*
X166355104Y-101054792D01*
X166355106Y-101054788D01*
X166355109Y-101054786D01*
X166480048Y-100882820D01*
X166480047Y-100882820D01*
X166480051Y-100882816D01*
X166524208Y-100796153D01*
X178224500Y-100796153D01*
X178224500Y-100953846D01*
X178255261Y-101108489D01*
X178255264Y-101108501D01*
X178315602Y-101254172D01*
X178315609Y-101254185D01*
X178403210Y-101385288D01*
X178403213Y-101385292D01*
X178514707Y-101496786D01*
X178514711Y-101496789D01*
X178645814Y-101584390D01*
X178645827Y-101584397D01*
X178791498Y-101644735D01*
X178791503Y-101644737D01*
X178888294Y-101663990D01*
X178946153Y-101675499D01*
X178946156Y-101675500D01*
X178946158Y-101675500D01*
X179103844Y-101675500D01*
X179103845Y-101675499D01*
X179258497Y-101644737D01*
X179404179Y-101584394D01*
X179535289Y-101496789D01*
X179646789Y-101385289D01*
X179734394Y-101254179D01*
X179794737Y-101108497D01*
X179825500Y-100953842D01*
X179825500Y-100796158D01*
X179825500Y-100796155D01*
X179825499Y-100796153D01*
X179794738Y-100641510D01*
X179794737Y-100641503D01*
X179792727Y-100636650D01*
X179734397Y-100495827D01*
X179734390Y-100495814D01*
X179646789Y-100364711D01*
X179646786Y-100364707D01*
X179535292Y-100253213D01*
X179535288Y-100253210D01*
X179404185Y-100165609D01*
X179404172Y-100165602D01*
X179258501Y-100105264D01*
X179258489Y-100105261D01*
X179103845Y-100074500D01*
X179103842Y-100074500D01*
X178946158Y-100074500D01*
X178946155Y-100074500D01*
X178791510Y-100105261D01*
X178791498Y-100105264D01*
X178645827Y-100165602D01*
X178645814Y-100165609D01*
X178514711Y-100253210D01*
X178514707Y-100253213D01*
X178403213Y-100364707D01*
X178403210Y-100364711D01*
X178315609Y-100495814D01*
X178315602Y-100495827D01*
X178255264Y-100641498D01*
X178255261Y-100641510D01*
X178224500Y-100796153D01*
X166524208Y-100796153D01*
X166576557Y-100693412D01*
X166642246Y-100491243D01*
X166675500Y-100281287D01*
X166675500Y-100068713D01*
X166642246Y-99858757D01*
X166576557Y-99656588D01*
X166480051Y-99467184D01*
X166480049Y-99467181D01*
X166480048Y-99467179D01*
X166355109Y-99295213D01*
X166204786Y-99144890D01*
X166032820Y-99019951D01*
X165843414Y-98923444D01*
X165843413Y-98923443D01*
X165843412Y-98923443D01*
X165641243Y-98857754D01*
X165641241Y-98857753D01*
X165641240Y-98857753D01*
X165479957Y-98832208D01*
X165431287Y-98824500D01*
X165218713Y-98824500D01*
X165170042Y-98832208D01*
X165008760Y-98857753D01*
X164806585Y-98923444D01*
X164617179Y-99019951D01*
X164445213Y-99144890D01*
X164294890Y-99295213D01*
X164169949Y-99467182D01*
X164165484Y-99475946D01*
X164117509Y-99526742D01*
X164049688Y-99543536D01*
X163983553Y-99520998D01*
X163944516Y-99475946D01*
X163940050Y-99467182D01*
X163815109Y-99295213D01*
X163664786Y-99144890D01*
X163492820Y-99019951D01*
X163303414Y-98923444D01*
X163303413Y-98923443D01*
X163303412Y-98923443D01*
X163101243Y-98857754D01*
X163101241Y-98857753D01*
X163101240Y-98857753D01*
X162939957Y-98832208D01*
X162891287Y-98824500D01*
X162678713Y-98824500D01*
X162630042Y-98832208D01*
X162468760Y-98857753D01*
X162266585Y-98923444D01*
X162077179Y-99019951D01*
X161905215Y-99144889D01*
X161791673Y-99258431D01*
X161730350Y-99291915D01*
X161660658Y-99286931D01*
X161604725Y-99245059D01*
X161587810Y-99214082D01*
X161538797Y-99082671D01*
X161538793Y-99082664D01*
X161452547Y-98967455D01*
X161452544Y-98967452D01*
X161337335Y-98881206D01*
X161337328Y-98881202D01*
X161202482Y-98830908D01*
X161202483Y-98830908D01*
X161142883Y-98824501D01*
X161142881Y-98824500D01*
X161142873Y-98824500D01*
X161142864Y-98824500D01*
X159347129Y-98824500D01*
X159347123Y-98824501D01*
X159287516Y-98830908D01*
X159152671Y-98881202D01*
X159152664Y-98881206D01*
X159037455Y-98967452D01*
X159037452Y-98967455D01*
X158951206Y-99082664D01*
X158951202Y-99082671D01*
X158900908Y-99217517D01*
X158894501Y-99277116D01*
X158894500Y-99277135D01*
X128051961Y-99277135D01*
X127938996Y-99004414D01*
X127935307Y-98994279D01*
X127813956Y-98609405D01*
X127811167Y-98598993D01*
X127723823Y-98205010D01*
X127721950Y-98194386D01*
X127669277Y-97794293D01*
X127668337Y-97783558D01*
X127650618Y-97377701D01*
X127650500Y-97372293D01*
X127650500Y-97253711D01*
X130549500Y-97253711D01*
X130549500Y-97253712D01*
X130549500Y-97496288D01*
X130581162Y-97736789D01*
X130595138Y-97788946D01*
X130643947Y-97971104D01*
X130666273Y-98025003D01*
X130736776Y-98195212D01*
X130858064Y-98405289D01*
X130858066Y-98405292D01*
X130858067Y-98405293D01*
X131005733Y-98597736D01*
X131005739Y-98597743D01*
X131177256Y-98769260D01*
X131177262Y-98769265D01*
X131369711Y-98916936D01*
X131579788Y-99038224D01*
X131803900Y-99131054D01*
X132038211Y-99193838D01*
X132218074Y-99217517D01*
X132278711Y-99225500D01*
X132278712Y-99225500D01*
X132521289Y-99225500D01*
X132581926Y-99217517D01*
X132761789Y-99193838D01*
X132996100Y-99131054D01*
X133220212Y-99038224D01*
X133430289Y-98916936D01*
X133622738Y-98769265D01*
X133794265Y-98597738D01*
X133941936Y-98405289D01*
X134063224Y-98195212D01*
X134156054Y-97971100D01*
X134218838Y-97736789D01*
X134250500Y-97496288D01*
X134250500Y-97253712D01*
X134250500Y-97253711D01*
X207549500Y-97253711D01*
X207549500Y-97253712D01*
X207549500Y-97496288D01*
X207581162Y-97736789D01*
X207595138Y-97788946D01*
X207643947Y-97971104D01*
X207666273Y-98025003D01*
X207736776Y-98195212D01*
X207858064Y-98405289D01*
X207858066Y-98405292D01*
X207858067Y-98405293D01*
X208005733Y-98597736D01*
X208005739Y-98597743D01*
X208177256Y-98769260D01*
X208177262Y-98769265D01*
X208369711Y-98916936D01*
X208579788Y-99038224D01*
X208803900Y-99131054D01*
X209038211Y-99193838D01*
X209218074Y-99217517D01*
X209278711Y-99225500D01*
X209278712Y-99225500D01*
X209521289Y-99225500D01*
X209581926Y-99217517D01*
X209761789Y-99193838D01*
X209996100Y-99131054D01*
X210220212Y-99038224D01*
X210430289Y-98916936D01*
X210622738Y-98769265D01*
X210794265Y-98597738D01*
X210941936Y-98405289D01*
X211063224Y-98195212D01*
X211156054Y-97971100D01*
X211218838Y-97736789D01*
X211250500Y-97496288D01*
X211250500Y-97253712D01*
X211218838Y-97013211D01*
X211156054Y-96778900D01*
X211063224Y-96554788D01*
X210941936Y-96344711D01*
X210794265Y-96152262D01*
X210794260Y-96152256D01*
X210622743Y-95980739D01*
X210622736Y-95980733D01*
X210430293Y-95833067D01*
X210430292Y-95833066D01*
X210430289Y-95833064D01*
X210220212Y-95711776D01*
X210220205Y-95711773D01*
X209996104Y-95618947D01*
X209761785Y-95556161D01*
X209521289Y-95524500D01*
X209521288Y-95524500D01*
X209278712Y-95524500D01*
X209278711Y-95524500D01*
X209038214Y-95556161D01*
X208803895Y-95618947D01*
X208579794Y-95711773D01*
X208579785Y-95711777D01*
X208369706Y-95833067D01*
X208177263Y-95980733D01*
X208177256Y-95980739D01*
X208005739Y-96152256D01*
X208005733Y-96152263D01*
X207858067Y-96344706D01*
X207736777Y-96554785D01*
X207736773Y-96554794D01*
X207643947Y-96778895D01*
X207581161Y-97013214D01*
X207549500Y-97253711D01*
X134250500Y-97253711D01*
X134218838Y-97013211D01*
X134156054Y-96778900D01*
X134063224Y-96554788D01*
X133941936Y-96344711D01*
X133794265Y-96152262D01*
X133794260Y-96152256D01*
X133622743Y-95980739D01*
X133622736Y-95980733D01*
X133545089Y-95921153D01*
X158774500Y-95921153D01*
X158774500Y-96078846D01*
X158805261Y-96233489D01*
X158805264Y-96233501D01*
X158865602Y-96379172D01*
X158865609Y-96379185D01*
X158953210Y-96510288D01*
X158953213Y-96510292D01*
X159064707Y-96621786D01*
X159064711Y-96621789D01*
X159195814Y-96709390D01*
X159195827Y-96709397D01*
X159341498Y-96769735D01*
X159341503Y-96769737D01*
X159496153Y-96800499D01*
X159496156Y-96800500D01*
X159496158Y-96800500D01*
X159653844Y-96800500D01*
X159653845Y-96800499D01*
X159808497Y-96769737D01*
X159954179Y-96709394D01*
X160085289Y-96621789D01*
X160196789Y-96510289D01*
X160284394Y-96379179D01*
X160344737Y-96233497D01*
X160375500Y-96078842D01*
X160375500Y-95921158D01*
X160375500Y-95921155D01*
X160375499Y-95921153D01*
X160344738Y-95766510D01*
X160344737Y-95766503D01*
X160322069Y-95711776D01*
X160284397Y-95620827D01*
X160284390Y-95620814D01*
X160196789Y-95489711D01*
X160196786Y-95489707D01*
X160085292Y-95378213D01*
X160085288Y-95378210D01*
X159954185Y-95290609D01*
X159954172Y-95290602D01*
X159808501Y-95230264D01*
X159808489Y-95230261D01*
X159653845Y-95199500D01*
X159653842Y-95199500D01*
X159496158Y-95199500D01*
X159496155Y-95199500D01*
X159341510Y-95230261D01*
X159341498Y-95230264D01*
X159195827Y-95290602D01*
X159195814Y-95290609D01*
X159064711Y-95378210D01*
X159064707Y-95378213D01*
X158953213Y-95489707D01*
X158953210Y-95489711D01*
X158865609Y-95620814D01*
X158865602Y-95620827D01*
X158805264Y-95766498D01*
X158805261Y-95766510D01*
X158774500Y-95921153D01*
X133545089Y-95921153D01*
X133430293Y-95833067D01*
X133430292Y-95833066D01*
X133430289Y-95833064D01*
X133220212Y-95711776D01*
X133220205Y-95711773D01*
X132996104Y-95618947D01*
X132761785Y-95556161D01*
X132521289Y-95524500D01*
X132521288Y-95524500D01*
X132278712Y-95524500D01*
X132278711Y-95524500D01*
X132038214Y-95556161D01*
X131803895Y-95618947D01*
X131579794Y-95711773D01*
X131579785Y-95711777D01*
X131369706Y-95833067D01*
X131177263Y-95980733D01*
X131177256Y-95980739D01*
X131005739Y-96152256D01*
X131005733Y-96152263D01*
X130858067Y-96344706D01*
X130736777Y-96554785D01*
X130736773Y-96554794D01*
X130643947Y-96778895D01*
X130581161Y-97013214D01*
X130549500Y-97253711D01*
X127650500Y-97253711D01*
X127650500Y-94571153D01*
X160249500Y-94571153D01*
X160249500Y-94728846D01*
X160280261Y-94883489D01*
X160280264Y-94883501D01*
X160340602Y-95029172D01*
X160340609Y-95029185D01*
X160428210Y-95160288D01*
X160428213Y-95160292D01*
X160539707Y-95271786D01*
X160539711Y-95271789D01*
X160670814Y-95359390D01*
X160670827Y-95359397D01*
X160716254Y-95378213D01*
X160816503Y-95419737D01*
X160971153Y-95450499D01*
X160971156Y-95450500D01*
X160971158Y-95450500D01*
X161128844Y-95450500D01*
X161128845Y-95450499D01*
X161283497Y-95419737D01*
X161429179Y-95359394D01*
X161560289Y-95271789D01*
X161671789Y-95160289D01*
X161759394Y-95029179D01*
X161819737Y-94883497D01*
X161850500Y-94728842D01*
X161850500Y-94571158D01*
X161850500Y-94571155D01*
X161850499Y-94571153D01*
X161819738Y-94416510D01*
X161819737Y-94416503D01*
X161819735Y-94416498D01*
X161759397Y-94270827D01*
X161759390Y-94270814D01*
X161671789Y-94139711D01*
X161671786Y-94139707D01*
X161560292Y-94028213D01*
X161560288Y-94028210D01*
X161429185Y-93940609D01*
X161429172Y-93940602D01*
X161283501Y-93880264D01*
X161283489Y-93880261D01*
X161128845Y-93849500D01*
X161128842Y-93849500D01*
X160971158Y-93849500D01*
X160971155Y-93849500D01*
X160816510Y-93880261D01*
X160816498Y-93880264D01*
X160670827Y-93940602D01*
X160670814Y-93940609D01*
X160539711Y-94028210D01*
X160539707Y-94028213D01*
X160428213Y-94139707D01*
X160428210Y-94139711D01*
X160340609Y-94270814D01*
X160340602Y-94270827D01*
X160280264Y-94416498D01*
X160280261Y-94416510D01*
X160249500Y-94571153D01*
X127650500Y-94571153D01*
X127650500Y-92183653D01*
X139962000Y-92183653D01*
X139962000Y-92341346D01*
X139992761Y-92495989D01*
X139992764Y-92496001D01*
X140053102Y-92641672D01*
X140053109Y-92641685D01*
X140140710Y-92772788D01*
X140140713Y-92772792D01*
X140252207Y-92884286D01*
X140252211Y-92884289D01*
X140383314Y-92971890D01*
X140383327Y-92971897D01*
X140528998Y-93032235D01*
X140529003Y-93032237D01*
X140683653Y-93062999D01*
X140683656Y-93063000D01*
X140683658Y-93063000D01*
X140841344Y-93063000D01*
X140841345Y-93062999D01*
X140995997Y-93032237D01*
X141141679Y-92971894D01*
X141272789Y-92884289D01*
X141384289Y-92772789D01*
X141471894Y-92641679D01*
X141532237Y-92495997D01*
X141563000Y-92341342D01*
X141563000Y-92183658D01*
X141563000Y-92183655D01*
X141562999Y-92183653D01*
X141532238Y-92029010D01*
X141532237Y-92029003D01*
X141520431Y-92000500D01*
X141471897Y-91883327D01*
X141471890Y-91883314D01*
X141384289Y-91752211D01*
X141384286Y-91752207D01*
X141272792Y-91640713D01*
X141272788Y-91640710D01*
X141141685Y-91553109D01*
X141141672Y-91553102D01*
X140996001Y-91492764D01*
X140995989Y-91492761D01*
X140841345Y-91462000D01*
X140841342Y-91462000D01*
X140683658Y-91462000D01*
X140683655Y-91462000D01*
X140529010Y-91492761D01*
X140528998Y-91492764D01*
X140383327Y-91553102D01*
X140383314Y-91553109D01*
X140252211Y-91640710D01*
X140252207Y-91640713D01*
X140140713Y-91752207D01*
X140140710Y-91752211D01*
X140053109Y-91883314D01*
X140053102Y-91883327D01*
X139992764Y-92028998D01*
X139992761Y-92029010D01*
X139962000Y-92183653D01*
X127650500Y-92183653D01*
X127650500Y-91121153D01*
X152999500Y-91121153D01*
X152999500Y-91278846D01*
X153030261Y-91433489D01*
X153030264Y-91433501D01*
X153090602Y-91579172D01*
X153090609Y-91579185D01*
X153178210Y-91710288D01*
X153178213Y-91710292D01*
X153289707Y-91821786D01*
X153289711Y-91821789D01*
X153420814Y-91909390D01*
X153420827Y-91909397D01*
X153566498Y-91969735D01*
X153566503Y-91969737D01*
X153721153Y-92000499D01*
X153721156Y-92000500D01*
X153721158Y-92000500D01*
X153878844Y-92000500D01*
X153878845Y-92000499D01*
X154033497Y-91969737D01*
X154179179Y-91909394D01*
X154310289Y-91821789D01*
X154421789Y-91710289D01*
X154509394Y-91579179D01*
X154569737Y-91433497D01*
X154600500Y-91278842D01*
X154600500Y-91121158D01*
X154600500Y-91121155D01*
X154600499Y-91121153D01*
X154575272Y-90994331D01*
X154569737Y-90966503D01*
X154560721Y-90944737D01*
X154509397Y-90820827D01*
X154509390Y-90820814D01*
X154421789Y-90689711D01*
X154421786Y-90689707D01*
X154310292Y-90578213D01*
X154310288Y-90578210D01*
X154179185Y-90490609D01*
X154179172Y-90490602D01*
X154033501Y-90430264D01*
X154033489Y-90430261D01*
X153878845Y-90399500D01*
X153878842Y-90399500D01*
X153721158Y-90399500D01*
X153721155Y-90399500D01*
X153566510Y-90430261D01*
X153566498Y-90430264D01*
X153420827Y-90490602D01*
X153420814Y-90490609D01*
X153289711Y-90578210D01*
X153289707Y-90578213D01*
X153178213Y-90689707D01*
X153178210Y-90689711D01*
X153090609Y-90820814D01*
X153090602Y-90820827D01*
X153030264Y-90966498D01*
X153030261Y-90966510D01*
X152999500Y-91121153D01*
X127650500Y-91121153D01*
X127650500Y-88996153D01*
X129974500Y-88996153D01*
X129974500Y-89153846D01*
X130005261Y-89308489D01*
X130005264Y-89308501D01*
X130065602Y-89454172D01*
X130065609Y-89454185D01*
X130153210Y-89585288D01*
X130153213Y-89585292D01*
X130264707Y-89696786D01*
X130264711Y-89696789D01*
X130395814Y-89784390D01*
X130395827Y-89784397D01*
X130541498Y-89844735D01*
X130541503Y-89844737D01*
X130696153Y-89875499D01*
X130696156Y-89875500D01*
X130696158Y-89875500D01*
X130853844Y-89875500D01*
X130853845Y-89875499D01*
X131008497Y-89844737D01*
X131126592Y-89795821D01*
X131154172Y-89784397D01*
X131154172Y-89784396D01*
X131154179Y-89784394D01*
X131285289Y-89696789D01*
X131396789Y-89585289D01*
X131484394Y-89454179D01*
X131544737Y-89308497D01*
X131575500Y-89153842D01*
X131575500Y-88996158D01*
X131575500Y-88996155D01*
X131575499Y-88996153D01*
X131555734Y-88896789D01*
X131544737Y-88841503D01*
X131521452Y-88785288D01*
X131484397Y-88695827D01*
X131484390Y-88695814D01*
X131396789Y-88564711D01*
X131396786Y-88564707D01*
X131285292Y-88453213D01*
X131285288Y-88453210D01*
X131154185Y-88365609D01*
X131154172Y-88365602D01*
X131008501Y-88305264D01*
X131008489Y-88305261D01*
X130853845Y-88274500D01*
X130853842Y-88274500D01*
X130696158Y-88274500D01*
X130696155Y-88274500D01*
X130541510Y-88305261D01*
X130541498Y-88305264D01*
X130395827Y-88365602D01*
X130395814Y-88365609D01*
X130264711Y-88453210D01*
X130264707Y-88453213D01*
X130153213Y-88564707D01*
X130153210Y-88564711D01*
X130065609Y-88695814D01*
X130065602Y-88695827D01*
X130005264Y-88841498D01*
X130005261Y-88841510D01*
X129974500Y-88996153D01*
X127650500Y-88996153D01*
X127650500Y-88196153D01*
X133199500Y-88196153D01*
X133199500Y-88353846D01*
X133230261Y-88508489D01*
X133230264Y-88508501D01*
X133290602Y-88654172D01*
X133290609Y-88654185D01*
X133378210Y-88785288D01*
X133378213Y-88785292D01*
X133489707Y-88896786D01*
X133489711Y-88896789D01*
X133620814Y-88984390D01*
X133620827Y-88984397D01*
X133766498Y-89044735D01*
X133766503Y-89044737D01*
X133921153Y-89075499D01*
X133921156Y-89075500D01*
X133921158Y-89075500D01*
X134078844Y-89075500D01*
X134078845Y-89075499D01*
X134233497Y-89044737D01*
X134379179Y-88984394D01*
X134510289Y-88896789D01*
X134621789Y-88785289D01*
X134709394Y-88654179D01*
X134769737Y-88508497D01*
X134800500Y-88353842D01*
X134800500Y-88196158D01*
X134800500Y-88196155D01*
X134800499Y-88196153D01*
X134769738Y-88041510D01*
X134769737Y-88041503D01*
X134728468Y-87941870D01*
X134721474Y-87924983D01*
X171249500Y-87924983D01*
X171249500Y-90725001D01*
X171249501Y-90725018D01*
X171260000Y-90827796D01*
X171260001Y-90827799D01*
X171278754Y-90884390D01*
X171315186Y-90994334D01*
X171407288Y-91143656D01*
X171531344Y-91267712D01*
X171680666Y-91359814D01*
X171847203Y-91414999D01*
X171949991Y-91425500D01*
X174750008Y-91425499D01*
X174852797Y-91414999D01*
X175019334Y-91359814D01*
X175168656Y-91267712D01*
X175292712Y-91143656D01*
X175384814Y-90994334D01*
X175439999Y-90827797D01*
X175450500Y-90725009D01*
X175450500Y-90096153D01*
X185849500Y-90096153D01*
X185849500Y-90253846D01*
X185880261Y-90408489D01*
X185880264Y-90408501D01*
X185940602Y-90554172D01*
X185940609Y-90554185D01*
X186028210Y-90685288D01*
X186028213Y-90685292D01*
X186139707Y-90796786D01*
X186139711Y-90796789D01*
X186270814Y-90884390D01*
X186270827Y-90884397D01*
X186416498Y-90944735D01*
X186416503Y-90944737D01*
X186525963Y-90966510D01*
X186571153Y-90975499D01*
X186571156Y-90975500D01*
X186571158Y-90975500D01*
X186728844Y-90975500D01*
X186728845Y-90975499D01*
X186883497Y-90944737D01*
X187029179Y-90884394D01*
X187160289Y-90796789D01*
X187271789Y-90685289D01*
X187359394Y-90554179D01*
X187419737Y-90408497D01*
X187450500Y-90253842D01*
X187450500Y-90096158D01*
X187450500Y-90096155D01*
X187450499Y-90096153D01*
X187419738Y-89941510D01*
X187419737Y-89941503D01*
X187392398Y-89875500D01*
X187359397Y-89795827D01*
X187359390Y-89795814D01*
X187271789Y-89664711D01*
X187271786Y-89664707D01*
X187160292Y-89553213D01*
X187160288Y-89553210D01*
X187029185Y-89465609D01*
X187029172Y-89465602D01*
X186883501Y-89405264D01*
X186883489Y-89405261D01*
X186728845Y-89374500D01*
X186728842Y-89374500D01*
X186571158Y-89374500D01*
X186571155Y-89374500D01*
X186416510Y-89405261D01*
X186416498Y-89405264D01*
X186270827Y-89465602D01*
X186270814Y-89465609D01*
X186139711Y-89553210D01*
X186139707Y-89553213D01*
X186028213Y-89664707D01*
X186028210Y-89664711D01*
X185940609Y-89795814D01*
X185940602Y-89795827D01*
X185880264Y-89941498D01*
X185880261Y-89941510D01*
X185849500Y-90096153D01*
X175450500Y-90096153D01*
X175450499Y-89308501D01*
X175450499Y-87924998D01*
X175450498Y-87924981D01*
X175439999Y-87822203D01*
X175439998Y-87822200D01*
X175420948Y-87764711D01*
X175384814Y-87655666D01*
X175292712Y-87506344D01*
X175168656Y-87382288D01*
X175019334Y-87290186D01*
X174852797Y-87235001D01*
X174852795Y-87235000D01*
X174750010Y-87224500D01*
X171949998Y-87224500D01*
X171949981Y-87224501D01*
X171847203Y-87235000D01*
X171847200Y-87235001D01*
X171680668Y-87290185D01*
X171680663Y-87290187D01*
X171531342Y-87382289D01*
X171407289Y-87506342D01*
X171315187Y-87655663D01*
X171315186Y-87655666D01*
X171260001Y-87822203D01*
X171260001Y-87822204D01*
X171260000Y-87822204D01*
X171249500Y-87924983D01*
X134721474Y-87924983D01*
X134709397Y-87895826D01*
X134709390Y-87895814D01*
X134621789Y-87764711D01*
X134621786Y-87764707D01*
X134510292Y-87653213D01*
X134510288Y-87653210D01*
X134379185Y-87565609D01*
X134379172Y-87565602D01*
X134233501Y-87505264D01*
X134233489Y-87505261D01*
X134078845Y-87474500D01*
X134078842Y-87474500D01*
X133921158Y-87474500D01*
X133921155Y-87474500D01*
X133766510Y-87505261D01*
X133766498Y-87505264D01*
X133620827Y-87565602D01*
X133620814Y-87565609D01*
X133489711Y-87653210D01*
X133489707Y-87653213D01*
X133378213Y-87764707D01*
X133378210Y-87764711D01*
X133290609Y-87895814D01*
X133290602Y-87895827D01*
X133230264Y-88041498D01*
X133230261Y-88041510D01*
X133199500Y-88196153D01*
X127650500Y-88196153D01*
X127650500Y-80946153D01*
X141949500Y-80946153D01*
X141949500Y-81103846D01*
X141980261Y-81258489D01*
X141980264Y-81258501D01*
X142040602Y-81404172D01*
X142040609Y-81404185D01*
X142128210Y-81535288D01*
X142128213Y-81535292D01*
X142239707Y-81646786D01*
X142239711Y-81646789D01*
X142370814Y-81734390D01*
X142370827Y-81734397D01*
X142516498Y-81794735D01*
X142516503Y-81794737D01*
X142671153Y-81825499D01*
X142671156Y-81825500D01*
X142671158Y-81825500D01*
X142828844Y-81825500D01*
X142828845Y-81825499D01*
X142983497Y-81794737D01*
X143129179Y-81734394D01*
X143223826Y-81671153D01*
X152424500Y-81671153D01*
X152424500Y-81828846D01*
X152455261Y-81983489D01*
X152455264Y-81983501D01*
X152515602Y-82129172D01*
X152515609Y-82129185D01*
X152603210Y-82260288D01*
X152603213Y-82260292D01*
X152714707Y-82371786D01*
X152714711Y-82371789D01*
X152845814Y-82459390D01*
X152845827Y-82459397D01*
X152991498Y-82519735D01*
X152991503Y-82519737D01*
X153146153Y-82550499D01*
X153146156Y-82550500D01*
X153146158Y-82550500D01*
X153303844Y-82550500D01*
X153303845Y-82550499D01*
X153451378Y-82521153D01*
X157574500Y-82521153D01*
X157574500Y-82678846D01*
X157605261Y-82833489D01*
X157605264Y-82833501D01*
X157665602Y-82979172D01*
X157665609Y-82979185D01*
X157753210Y-83110288D01*
X157753213Y-83110292D01*
X157864707Y-83221786D01*
X157864711Y-83221789D01*
X157995814Y-83309390D01*
X157995827Y-83309397D01*
X158141498Y-83369735D01*
X158141503Y-83369737D01*
X158296153Y-83400499D01*
X158296156Y-83400500D01*
X158296158Y-83400500D01*
X158453844Y-83400500D01*
X158453845Y-83400499D01*
X158608497Y-83369737D01*
X158754179Y-83309394D01*
X158885289Y-83221789D01*
X158996789Y-83110289D01*
X159084394Y-82979179D01*
X159144737Y-82833497D01*
X159175500Y-82678842D01*
X159175500Y-82521158D01*
X159175500Y-82521155D01*
X159175499Y-82521153D01*
X159145788Y-82371789D01*
X159144737Y-82366503D01*
X159144735Y-82366498D01*
X159084397Y-82220827D01*
X159084390Y-82220814D01*
X158996789Y-82089711D01*
X158996786Y-82089707D01*
X158885292Y-81978213D01*
X158885288Y-81978210D01*
X158754185Y-81890609D01*
X158754172Y-81890602D01*
X158608501Y-81830264D01*
X158608489Y-81830261D01*
X158453845Y-81799500D01*
X158453842Y-81799500D01*
X158296158Y-81799500D01*
X158296155Y-81799500D01*
X158141510Y-81830261D01*
X158141498Y-81830264D01*
X157995827Y-81890602D01*
X157995814Y-81890609D01*
X157864711Y-81978210D01*
X157864707Y-81978213D01*
X157753213Y-82089707D01*
X157753210Y-82089711D01*
X157665609Y-82220814D01*
X157665602Y-82220827D01*
X157605264Y-82366498D01*
X157605261Y-82366510D01*
X157574500Y-82521153D01*
X153451378Y-82521153D01*
X153458497Y-82519737D01*
X153604179Y-82459394D01*
X153604185Y-82459390D01*
X153675164Y-82411964D01*
X153706224Y-82391209D01*
X153735289Y-82371789D01*
X153846789Y-82260289D01*
X153934394Y-82129179D01*
X153994737Y-81983497D01*
X154025500Y-81828842D01*
X154025500Y-81671158D01*
X154025500Y-81671155D01*
X154025499Y-81671153D01*
X153998474Y-81535292D01*
X153994737Y-81516503D01*
X153948214Y-81404185D01*
X153934397Y-81370827D01*
X153934390Y-81370814D01*
X153846789Y-81239711D01*
X153846786Y-81239707D01*
X153735292Y-81128213D01*
X153735288Y-81128210D01*
X153604185Y-81040609D01*
X153604172Y-81040602D01*
X153458501Y-80980264D01*
X153458489Y-80980261D01*
X153303845Y-80949500D01*
X153303842Y-80949500D01*
X153146158Y-80949500D01*
X153146155Y-80949500D01*
X152991510Y-80980261D01*
X152991498Y-80980264D01*
X152845827Y-81040602D01*
X152845814Y-81040609D01*
X152714711Y-81128210D01*
X152714707Y-81128213D01*
X152603213Y-81239707D01*
X152603210Y-81239711D01*
X152515609Y-81370814D01*
X152515602Y-81370827D01*
X152455264Y-81516498D01*
X152455261Y-81516510D01*
X152424500Y-81671153D01*
X143223826Y-81671153D01*
X143260289Y-81646789D01*
X143260292Y-81646786D01*
X143329694Y-81577385D01*
X143371786Y-81535292D01*
X143371789Y-81535289D01*
X143459394Y-81404179D01*
X143519737Y-81258497D01*
X143550500Y-81103842D01*
X143550500Y-80946158D01*
X143550500Y-80946155D01*
X143550499Y-80946153D01*
X143519738Y-80791510D01*
X143519737Y-80791503D01*
X143519735Y-80791498D01*
X143459397Y-80645827D01*
X143459390Y-80645814D01*
X143371789Y-80514711D01*
X143371786Y-80514707D01*
X143260292Y-80403213D01*
X143260288Y-80403210D01*
X143129185Y-80315609D01*
X143129172Y-80315602D01*
X142983501Y-80255264D01*
X142983489Y-80255261D01*
X142828845Y-80224500D01*
X142828842Y-80224500D01*
X142671158Y-80224500D01*
X142671155Y-80224500D01*
X142516510Y-80255261D01*
X142516498Y-80255264D01*
X142370827Y-80315602D01*
X142370814Y-80315609D01*
X142239711Y-80403210D01*
X142239707Y-80403213D01*
X142128213Y-80514707D01*
X142128210Y-80514711D01*
X142040609Y-80645814D01*
X142040602Y-80645827D01*
X141980264Y-80791498D01*
X141980261Y-80791510D01*
X141949500Y-80946153D01*
X127650500Y-80946153D01*
X127650500Y-79446153D01*
X130374500Y-79446153D01*
X130374500Y-79603846D01*
X130405261Y-79758489D01*
X130405264Y-79758501D01*
X130465602Y-79904172D01*
X130465609Y-79904185D01*
X130553210Y-80035288D01*
X130553213Y-80035292D01*
X130664707Y-80146786D01*
X130664711Y-80146789D01*
X130795814Y-80234390D01*
X130795827Y-80234397D01*
X130941498Y-80294735D01*
X130941503Y-80294737D01*
X131096153Y-80325499D01*
X131096156Y-80325500D01*
X131096158Y-80325500D01*
X131253844Y-80325500D01*
X131253845Y-80325499D01*
X131408497Y-80294737D01*
X131554179Y-80234394D01*
X131685289Y-80146789D01*
X131796789Y-80035289D01*
X131884394Y-79904179D01*
X131944737Y-79758497D01*
X131947212Y-79746050D01*
X131952165Y-79721153D01*
X146274500Y-79721153D01*
X146274500Y-79878846D01*
X146305261Y-80033489D01*
X146305264Y-80033501D01*
X146365602Y-80179172D01*
X146365609Y-80179185D01*
X146453210Y-80310288D01*
X146453213Y-80310292D01*
X146564707Y-80421786D01*
X146564711Y-80421789D01*
X146695814Y-80509390D01*
X146695827Y-80509397D01*
X146841498Y-80569735D01*
X146841503Y-80569737D01*
X146996153Y-80600499D01*
X146996156Y-80600500D01*
X146996158Y-80600500D01*
X147153844Y-80600500D01*
X147153845Y-80600499D01*
X147308497Y-80569737D01*
X147454179Y-80509394D01*
X147585289Y-80421789D01*
X147696789Y-80310289D01*
X147784394Y-80179179D01*
X147844737Y-80033497D01*
X147875500Y-79878842D01*
X147875500Y-79721158D01*
X147875500Y-79721155D01*
X147875499Y-79721153D01*
X147852165Y-79603846D01*
X147844737Y-79566503D01*
X147794887Y-79446153D01*
X147784397Y-79420827D01*
X147784390Y-79420814D01*
X147696789Y-79289711D01*
X147696786Y-79289707D01*
X147585292Y-79178213D01*
X147585288Y-79178210D01*
X147454185Y-79090609D01*
X147454172Y-79090602D01*
X147308501Y-79030264D01*
X147308489Y-79030261D01*
X147153845Y-78999500D01*
X147153842Y-78999500D01*
X146996158Y-78999500D01*
X146996155Y-78999500D01*
X146841510Y-79030261D01*
X146841498Y-79030264D01*
X146695827Y-79090602D01*
X146695814Y-79090609D01*
X146564711Y-79178210D01*
X146564707Y-79178213D01*
X146453213Y-79289707D01*
X146453210Y-79289711D01*
X146365609Y-79420814D01*
X146365602Y-79420827D01*
X146305264Y-79566498D01*
X146305261Y-79566510D01*
X146274500Y-79721153D01*
X131952165Y-79721153D01*
X131958189Y-79690874D01*
X131958189Y-79690873D01*
X131975499Y-79603846D01*
X131975500Y-79603844D01*
X131975500Y-79446155D01*
X131975499Y-79446153D01*
X131944738Y-79291510D01*
X131944737Y-79291503D01*
X131943993Y-79289707D01*
X131884397Y-79145827D01*
X131884390Y-79145814D01*
X131796789Y-79014711D01*
X131796786Y-79014707D01*
X131685292Y-78903213D01*
X131685288Y-78903210D01*
X131554185Y-78815609D01*
X131554172Y-78815602D01*
X131408501Y-78755264D01*
X131408489Y-78755261D01*
X131253845Y-78724500D01*
X131253842Y-78724500D01*
X131096158Y-78724500D01*
X131096155Y-78724500D01*
X130941510Y-78755261D01*
X130941498Y-78755264D01*
X130795827Y-78815602D01*
X130795814Y-78815609D01*
X130664711Y-78903210D01*
X130664707Y-78903213D01*
X130553213Y-79014707D01*
X130553210Y-79014711D01*
X130465609Y-79145814D01*
X130465602Y-79145827D01*
X130405264Y-79291498D01*
X130405261Y-79291510D01*
X130374500Y-79446153D01*
X127650500Y-79446153D01*
X127650500Y-77871153D01*
X149974500Y-77871153D01*
X149974500Y-78028846D01*
X150005261Y-78183489D01*
X150005264Y-78183501D01*
X150065602Y-78329172D01*
X150065609Y-78329185D01*
X150153210Y-78460288D01*
X150153213Y-78460292D01*
X150264707Y-78571786D01*
X150264711Y-78571789D01*
X150395814Y-78659390D01*
X150395827Y-78659397D01*
X150486101Y-78696789D01*
X150541503Y-78719737D01*
X150696153Y-78750499D01*
X150696156Y-78750500D01*
X150696158Y-78750500D01*
X150853844Y-78750500D01*
X150853845Y-78750499D01*
X151008497Y-78719737D01*
X151154179Y-78659394D01*
X151285289Y-78571789D01*
X151396789Y-78460289D01*
X151484394Y-78329179D01*
X151544737Y-78183497D01*
X151575500Y-78028842D01*
X151575500Y-77996153D01*
X161349500Y-77996153D01*
X161349500Y-78153846D01*
X161380261Y-78308489D01*
X161380264Y-78308501D01*
X161440602Y-78454172D01*
X161440609Y-78454185D01*
X161528210Y-78585288D01*
X161528213Y-78585292D01*
X161639707Y-78696786D01*
X161639711Y-78696789D01*
X161770814Y-78784390D01*
X161770827Y-78784397D01*
X161846181Y-78815609D01*
X161916503Y-78844737D01*
X162071153Y-78875499D01*
X162071156Y-78875500D01*
X162071158Y-78875500D01*
X162228844Y-78875500D01*
X162228845Y-78875499D01*
X162383497Y-78844737D01*
X162529179Y-78784394D01*
X162660289Y-78696789D01*
X162771789Y-78585289D01*
X162859394Y-78454179D01*
X162919737Y-78308497D01*
X162920320Y-78305562D01*
X162921050Y-78304168D01*
X162921507Y-78302662D01*
X162921792Y-78302748D01*
X162952698Y-78243651D01*
X162994482Y-78215186D01*
X163129179Y-78159394D01*
X163260289Y-78071789D01*
X163371789Y-77960289D01*
X163459394Y-77829179D01*
X163519737Y-77683497D01*
X163550500Y-77528842D01*
X163550500Y-77371158D01*
X163550500Y-77371155D01*
X163550499Y-77371153D01*
X163538298Y-77309815D01*
X163519737Y-77216503D01*
X163517567Y-77211264D01*
X163459397Y-77070827D01*
X163459390Y-77070814D01*
X163371789Y-76939711D01*
X163371786Y-76939707D01*
X163260292Y-76828213D01*
X163260288Y-76828210D01*
X163129185Y-76740609D01*
X163129172Y-76740602D01*
X162983501Y-76680264D01*
X162983489Y-76680261D01*
X162828845Y-76649500D01*
X162828842Y-76649500D01*
X162671158Y-76649500D01*
X162671155Y-76649500D01*
X162516510Y-76680261D01*
X162516498Y-76680264D01*
X162370827Y-76740602D01*
X162370814Y-76740609D01*
X162239711Y-76828210D01*
X162239707Y-76828213D01*
X162128213Y-76939707D01*
X162128210Y-76939711D01*
X162040609Y-77070814D01*
X162040602Y-77070827D01*
X161980263Y-77216500D01*
X161980261Y-77216507D01*
X161979674Y-77219460D01*
X161978940Y-77220861D01*
X161978493Y-77222337D01*
X161978213Y-77222252D01*
X161947281Y-77281367D01*
X161905512Y-77309815D01*
X161770823Y-77365604D01*
X161770814Y-77365609D01*
X161639711Y-77453210D01*
X161639707Y-77453213D01*
X161528213Y-77564707D01*
X161528210Y-77564711D01*
X161440609Y-77695814D01*
X161440602Y-77695827D01*
X161380264Y-77841498D01*
X161380261Y-77841510D01*
X161349500Y-77996153D01*
X151575500Y-77996153D01*
X151575500Y-77871158D01*
X151575500Y-77871155D01*
X151575499Y-77871153D01*
X151544738Y-77716510D01*
X151544737Y-77716503D01*
X151536170Y-77695821D01*
X151484397Y-77570827D01*
X151484390Y-77570814D01*
X151396789Y-77439711D01*
X151396786Y-77439707D01*
X151285292Y-77328213D01*
X151285288Y-77328210D01*
X151154185Y-77240609D01*
X151154175Y-77240604D01*
X151083342Y-77211264D01*
X151028939Y-77167423D01*
X151006874Y-77101129D01*
X151024153Y-77033429D01*
X151075291Y-76985819D01*
X151106601Y-76975086D01*
X151133497Y-76969737D01*
X151279179Y-76909394D01*
X151410289Y-76821789D01*
X151521789Y-76710289D01*
X151609394Y-76579179D01*
X151669737Y-76433497D01*
X151692083Y-76321158D01*
X151692084Y-76321153D01*
X180924500Y-76321153D01*
X180924500Y-76478846D01*
X180955261Y-76633489D01*
X180955264Y-76633501D01*
X181015602Y-76779172D01*
X181015609Y-76779185D01*
X181103210Y-76910288D01*
X181103213Y-76910292D01*
X181214707Y-77021786D01*
X181214711Y-77021789D01*
X181345814Y-77109390D01*
X181345827Y-77109397D01*
X181442646Y-77149500D01*
X181491503Y-77169737D01*
X181646153Y-77200499D01*
X181646156Y-77200500D01*
X181646158Y-77200500D01*
X181803844Y-77200500D01*
X181803845Y-77200499D01*
X181958497Y-77169737D01*
X182104179Y-77109394D01*
X182235289Y-77021789D01*
X182346789Y-76910289D01*
X182434394Y-76779179D01*
X182494737Y-76633497D01*
X182525500Y-76478842D01*
X182525500Y-76321158D01*
X182525500Y-76321155D01*
X182525499Y-76321153D01*
X182519476Y-76290874D01*
X182494737Y-76166503D01*
X182475955Y-76121158D01*
X182434397Y-76020827D01*
X182434390Y-76020814D01*
X182346789Y-75889711D01*
X182346786Y-75889707D01*
X182235292Y-75778213D01*
X182235288Y-75778210D01*
X182104185Y-75690609D01*
X182104172Y-75690602D01*
X181958501Y-75630264D01*
X181958489Y-75630261D01*
X181803845Y-75599500D01*
X181803842Y-75599500D01*
X181646158Y-75599500D01*
X181646155Y-75599500D01*
X181491510Y-75630261D01*
X181491498Y-75630264D01*
X181345827Y-75690602D01*
X181345814Y-75690609D01*
X181214711Y-75778210D01*
X181214707Y-75778213D01*
X181103213Y-75889707D01*
X181103210Y-75889711D01*
X181015609Y-76020814D01*
X181015602Y-76020827D01*
X180955264Y-76166498D01*
X180955261Y-76166510D01*
X180924500Y-76321153D01*
X151692084Y-76321153D01*
X151698107Y-76290875D01*
X151698107Y-76290874D01*
X151700500Y-76278844D01*
X151700500Y-76121155D01*
X151700499Y-76121153D01*
X151680543Y-76020827D01*
X151669737Y-75966503D01*
X151669735Y-75966498D01*
X151609397Y-75820827D01*
X151609395Y-75820823D01*
X151609394Y-75820821D01*
X151569536Y-75761169D01*
X151548658Y-75694492D01*
X151567142Y-75627112D01*
X151619121Y-75580421D01*
X151688091Y-75569245D01*
X151696831Y-75570661D01*
X151721157Y-75575500D01*
X151721158Y-75575500D01*
X151878844Y-75575500D01*
X151878845Y-75575499D01*
X152033497Y-75544737D01*
X152164182Y-75490606D01*
X152179172Y-75484397D01*
X152179172Y-75484396D01*
X152179179Y-75484394D01*
X152310289Y-75396789D01*
X152421789Y-75285289D01*
X152509394Y-75154179D01*
X152569737Y-75008497D01*
X152572212Y-74996050D01*
X152577165Y-74971153D01*
X157974500Y-74971153D01*
X157974500Y-75128846D01*
X158005261Y-75283489D01*
X158005264Y-75283501D01*
X158065602Y-75429172D01*
X158065609Y-75429185D01*
X158153210Y-75560288D01*
X158153213Y-75560292D01*
X158264707Y-75671786D01*
X158264711Y-75671789D01*
X158395814Y-75759390D01*
X158395827Y-75759397D01*
X158541498Y-75819735D01*
X158541503Y-75819737D01*
X158696153Y-75850499D01*
X158696156Y-75850500D01*
X158696158Y-75850500D01*
X158853844Y-75850500D01*
X158853845Y-75850499D01*
X159008497Y-75819737D01*
X159154179Y-75759394D01*
X159285289Y-75671789D01*
X159396789Y-75560289D01*
X159484394Y-75429179D01*
X159544737Y-75283497D01*
X159562111Y-75196153D01*
X161424500Y-75196153D01*
X161424500Y-75353846D01*
X161455261Y-75508489D01*
X161455264Y-75508501D01*
X161515602Y-75654172D01*
X161515609Y-75654185D01*
X161603210Y-75785288D01*
X161603213Y-75785292D01*
X161714707Y-75896786D01*
X161714711Y-75896789D01*
X161845814Y-75984390D01*
X161845827Y-75984397D01*
X161991498Y-76044735D01*
X161991503Y-76044737D01*
X162146153Y-76075499D01*
X162146156Y-76075500D01*
X162146158Y-76075500D01*
X162303844Y-76075500D01*
X162303845Y-76075499D01*
X162458497Y-76044737D01*
X162604179Y-75984394D01*
X162735289Y-75896789D01*
X162846789Y-75785289D01*
X162934394Y-75654179D01*
X162994737Y-75508497D01*
X163016355Y-75399817D01*
X163048739Y-75337906D01*
X163109455Y-75303332D01*
X163179225Y-75307071D01*
X163235897Y-75347937D01*
X163251662Y-75378395D01*
X163252932Y-75377870D01*
X163315602Y-75529172D01*
X163315609Y-75529185D01*
X163403210Y-75660288D01*
X163403213Y-75660292D01*
X163514707Y-75771786D01*
X163514711Y-75771789D01*
X163645814Y-75859390D01*
X163645827Y-75859397D01*
X163736101Y-75896789D01*
X163791503Y-75919737D01*
X163946153Y-75950499D01*
X163946156Y-75950500D01*
X163946158Y-75950500D01*
X164103844Y-75950500D01*
X164103845Y-75950499D01*
X164258497Y-75919737D01*
X164404179Y-75859394D01*
X164535289Y-75771789D01*
X164646789Y-75660289D01*
X164734394Y-75529179D01*
X164794737Y-75383497D01*
X164825500Y-75228842D01*
X164825500Y-75071158D01*
X164825500Y-75071155D01*
X164825499Y-75071153D01*
X164794737Y-74916503D01*
X164786170Y-74895821D01*
X164734397Y-74770827D01*
X164734390Y-74770814D01*
X164646789Y-74639711D01*
X164646786Y-74639707D01*
X164535292Y-74528213D01*
X164535288Y-74528210D01*
X164404185Y-74440609D01*
X164404172Y-74440602D01*
X164258501Y-74380264D01*
X164258489Y-74380261D01*
X164103845Y-74349500D01*
X164103842Y-74349500D01*
X163946158Y-74349500D01*
X163946155Y-74349500D01*
X163791510Y-74380261D01*
X163791498Y-74380264D01*
X163645827Y-74440602D01*
X163645814Y-74440609D01*
X163514711Y-74528210D01*
X163514707Y-74528213D01*
X163403213Y-74639707D01*
X163403210Y-74639711D01*
X163315609Y-74770814D01*
X163315602Y-74770827D01*
X163255264Y-74916498D01*
X163255261Y-74916508D01*
X163233644Y-75025183D01*
X163201259Y-75087094D01*
X163140543Y-75121668D01*
X163070773Y-75117927D01*
X163014101Y-75077061D01*
X162998344Y-75046601D01*
X162997068Y-75047130D01*
X162934397Y-74895827D01*
X162934390Y-74895814D01*
X162846789Y-74764711D01*
X162846786Y-74764707D01*
X162735292Y-74653213D01*
X162735288Y-74653210D01*
X162604185Y-74565609D01*
X162604172Y-74565602D01*
X162458501Y-74505264D01*
X162458489Y-74505261D01*
X162303845Y-74474500D01*
X162303842Y-74474500D01*
X162146158Y-74474500D01*
X162146155Y-74474500D01*
X161991510Y-74505261D01*
X161991498Y-74505264D01*
X161845827Y-74565602D01*
X161845814Y-74565609D01*
X161714711Y-74653210D01*
X161714707Y-74653213D01*
X161603213Y-74764707D01*
X161603210Y-74764711D01*
X161515609Y-74895814D01*
X161515602Y-74895827D01*
X161455264Y-75041498D01*
X161455261Y-75041510D01*
X161424500Y-75196153D01*
X159562111Y-75196153D01*
X159570462Y-75154172D01*
X159575500Y-75128844D01*
X159575500Y-74971155D01*
X159575499Y-74971153D01*
X159564627Y-74916498D01*
X159544737Y-74816503D01*
X159494887Y-74696153D01*
X159484397Y-74670827D01*
X159484390Y-74670814D01*
X159396789Y-74539711D01*
X159396786Y-74539707D01*
X159285292Y-74428213D01*
X159285288Y-74428210D01*
X159154185Y-74340609D01*
X159154172Y-74340602D01*
X159008501Y-74280264D01*
X159008489Y-74280261D01*
X158853845Y-74249500D01*
X158853842Y-74249500D01*
X158696158Y-74249500D01*
X158696155Y-74249500D01*
X158541510Y-74280261D01*
X158541498Y-74280264D01*
X158395827Y-74340602D01*
X158395814Y-74340609D01*
X158264711Y-74428210D01*
X158264707Y-74428213D01*
X158153213Y-74539707D01*
X158153210Y-74539711D01*
X158065609Y-74670814D01*
X158065602Y-74670827D01*
X158005264Y-74816498D01*
X158005261Y-74816510D01*
X157974500Y-74971153D01*
X152577165Y-74971153D01*
X152583189Y-74940874D01*
X152583189Y-74940873D01*
X152600499Y-74853846D01*
X152600500Y-74853844D01*
X152600500Y-74696155D01*
X152600499Y-74696153D01*
X152574531Y-74565606D01*
X152569737Y-74541503D01*
X152564231Y-74528210D01*
X152509397Y-74395827D01*
X152509390Y-74395814D01*
X152421789Y-74264711D01*
X152421786Y-74264707D01*
X152310292Y-74153213D01*
X152310288Y-74153210D01*
X152179185Y-74065609D01*
X152179172Y-74065602D01*
X152033501Y-74005264D01*
X152033489Y-74005261D01*
X151878845Y-73974500D01*
X151878842Y-73974500D01*
X151721158Y-73974500D01*
X151721155Y-73974500D01*
X151566510Y-74005261D01*
X151566498Y-74005264D01*
X151420827Y-74065602D01*
X151420814Y-74065609D01*
X151289711Y-74153210D01*
X151289707Y-74153213D01*
X151178213Y-74264707D01*
X151178210Y-74264711D01*
X151090609Y-74395814D01*
X151090602Y-74395827D01*
X151030264Y-74541498D01*
X151030261Y-74541510D01*
X150999500Y-74696153D01*
X150999500Y-74853846D01*
X151030261Y-75008489D01*
X151030264Y-75008501D01*
X151090602Y-75154172D01*
X151090609Y-75154185D01*
X151130463Y-75213830D01*
X151151341Y-75280508D01*
X151132857Y-75347888D01*
X151080878Y-75394578D01*
X151011908Y-75405754D01*
X151003172Y-75404339D01*
X150978843Y-75399500D01*
X150978842Y-75399500D01*
X150821158Y-75399500D01*
X150821155Y-75399500D01*
X150666510Y-75430261D01*
X150666498Y-75430264D01*
X150520827Y-75490602D01*
X150520814Y-75490609D01*
X150389711Y-75578210D01*
X150389707Y-75578213D01*
X150278213Y-75689707D01*
X150278210Y-75689711D01*
X150190609Y-75820814D01*
X150190602Y-75820827D01*
X150130264Y-75966498D01*
X150130261Y-75966510D01*
X150099500Y-76121153D01*
X150099500Y-76278846D01*
X150130261Y-76433489D01*
X150130264Y-76433501D01*
X150190602Y-76579172D01*
X150190609Y-76579185D01*
X150278210Y-76710288D01*
X150278213Y-76710292D01*
X150389707Y-76821786D01*
X150389711Y-76821789D01*
X150520814Y-76909390D01*
X150520827Y-76909397D01*
X150591656Y-76938735D01*
X150646060Y-76982576D01*
X150668125Y-77048870D01*
X150650846Y-77116569D01*
X150599709Y-77164180D01*
X150568396Y-77174913D01*
X150541508Y-77180261D01*
X150541498Y-77180264D01*
X150395827Y-77240602D01*
X150395814Y-77240609D01*
X150264711Y-77328210D01*
X150264707Y-77328213D01*
X150153213Y-77439707D01*
X150153210Y-77439711D01*
X150065609Y-77570814D01*
X150065602Y-77570827D01*
X150005264Y-77716498D01*
X150005261Y-77716510D01*
X149974500Y-77871153D01*
X127650500Y-77871153D01*
X127650500Y-71871153D01*
X143599500Y-71871153D01*
X143599500Y-72028846D01*
X143630261Y-72183489D01*
X143630264Y-72183501D01*
X143690602Y-72329172D01*
X143690609Y-72329185D01*
X143778210Y-72460288D01*
X143778213Y-72460292D01*
X143889707Y-72571786D01*
X143889711Y-72571789D01*
X144020814Y-72659390D01*
X144020827Y-72659397D01*
X144166498Y-72719735D01*
X144166503Y-72719737D01*
X144321153Y-72750499D01*
X144321156Y-72750500D01*
X144321158Y-72750500D01*
X144478844Y-72750500D01*
X144478845Y-72750499D01*
X144633497Y-72719737D01*
X144779179Y-72659394D01*
X144910289Y-72571789D01*
X145021789Y-72460289D01*
X145109394Y-72329179D01*
X145169737Y-72183497D01*
X145200500Y-72028842D01*
X145200500Y-71871158D01*
X145200500Y-71871155D01*
X145200499Y-71871153D01*
X145177165Y-71753846D01*
X145169737Y-71716503D01*
X145119887Y-71596153D01*
X151299500Y-71596153D01*
X151299500Y-71753846D01*
X151330261Y-71908489D01*
X151330264Y-71908501D01*
X151390602Y-72054172D01*
X151390609Y-72054185D01*
X151478210Y-72185288D01*
X151478213Y-72185292D01*
X151589707Y-72296786D01*
X151589711Y-72296789D01*
X151720814Y-72384390D01*
X151720827Y-72384397D01*
X151866498Y-72444735D01*
X151866503Y-72444737D01*
X152021153Y-72475499D01*
X152021156Y-72475500D01*
X152021158Y-72475500D01*
X152178844Y-72475500D01*
X152178845Y-72475499D01*
X152333497Y-72444737D01*
X152479179Y-72384394D01*
X152610289Y-72296789D01*
X152721789Y-72185289D01*
X152809394Y-72054179D01*
X152869737Y-71908497D01*
X152900500Y-71753842D01*
X152900500Y-71596158D01*
X152900500Y-71596155D01*
X152900499Y-71596153D01*
X152869738Y-71441510D01*
X152869737Y-71441503D01*
X152868993Y-71439707D01*
X152809397Y-71295827D01*
X152809390Y-71295814D01*
X152721789Y-71164711D01*
X152721786Y-71164707D01*
X152610292Y-71053213D01*
X152610288Y-71053210D01*
X152479185Y-70965609D01*
X152479172Y-70965602D01*
X152333501Y-70905264D01*
X152333489Y-70905261D01*
X152178845Y-70874500D01*
X152178842Y-70874500D01*
X152021158Y-70874500D01*
X152021155Y-70874500D01*
X151866510Y-70905261D01*
X151866498Y-70905264D01*
X151720827Y-70965602D01*
X151720814Y-70965609D01*
X151589711Y-71053210D01*
X151589707Y-71053213D01*
X151478213Y-71164707D01*
X151478210Y-71164711D01*
X151390609Y-71295814D01*
X151390602Y-71295827D01*
X151330264Y-71441498D01*
X151330261Y-71441510D01*
X151299500Y-71596153D01*
X145119887Y-71596153D01*
X145109397Y-71570827D01*
X145109390Y-71570814D01*
X145021789Y-71439711D01*
X145021786Y-71439707D01*
X144910292Y-71328213D01*
X144910288Y-71328210D01*
X144779185Y-71240609D01*
X144779172Y-71240602D01*
X144633501Y-71180264D01*
X144633489Y-71180261D01*
X144478845Y-71149500D01*
X144478842Y-71149500D01*
X144321158Y-71149500D01*
X144321155Y-71149500D01*
X144166510Y-71180261D01*
X144166498Y-71180264D01*
X144020827Y-71240602D01*
X144020814Y-71240609D01*
X143889711Y-71328210D01*
X143889707Y-71328213D01*
X143778213Y-71439707D01*
X143778210Y-71439711D01*
X143690609Y-71570814D01*
X143690602Y-71570827D01*
X143630264Y-71716498D01*
X143630261Y-71716510D01*
X143599500Y-71871153D01*
X127650500Y-71871153D01*
X127650500Y-69046153D01*
X148574500Y-69046153D01*
X148574500Y-69203846D01*
X148605261Y-69358489D01*
X148605264Y-69358501D01*
X148665602Y-69504172D01*
X148665609Y-69504185D01*
X148753210Y-69635288D01*
X148753213Y-69635292D01*
X148864707Y-69746786D01*
X148864711Y-69746789D01*
X148995814Y-69834390D01*
X148995827Y-69834397D01*
X149141498Y-69894735D01*
X149141503Y-69894737D01*
X149277487Y-69921786D01*
X149296153Y-69925499D01*
X149296156Y-69925500D01*
X149296158Y-69925500D01*
X149453844Y-69925500D01*
X149453845Y-69925499D01*
X149608497Y-69894737D01*
X149754179Y-69834394D01*
X149885289Y-69746789D01*
X149996789Y-69635289D01*
X150084394Y-69504179D01*
X150144737Y-69358497D01*
X150172056Y-69221158D01*
X150172057Y-69221153D01*
X151324500Y-69221153D01*
X151324500Y-69378846D01*
X151355261Y-69533489D01*
X151355264Y-69533501D01*
X151415602Y-69679172D01*
X151415609Y-69679185D01*
X151503210Y-69810288D01*
X151503213Y-69810292D01*
X151614707Y-69921786D01*
X151614711Y-69921789D01*
X151745814Y-70009390D01*
X151745827Y-70009397D01*
X151891498Y-70069735D01*
X151891503Y-70069737D01*
X152046153Y-70100499D01*
X152046156Y-70100500D01*
X152046158Y-70100500D01*
X152203844Y-70100500D01*
X152203845Y-70100499D01*
X152358497Y-70069737D01*
X152504179Y-70009394D01*
X152635289Y-69921789D01*
X152746789Y-69810289D01*
X152834394Y-69679179D01*
X152894737Y-69533497D01*
X152925500Y-69378842D01*
X152925500Y-69221158D01*
X152925500Y-69221155D01*
X152925499Y-69221153D01*
X152894738Y-69066510D01*
X152894737Y-69066503D01*
X152886308Y-69046153D01*
X152834397Y-68920827D01*
X152834390Y-68920814D01*
X152746789Y-68789711D01*
X152746786Y-68789707D01*
X152635292Y-68678213D01*
X152635288Y-68678210D01*
X152605293Y-68658168D01*
X152504185Y-68590609D01*
X152504172Y-68590602D01*
X152433075Y-68561153D01*
X202909500Y-68561153D01*
X202909500Y-68718846D01*
X202940261Y-68873489D01*
X202940264Y-68873501D01*
X203000602Y-69019172D01*
X203000609Y-69019185D01*
X203088210Y-69150288D01*
X203088213Y-69150292D01*
X203199707Y-69261786D01*
X203199711Y-69261789D01*
X203330814Y-69349390D01*
X203330827Y-69349397D01*
X203476498Y-69409735D01*
X203476503Y-69409737D01*
X203631153Y-69440499D01*
X203631156Y-69440500D01*
X203631158Y-69440500D01*
X203788844Y-69440500D01*
X203788845Y-69440499D01*
X203943497Y-69409737D01*
X204089179Y-69349394D01*
X204220289Y-69261789D01*
X204331789Y-69150289D01*
X204419394Y-69019179D01*
X204479737Y-68873497D01*
X204510500Y-68718842D01*
X204510500Y-68561158D01*
X204510500Y-68561155D01*
X204510499Y-68561153D01*
X204504355Y-68530264D01*
X204479737Y-68406503D01*
X204479735Y-68406498D01*
X204419397Y-68260827D01*
X204419390Y-68260814D01*
X204331789Y-68129711D01*
X204331786Y-68129707D01*
X204220292Y-68018213D01*
X204220288Y-68018210D01*
X204089185Y-67930609D01*
X204089172Y-67930602D01*
X203943501Y-67870264D01*
X203943489Y-67870261D01*
X203788845Y-67839500D01*
X203788842Y-67839500D01*
X203631158Y-67839500D01*
X203631155Y-67839500D01*
X203476510Y-67870261D01*
X203476498Y-67870264D01*
X203330827Y-67930602D01*
X203330814Y-67930609D01*
X203199711Y-68018210D01*
X203199707Y-68018213D01*
X203088213Y-68129707D01*
X203088210Y-68129711D01*
X203000609Y-68260814D01*
X203000602Y-68260827D01*
X202940264Y-68406498D01*
X202940261Y-68406510D01*
X202909500Y-68561153D01*
X152433075Y-68561153D01*
X152358501Y-68530264D01*
X152358489Y-68530261D01*
X152203845Y-68499500D01*
X152203842Y-68499500D01*
X152046158Y-68499500D01*
X152046155Y-68499500D01*
X151891510Y-68530261D01*
X151891498Y-68530264D01*
X151745827Y-68590602D01*
X151745814Y-68590609D01*
X151614711Y-68678210D01*
X151614707Y-68678213D01*
X151503213Y-68789707D01*
X151503210Y-68789711D01*
X151415609Y-68920814D01*
X151415602Y-68920827D01*
X151355264Y-69066498D01*
X151355261Y-69066510D01*
X151324500Y-69221153D01*
X150172057Y-69221153D01*
X150175500Y-69203845D01*
X150175500Y-69046155D01*
X150175499Y-69046153D01*
X150170135Y-69019185D01*
X150144737Y-68891503D01*
X150144735Y-68891498D01*
X150084397Y-68745827D01*
X150084390Y-68745814D01*
X149996789Y-68614711D01*
X149996786Y-68614707D01*
X149885292Y-68503213D01*
X149885288Y-68503210D01*
X149754185Y-68415609D01*
X149754172Y-68415602D01*
X149608501Y-68355264D01*
X149608489Y-68355261D01*
X149453845Y-68324500D01*
X149453842Y-68324500D01*
X149296158Y-68324500D01*
X149296155Y-68324500D01*
X149141510Y-68355261D01*
X149141498Y-68355264D01*
X148995827Y-68415602D01*
X148995814Y-68415609D01*
X148864711Y-68503210D01*
X148864707Y-68503213D01*
X148753213Y-68614707D01*
X148753210Y-68614711D01*
X148665609Y-68745814D01*
X148665602Y-68745827D01*
X148605264Y-68891498D01*
X148605261Y-68891510D01*
X148574500Y-69046153D01*
X127650500Y-69046153D01*
X127650500Y-65021153D01*
X148649500Y-65021153D01*
X148649500Y-65178846D01*
X148680261Y-65333489D01*
X148680264Y-65333501D01*
X148740602Y-65479172D01*
X148740609Y-65479185D01*
X148828210Y-65610288D01*
X148828213Y-65610292D01*
X148939707Y-65721786D01*
X148939711Y-65721789D01*
X149070814Y-65809390D01*
X149070827Y-65809397D01*
X149201916Y-65863695D01*
X149216503Y-65869737D01*
X149371153Y-65900499D01*
X149371156Y-65900500D01*
X149371158Y-65900500D01*
X149528844Y-65900500D01*
X149528845Y-65900499D01*
X149683497Y-65869737D01*
X149829179Y-65809394D01*
X149960289Y-65721789D01*
X150071789Y-65610289D01*
X150159394Y-65479179D01*
X150219737Y-65333497D01*
X150250500Y-65178842D01*
X150250500Y-65021158D01*
X150250500Y-65021155D01*
X150250499Y-65021153D01*
X150243996Y-64988459D01*
X150219737Y-64866503D01*
X150196016Y-64809234D01*
X205124500Y-64809234D01*
X205124500Y-64960766D01*
X205140681Y-65021155D01*
X205163719Y-65107136D01*
X205201602Y-65172750D01*
X205239485Y-65238365D01*
X205346635Y-65345515D01*
X205477865Y-65421281D01*
X205624234Y-65460500D01*
X205639144Y-65460500D01*
X205706183Y-65480185D01*
X205751938Y-65532989D01*
X205760761Y-65560308D01*
X205784104Y-65677659D01*
X205784106Y-65677667D01*
X205851983Y-65841540D01*
X205851990Y-65841553D01*
X205950535Y-65989034D01*
X205950538Y-65989038D01*
X206075961Y-66114461D01*
X206075965Y-66114464D01*
X206223446Y-66213009D01*
X206223459Y-66213016D01*
X206339788Y-66261200D01*
X206387334Y-66280894D01*
X206387336Y-66280894D01*
X206387341Y-66280896D01*
X206561304Y-66315499D01*
X206561307Y-66315500D01*
X206561309Y-66315500D01*
X207338693Y-66315500D01*
X207338694Y-66315499D01*
X207396682Y-66303964D01*
X207512658Y-66280896D01*
X207512661Y-66280894D01*
X207512666Y-66280894D01*
X207676547Y-66213013D01*
X207824035Y-66114464D01*
X207949464Y-65989035D01*
X208048013Y-65841547D01*
X208115894Y-65677666D01*
X208115894Y-65677661D01*
X208115896Y-65677658D01*
X208150499Y-65503695D01*
X208150500Y-65503693D01*
X208150500Y-65326306D01*
X208150499Y-65326304D01*
X208115896Y-65152341D01*
X208115893Y-65152332D01*
X208048016Y-64988459D01*
X208048009Y-64988446D01*
X207949464Y-64840965D01*
X207949461Y-64840961D01*
X207824038Y-64715538D01*
X207824034Y-64715535D01*
X207676553Y-64616990D01*
X207676540Y-64616983D01*
X207512667Y-64549106D01*
X207512658Y-64549103D01*
X207338694Y-64514500D01*
X207338691Y-64514500D01*
X206561309Y-64514500D01*
X206561306Y-64514500D01*
X206387341Y-64549103D01*
X206387337Y-64549105D01*
X206387335Y-64549105D01*
X206387334Y-64549106D01*
X206370374Y-64556131D01*
X206312895Y-64579939D01*
X206243426Y-64587406D01*
X206180947Y-64556131D01*
X206166158Y-64537553D01*
X206165465Y-64538086D01*
X206160513Y-64531633D01*
X206053367Y-64424487D01*
X206053365Y-64424485D01*
X205987750Y-64386602D01*
X205922136Y-64348719D01*
X205848950Y-64329109D01*
X205775766Y-64309500D01*
X205624234Y-64309500D01*
X205477863Y-64348719D01*
X205346635Y-64424485D01*
X205346632Y-64424487D01*
X205239487Y-64531632D01*
X205239485Y-64531635D01*
X205163719Y-64662863D01*
X205148190Y-64720821D01*
X205124500Y-64809234D01*
X150196016Y-64809234D01*
X150159397Y-64720827D01*
X150159390Y-64720814D01*
X150071789Y-64589711D01*
X150071786Y-64589707D01*
X149960292Y-64478213D01*
X149960288Y-64478210D01*
X149829185Y-64390609D01*
X149829172Y-64390602D01*
X149683501Y-64330264D01*
X149683489Y-64330261D01*
X149528845Y-64299500D01*
X149528842Y-64299500D01*
X149371158Y-64299500D01*
X149371155Y-64299500D01*
X149216510Y-64330261D01*
X149216498Y-64330264D01*
X149070827Y-64390602D01*
X149070814Y-64390609D01*
X148939711Y-64478210D01*
X148939707Y-64478213D01*
X148828213Y-64589707D01*
X148828210Y-64589711D01*
X148740609Y-64720814D01*
X148740602Y-64720827D01*
X148680264Y-64866498D01*
X148680261Y-64866510D01*
X148649500Y-65021153D01*
X127650500Y-65021153D01*
X127650500Y-62293995D01*
X128694499Y-62293995D01*
X128721418Y-62429322D01*
X128721421Y-62429332D01*
X128774221Y-62556804D01*
X128774228Y-62556817D01*
X128850885Y-62671541D01*
X128850888Y-62671545D01*
X128948454Y-62769111D01*
X128948458Y-62769114D01*
X129063182Y-62845771D01*
X129063195Y-62845778D01*
X129190667Y-62898578D01*
X129190672Y-62898580D01*
X129190676Y-62898580D01*
X129190677Y-62898581D01*
X129326004Y-62925500D01*
X129326007Y-62925500D01*
X129463995Y-62925500D01*
X129555041Y-62907389D01*
X129599328Y-62898580D01*
X129697924Y-62857740D01*
X129726804Y-62845778D01*
X129726804Y-62845777D01*
X129726811Y-62845775D01*
X129841542Y-62769114D01*
X129939114Y-62671542D01*
X129989487Y-62596153D01*
X162774500Y-62596153D01*
X162774500Y-62753846D01*
X162805261Y-62908489D01*
X162805264Y-62908501D01*
X162865602Y-63054172D01*
X162865609Y-63054185D01*
X162953210Y-63185288D01*
X162953213Y-63185292D01*
X163064707Y-63296786D01*
X163064711Y-63296789D01*
X163195814Y-63384390D01*
X163195827Y-63384397D01*
X163341498Y-63444735D01*
X163341503Y-63444737D01*
X163496153Y-63475499D01*
X163496156Y-63475500D01*
X163496158Y-63475500D01*
X163653844Y-63475500D01*
X163653845Y-63475499D01*
X163808497Y-63444737D01*
X163926592Y-63395821D01*
X163954172Y-63384397D01*
X163954172Y-63384396D01*
X163954179Y-63384394D01*
X164085289Y-63296789D01*
X164196789Y-63185289D01*
X164284394Y-63054179D01*
X164344737Y-62908497D01*
X164375500Y-62753842D01*
X164375500Y-62596158D01*
X164375500Y-62596155D01*
X164350258Y-62469258D01*
X164350258Y-62469257D01*
X164347474Y-62455261D01*
X164346657Y-62451153D01*
X169479500Y-62451153D01*
X169479500Y-62608846D01*
X169510261Y-62763489D01*
X169510264Y-62763501D01*
X169570602Y-62909172D01*
X169570609Y-62909185D01*
X169658210Y-63040288D01*
X169658213Y-63040292D01*
X169769707Y-63151786D01*
X169769711Y-63151789D01*
X169900814Y-63239390D01*
X169900827Y-63239397D01*
X170039386Y-63296789D01*
X170046503Y-63299737D01*
X170201153Y-63330499D01*
X170201156Y-63330500D01*
X170201158Y-63330500D01*
X170358844Y-63330500D01*
X170358845Y-63330499D01*
X170513497Y-63299737D01*
X170659179Y-63239394D01*
X170790289Y-63151789D01*
X170795925Y-63146153D01*
X201949500Y-63146153D01*
X201949500Y-63303846D01*
X201980261Y-63458489D01*
X201980264Y-63458501D01*
X202040602Y-63604172D01*
X202040609Y-63604185D01*
X202128210Y-63735288D01*
X202128213Y-63735292D01*
X202239707Y-63846786D01*
X202239711Y-63846789D01*
X202370814Y-63934390D01*
X202370827Y-63934397D01*
X202516498Y-63994735D01*
X202516503Y-63994737D01*
X202671153Y-64025499D01*
X202671156Y-64025500D01*
X202671158Y-64025500D01*
X202828844Y-64025500D01*
X202828845Y-64025499D01*
X202983497Y-63994737D01*
X203129179Y-63934394D01*
X203260289Y-63846789D01*
X203371789Y-63735289D01*
X203397939Y-63696153D01*
X207624500Y-63696153D01*
X207624500Y-63853846D01*
X207655261Y-64008489D01*
X207655264Y-64008501D01*
X207715602Y-64154172D01*
X207715609Y-64154185D01*
X207803210Y-64285288D01*
X207803213Y-64285292D01*
X207914707Y-64396786D01*
X207914711Y-64396789D01*
X208045814Y-64484390D01*
X208045827Y-64484397D01*
X208174159Y-64537553D01*
X208191503Y-64544737D01*
X208346153Y-64575499D01*
X208346156Y-64575500D01*
X208346158Y-64575500D01*
X208503844Y-64575500D01*
X208503845Y-64575499D01*
X208658497Y-64544737D01*
X208804179Y-64484394D01*
X208935289Y-64396789D01*
X209046789Y-64285289D01*
X209134394Y-64154179D01*
X209194737Y-64008497D01*
X209225500Y-63853842D01*
X209225500Y-63696158D01*
X209225500Y-63696155D01*
X209225499Y-63696153D01*
X209210585Y-63621175D01*
X209194737Y-63541503D01*
X209167398Y-63475500D01*
X209134397Y-63395827D01*
X209134390Y-63395814D01*
X209046789Y-63264711D01*
X209046786Y-63264707D01*
X208935292Y-63153213D01*
X208935288Y-63153210D01*
X208804185Y-63065609D01*
X208804172Y-63065602D01*
X208658501Y-63005264D01*
X208658489Y-63005261D01*
X208503845Y-62974500D01*
X208503842Y-62974500D01*
X208346158Y-62974500D01*
X208346155Y-62974500D01*
X208191510Y-63005261D01*
X208191498Y-63005264D01*
X208045827Y-63065602D01*
X208045814Y-63065609D01*
X207914711Y-63153210D01*
X207914707Y-63153213D01*
X207803213Y-63264707D01*
X207803210Y-63264711D01*
X207715609Y-63395814D01*
X207715602Y-63395827D01*
X207655264Y-63541498D01*
X207655261Y-63541510D01*
X207624500Y-63696153D01*
X203397939Y-63696153D01*
X203459394Y-63604179D01*
X203519737Y-63458497D01*
X203550500Y-63303842D01*
X203550500Y-63146158D01*
X203550500Y-63146155D01*
X203550499Y-63146153D01*
X203519737Y-62991503D01*
X203481248Y-62898581D01*
X203459397Y-62845827D01*
X203459390Y-62845814D01*
X203371789Y-62714711D01*
X203371786Y-62714707D01*
X203260292Y-62603213D01*
X203260288Y-62603210D01*
X203129185Y-62515609D01*
X203129172Y-62515602D01*
X202983501Y-62455264D01*
X202983489Y-62455261D01*
X202828845Y-62424500D01*
X202828842Y-62424500D01*
X202671158Y-62424500D01*
X202671155Y-62424500D01*
X202516510Y-62455261D01*
X202516498Y-62455264D01*
X202370827Y-62515602D01*
X202370814Y-62515609D01*
X202239711Y-62603210D01*
X202239707Y-62603213D01*
X202128213Y-62714707D01*
X202128210Y-62714711D01*
X202040609Y-62845814D01*
X202040602Y-62845827D01*
X201980264Y-62991498D01*
X201980261Y-62991510D01*
X201949500Y-63146153D01*
X170795925Y-63146153D01*
X170889694Y-63052385D01*
X170901786Y-63040292D01*
X170901789Y-63040289D01*
X170989394Y-62909179D01*
X170989677Y-62908497D01*
X171015635Y-62845827D01*
X171049737Y-62763497D01*
X171080500Y-62608842D01*
X171080500Y-62451158D01*
X171080500Y-62451155D01*
X171080499Y-62451153D01*
X171078578Y-62441498D01*
X171049737Y-62296503D01*
X171034737Y-62260289D01*
X170989397Y-62150827D01*
X170989390Y-62150814D01*
X170901789Y-62019711D01*
X170901786Y-62019707D01*
X170790292Y-61908213D01*
X170790288Y-61908210D01*
X170659185Y-61820609D01*
X170659172Y-61820602D01*
X170513501Y-61760264D01*
X170513489Y-61760261D01*
X170358845Y-61729500D01*
X170358842Y-61729500D01*
X170201158Y-61729500D01*
X170201155Y-61729500D01*
X170046510Y-61760261D01*
X170046498Y-61760264D01*
X169900827Y-61820602D01*
X169900814Y-61820609D01*
X169769711Y-61908210D01*
X169769707Y-61908213D01*
X169658213Y-62019707D01*
X169658210Y-62019711D01*
X169570609Y-62150814D01*
X169570602Y-62150827D01*
X169510264Y-62296498D01*
X169510261Y-62296510D01*
X169479500Y-62451153D01*
X164346657Y-62451153D01*
X164344737Y-62441503D01*
X164320712Y-62383501D01*
X164284397Y-62295827D01*
X164284390Y-62295814D01*
X164196789Y-62164711D01*
X164196786Y-62164707D01*
X164085292Y-62053213D01*
X164085288Y-62053210D01*
X163954185Y-61965609D01*
X163954172Y-61965602D01*
X163808501Y-61905264D01*
X163808489Y-61905261D01*
X163653845Y-61874500D01*
X163653842Y-61874500D01*
X163496158Y-61874500D01*
X163496155Y-61874500D01*
X163341510Y-61905261D01*
X163341498Y-61905264D01*
X163195827Y-61965602D01*
X163195814Y-61965609D01*
X163064711Y-62053210D01*
X163064707Y-62053213D01*
X162953213Y-62164707D01*
X162953210Y-62164711D01*
X162865609Y-62295814D01*
X162865602Y-62295827D01*
X162805264Y-62441498D01*
X162805261Y-62441510D01*
X162774500Y-62596153D01*
X129989487Y-62596153D01*
X130015775Y-62556811D01*
X130015776Y-62556808D01*
X130015778Y-62556805D01*
X130021656Y-62542614D01*
X130047777Y-62479549D01*
X130068580Y-62429328D01*
X130080026Y-62371786D01*
X130095500Y-62293995D01*
X130095500Y-62156004D01*
X130068581Y-62020677D01*
X130068580Y-62020676D01*
X130068580Y-62020672D01*
X130068180Y-62019707D01*
X130015778Y-61893195D01*
X130015771Y-61893182D01*
X129939114Y-61778458D01*
X129939111Y-61778454D01*
X129841545Y-61680888D01*
X129841541Y-61680885D01*
X129726817Y-61604228D01*
X129726804Y-61604221D01*
X129599332Y-61551421D01*
X129599322Y-61551418D01*
X129463995Y-61524500D01*
X129463993Y-61524500D01*
X129326007Y-61524500D01*
X129326005Y-61524500D01*
X129190677Y-61551418D01*
X129190667Y-61551421D01*
X129063195Y-61604221D01*
X129063182Y-61604228D01*
X128948458Y-61680885D01*
X128948454Y-61680888D01*
X128850888Y-61778454D01*
X128850885Y-61778458D01*
X128774228Y-61893182D01*
X128774221Y-61893195D01*
X128721421Y-62020667D01*
X128721418Y-62020677D01*
X128694500Y-62156004D01*
X128694500Y-62156007D01*
X128694500Y-62293993D01*
X128694500Y-62293995D01*
X128694499Y-62293995D01*
X127650500Y-62293995D01*
X127650500Y-59946153D01*
X153749500Y-59946153D01*
X153749500Y-60103846D01*
X153780261Y-60258489D01*
X153780264Y-60258501D01*
X153840602Y-60404172D01*
X153840609Y-60404185D01*
X153928210Y-60535288D01*
X153928213Y-60535292D01*
X154039707Y-60646786D01*
X154039711Y-60646789D01*
X154170814Y-60734390D01*
X154170827Y-60734397D01*
X154304934Y-60789945D01*
X154316503Y-60794737D01*
X154439798Y-60819262D01*
X154471153Y-60825499D01*
X154471156Y-60825500D01*
X154471158Y-60825500D01*
X154628844Y-60825500D01*
X154628845Y-60825499D01*
X154783497Y-60794737D01*
X154929179Y-60734394D01*
X155060289Y-60646789D01*
X155171789Y-60535289D01*
X155259394Y-60404179D01*
X155319737Y-60258497D01*
X155350500Y-60103842D01*
X155350500Y-60071153D01*
X162624500Y-60071153D01*
X162624500Y-60228846D01*
X162655261Y-60383489D01*
X162655264Y-60383501D01*
X162715602Y-60529172D01*
X162715609Y-60529185D01*
X162803210Y-60660288D01*
X162803213Y-60660292D01*
X162914707Y-60771786D01*
X162914711Y-60771789D01*
X163045814Y-60859390D01*
X163045827Y-60859397D01*
X163179359Y-60914707D01*
X163191503Y-60919737D01*
X163319202Y-60945138D01*
X163346153Y-60950499D01*
X163346156Y-60950500D01*
X163450162Y-60950500D01*
X163517201Y-60970185D01*
X163562956Y-61022989D01*
X163564715Y-61027029D01*
X163565606Y-61029179D01*
X163565607Y-61029180D01*
X163565609Y-61029185D01*
X163653210Y-61160288D01*
X163653213Y-61160292D01*
X163764707Y-61271786D01*
X163764711Y-61271789D01*
X163895814Y-61359390D01*
X163895827Y-61359397D01*
X164041498Y-61419735D01*
X164041503Y-61419737D01*
X164146418Y-61440606D01*
X164196153Y-61450499D01*
X164196156Y-61450500D01*
X164196158Y-61450500D01*
X164353844Y-61450500D01*
X164353845Y-61450499D01*
X164508497Y-61419737D01*
X164626592Y-61370821D01*
X164654172Y-61359397D01*
X164654172Y-61359396D01*
X164654179Y-61359394D01*
X164673996Y-61346153D01*
X179674500Y-61346153D01*
X179674500Y-61503846D01*
X179705261Y-61658489D01*
X179705264Y-61658501D01*
X179765602Y-61804172D01*
X179765609Y-61804185D01*
X179853210Y-61935288D01*
X179853213Y-61935292D01*
X179964707Y-62046786D01*
X179964711Y-62046789D01*
X180095814Y-62134390D01*
X180095827Y-62134397D01*
X180169013Y-62164711D01*
X180241503Y-62194737D01*
X180396153Y-62225499D01*
X180396156Y-62225500D01*
X180396158Y-62225500D01*
X180553844Y-62225500D01*
X180553845Y-62225499D01*
X180708497Y-62194737D01*
X180854179Y-62134394D01*
X180948826Y-62071153D01*
X205009500Y-62071153D01*
X205009500Y-62228846D01*
X205040261Y-62383489D01*
X205040264Y-62383501D01*
X205100602Y-62529172D01*
X205100609Y-62529185D01*
X205188210Y-62660288D01*
X205188213Y-62660292D01*
X205299707Y-62771786D01*
X205299711Y-62771789D01*
X205430814Y-62859390D01*
X205430827Y-62859397D01*
X205551028Y-62909185D01*
X205576503Y-62919737D01*
X205731153Y-62950499D01*
X205731156Y-62950500D01*
X205731158Y-62950500D01*
X205888844Y-62950500D01*
X205888845Y-62950499D01*
X206043497Y-62919737D01*
X206189179Y-62859394D01*
X206320289Y-62771789D01*
X206431789Y-62660289D01*
X206519394Y-62529179D01*
X206579737Y-62383497D01*
X206610500Y-62228842D01*
X206610500Y-62071158D01*
X206610500Y-62071155D01*
X206610499Y-62071153D01*
X206583474Y-61935292D01*
X206579737Y-61916503D01*
X206575081Y-61905263D01*
X206519397Y-61770827D01*
X206519390Y-61770814D01*
X206431789Y-61639711D01*
X206431786Y-61639707D01*
X206320292Y-61528213D01*
X206320288Y-61528210D01*
X206290296Y-61508170D01*
X206245491Y-61454558D01*
X206236784Y-61385233D01*
X206266938Y-61322206D01*
X206290296Y-61301966D01*
X206335463Y-61271786D01*
X206410289Y-61221789D01*
X206521789Y-61110289D01*
X206609394Y-60979179D01*
X206669737Y-60833497D01*
X206700500Y-60678842D01*
X206700500Y-60521158D01*
X206700500Y-60521155D01*
X206676531Y-60400660D01*
X206669737Y-60366503D01*
X206630102Y-60270814D01*
X206609397Y-60220827D01*
X206609390Y-60220814D01*
X206521789Y-60089711D01*
X206521786Y-60089707D01*
X206428232Y-59996153D01*
X206874500Y-59996153D01*
X206874500Y-60153846D01*
X206897517Y-60269563D01*
X206897520Y-60269571D01*
X206905263Y-60308497D01*
X206965606Y-60454179D01*
X206966366Y-60455316D01*
X206966367Y-60455319D01*
X207053210Y-60585288D01*
X207053213Y-60585292D01*
X207164707Y-60696786D01*
X207164711Y-60696789D01*
X207295814Y-60784390D01*
X207295827Y-60784397D01*
X207380000Y-60819262D01*
X207434404Y-60863102D01*
X207456469Y-60929396D01*
X207439190Y-60997096D01*
X207399470Y-61035103D01*
X207400886Y-61037221D01*
X207264711Y-61128210D01*
X207264707Y-61128213D01*
X207153213Y-61239707D01*
X207153210Y-61239711D01*
X207065609Y-61370814D01*
X207065602Y-61370827D01*
X207005264Y-61516498D01*
X207005261Y-61516510D01*
X206974500Y-61671153D01*
X206974500Y-61828846D01*
X207005261Y-61983489D01*
X207005264Y-61983501D01*
X207065602Y-62129172D01*
X207065609Y-62129185D01*
X207153210Y-62260288D01*
X207153213Y-62260292D01*
X207264707Y-62371786D01*
X207264711Y-62371789D01*
X207395814Y-62459390D01*
X207395827Y-62459397D01*
X207531520Y-62515602D01*
X207541503Y-62519737D01*
X207656513Y-62542614D01*
X207696153Y-62550499D01*
X207696156Y-62550500D01*
X207696158Y-62550500D01*
X207853844Y-62550500D01*
X207853845Y-62550499D01*
X208008497Y-62519737D01*
X208154179Y-62459394D01*
X208285289Y-62371789D01*
X208396789Y-62260289D01*
X208484394Y-62129179D01*
X208544737Y-61983497D01*
X208575500Y-61828842D01*
X208575500Y-61671158D01*
X208575500Y-61671155D01*
X208575499Y-61671153D01*
X208562185Y-61604221D01*
X208544737Y-61516503D01*
X208517398Y-61450500D01*
X208484397Y-61370827D01*
X208484390Y-61370814D01*
X208396789Y-61239711D01*
X208396786Y-61239707D01*
X208285292Y-61128213D01*
X208285288Y-61128210D01*
X208154185Y-61040609D01*
X208154176Y-61040604D01*
X208069998Y-61005737D01*
X208015595Y-60961896D01*
X207993530Y-60895602D01*
X208010809Y-60827903D01*
X208050561Y-60789945D01*
X208049114Y-60787779D01*
X208150943Y-60719738D01*
X208185289Y-60696789D01*
X208296789Y-60585289D01*
X208384394Y-60454179D01*
X208444737Y-60308497D01*
X208475500Y-60153842D01*
X208475500Y-59996158D01*
X208475500Y-59996155D01*
X208475499Y-59996153D01*
X208465553Y-59946153D01*
X208444737Y-59841503D01*
X208440081Y-59830263D01*
X208384397Y-59695827D01*
X208384390Y-59695814D01*
X208296789Y-59564711D01*
X208296786Y-59564707D01*
X208185292Y-59453213D01*
X208185288Y-59453210D01*
X208054185Y-59365609D01*
X208054172Y-59365602D01*
X207908501Y-59305264D01*
X207908489Y-59305261D01*
X207753845Y-59274500D01*
X207753842Y-59274500D01*
X207596158Y-59274500D01*
X207596155Y-59274500D01*
X207441510Y-59305261D01*
X207441498Y-59305264D01*
X207295827Y-59365602D01*
X207295814Y-59365609D01*
X207164711Y-59453210D01*
X207164707Y-59453213D01*
X207053213Y-59564707D01*
X207053210Y-59564711D01*
X206965609Y-59695814D01*
X206965602Y-59695827D01*
X206905264Y-59841498D01*
X206905261Y-59841510D01*
X206874500Y-59996153D01*
X206428232Y-59996153D01*
X206410292Y-59978213D01*
X206410288Y-59978210D01*
X206279185Y-59890609D01*
X206279172Y-59890602D01*
X206133501Y-59830264D01*
X206133489Y-59830261D01*
X205978845Y-59799500D01*
X205978842Y-59799500D01*
X205821158Y-59799500D01*
X205821155Y-59799500D01*
X205666510Y-59830261D01*
X205666498Y-59830264D01*
X205520827Y-59890602D01*
X205520814Y-59890609D01*
X205389711Y-59978210D01*
X205389707Y-59978213D01*
X205278213Y-60089707D01*
X205278210Y-60089711D01*
X205190609Y-60220814D01*
X205190602Y-60220827D01*
X205130264Y-60366498D01*
X205130261Y-60366510D01*
X205099500Y-60521153D01*
X205099500Y-60678846D01*
X205130261Y-60833489D01*
X205130264Y-60833501D01*
X205190602Y-60979172D01*
X205190609Y-60979185D01*
X205278210Y-61110288D01*
X205278213Y-61110292D01*
X205389708Y-61221787D01*
X205389711Y-61221789D01*
X205419702Y-61241828D01*
X205464507Y-61295440D01*
X205473215Y-61364765D01*
X205443061Y-61427793D01*
X205419704Y-61448033D01*
X205299707Y-61528213D01*
X205188213Y-61639707D01*
X205188210Y-61639711D01*
X205100609Y-61770814D01*
X205100602Y-61770827D01*
X205040264Y-61916498D01*
X205040261Y-61916510D01*
X205009500Y-62071153D01*
X180948826Y-62071153D01*
X180985289Y-62046789D01*
X181012371Y-62019707D01*
X181054694Y-61977385D01*
X181096786Y-61935292D01*
X181096789Y-61935289D01*
X181184394Y-61804179D01*
X181244737Y-61658497D01*
X181275500Y-61503842D01*
X181275500Y-61346158D01*
X181275500Y-61346155D01*
X181275499Y-61346153D01*
X181268187Y-61309394D01*
X181244737Y-61191503D01*
X181231808Y-61160289D01*
X181184397Y-61045827D01*
X181184390Y-61045814D01*
X181096789Y-60914711D01*
X181096786Y-60914707D01*
X180985292Y-60803213D01*
X180985288Y-60803210D01*
X180854185Y-60715609D01*
X180854172Y-60715602D01*
X180708501Y-60655264D01*
X180708489Y-60655261D01*
X180553845Y-60624500D01*
X180553842Y-60624500D01*
X180396158Y-60624500D01*
X180396155Y-60624500D01*
X180241510Y-60655261D01*
X180241498Y-60655264D01*
X180095827Y-60715602D01*
X180095814Y-60715609D01*
X179964711Y-60803210D01*
X179964707Y-60803213D01*
X179853213Y-60914707D01*
X179853210Y-60914711D01*
X179765609Y-61045814D01*
X179765602Y-61045827D01*
X179705264Y-61191498D01*
X179705261Y-61191510D01*
X179674500Y-61346153D01*
X164673996Y-61346153D01*
X164785289Y-61271789D01*
X164785292Y-61271786D01*
X164804694Y-61252385D01*
X164896786Y-61160292D01*
X164896789Y-61160289D01*
X164984394Y-61029179D01*
X164985276Y-61027051D01*
X164998067Y-60996166D01*
X165044737Y-60883497D01*
X165075500Y-60728842D01*
X165075500Y-60571158D01*
X165075500Y-60571155D01*
X165075499Y-60571153D01*
X165053447Y-60460292D01*
X165044737Y-60416503D01*
X165031062Y-60383489D01*
X164984397Y-60270827D01*
X164984390Y-60270814D01*
X164896789Y-60139711D01*
X164896786Y-60139707D01*
X164785292Y-60028213D01*
X164785288Y-60028210D01*
X164695429Y-59968168D01*
X164654185Y-59940609D01*
X164654172Y-59940602D01*
X164508501Y-59880264D01*
X164508489Y-59880261D01*
X164462701Y-59871153D01*
X201974500Y-59871153D01*
X201974500Y-60028846D01*
X202005261Y-60183489D01*
X202005264Y-60183501D01*
X202065602Y-60329172D01*
X202065609Y-60329185D01*
X202153210Y-60460288D01*
X202153213Y-60460292D01*
X202264707Y-60571786D01*
X202264711Y-60571789D01*
X202395814Y-60659390D01*
X202395827Y-60659397D01*
X202486101Y-60696789D01*
X202541503Y-60719737D01*
X202696153Y-60750499D01*
X202696156Y-60750500D01*
X202696158Y-60750500D01*
X202853844Y-60750500D01*
X202853845Y-60750499D01*
X203008497Y-60719737D01*
X203154179Y-60659394D01*
X203285289Y-60571789D01*
X203396789Y-60460289D01*
X203484394Y-60329179D01*
X203544737Y-60183497D01*
X203575500Y-60028842D01*
X203575500Y-59871158D01*
X203575500Y-59871155D01*
X203575499Y-59871153D01*
X203569600Y-59841498D01*
X203544737Y-59716503D01*
X203536170Y-59695821D01*
X203484397Y-59570827D01*
X203484390Y-59570814D01*
X203396789Y-59439711D01*
X203396786Y-59439707D01*
X203285292Y-59328213D01*
X203285288Y-59328210D01*
X203154185Y-59240609D01*
X203154172Y-59240602D01*
X203008501Y-59180264D01*
X203008489Y-59180261D01*
X202853845Y-59149500D01*
X202853842Y-59149500D01*
X202696158Y-59149500D01*
X202696155Y-59149500D01*
X202541510Y-59180261D01*
X202541498Y-59180264D01*
X202395827Y-59240602D01*
X202395814Y-59240609D01*
X202264711Y-59328210D01*
X202264707Y-59328213D01*
X202153213Y-59439707D01*
X202153210Y-59439711D01*
X202065609Y-59570814D01*
X202065602Y-59570827D01*
X202005264Y-59716498D01*
X202005261Y-59716510D01*
X201974500Y-59871153D01*
X164462701Y-59871153D01*
X164353845Y-59849500D01*
X164353842Y-59849500D01*
X164249838Y-59849500D01*
X164182799Y-59829815D01*
X164137044Y-59777011D01*
X164135278Y-59772954D01*
X164134395Y-59770822D01*
X164134392Y-59770817D01*
X164046789Y-59639711D01*
X164046786Y-59639707D01*
X163935292Y-59528213D01*
X163935288Y-59528210D01*
X163804185Y-59440609D01*
X163804172Y-59440602D01*
X163658501Y-59380264D01*
X163658489Y-59380261D01*
X163503845Y-59349500D01*
X163503842Y-59349500D01*
X163346158Y-59349500D01*
X163346155Y-59349500D01*
X163191510Y-59380261D01*
X163191498Y-59380264D01*
X163045827Y-59440602D01*
X163045814Y-59440609D01*
X162914711Y-59528210D01*
X162914707Y-59528213D01*
X162803213Y-59639707D01*
X162803210Y-59639711D01*
X162715609Y-59770814D01*
X162715602Y-59770827D01*
X162655264Y-59916498D01*
X162655261Y-59916510D01*
X162624500Y-60071153D01*
X155350500Y-60071153D01*
X155350500Y-59946158D01*
X155350500Y-59946155D01*
X155350499Y-59946153D01*
X155341036Y-59898578D01*
X155319737Y-59791503D01*
X155311169Y-59770817D01*
X155259397Y-59645827D01*
X155259390Y-59645814D01*
X155171789Y-59514711D01*
X155171786Y-59514707D01*
X155060292Y-59403213D01*
X155060288Y-59403210D01*
X154929185Y-59315609D01*
X154929172Y-59315602D01*
X154783501Y-59255264D01*
X154783489Y-59255261D01*
X154628845Y-59224500D01*
X154628842Y-59224500D01*
X154471158Y-59224500D01*
X154471155Y-59224500D01*
X154316510Y-59255261D01*
X154316498Y-59255264D01*
X154170827Y-59315602D01*
X154170814Y-59315609D01*
X154039711Y-59403210D01*
X154039707Y-59403213D01*
X153928213Y-59514707D01*
X153928210Y-59514711D01*
X153840609Y-59645814D01*
X153840602Y-59645827D01*
X153780264Y-59791498D01*
X153780261Y-59791510D01*
X153749500Y-59946153D01*
X127650500Y-59946153D01*
X127650500Y-59293995D01*
X128694499Y-59293995D01*
X128721418Y-59429322D01*
X128721421Y-59429332D01*
X128774221Y-59556804D01*
X128774228Y-59556817D01*
X128850885Y-59671541D01*
X128850888Y-59671545D01*
X128948454Y-59769111D01*
X128948458Y-59769114D01*
X129063182Y-59845771D01*
X129063195Y-59845778D01*
X129146453Y-59880264D01*
X129190672Y-59898580D01*
X129190676Y-59898580D01*
X129190677Y-59898581D01*
X129326004Y-59925500D01*
X129326007Y-59925500D01*
X129463995Y-59925500D01*
X129555041Y-59907389D01*
X129599328Y-59898580D01*
X129726811Y-59845775D01*
X129733194Y-59841510D01*
X129739997Y-59836965D01*
X129739998Y-59836964D01*
X129808024Y-59791510D01*
X129841542Y-59769114D01*
X129939114Y-59671542D01*
X130015775Y-59556811D01*
X130068580Y-59429328D01*
X130088694Y-59328210D01*
X130095500Y-59293995D01*
X130095500Y-59156004D01*
X130068581Y-59020677D01*
X130068580Y-59020676D01*
X130068580Y-59020672D01*
X130068578Y-59020667D01*
X130015778Y-58893195D01*
X130015771Y-58893182D01*
X129939114Y-58778458D01*
X129939111Y-58778454D01*
X129841545Y-58680888D01*
X129841541Y-58680885D01*
X129726817Y-58604228D01*
X129726804Y-58604221D01*
X129599332Y-58551421D01*
X129599322Y-58551418D01*
X129463995Y-58524500D01*
X129463993Y-58524500D01*
X129326007Y-58524500D01*
X129326005Y-58524500D01*
X129190677Y-58551418D01*
X129190667Y-58551421D01*
X129063195Y-58604221D01*
X129063182Y-58604228D01*
X128948458Y-58680885D01*
X128948454Y-58680888D01*
X128850888Y-58778454D01*
X128850885Y-58778458D01*
X128774228Y-58893182D01*
X128774221Y-58893195D01*
X128721421Y-59020667D01*
X128721418Y-59020677D01*
X128694500Y-59156004D01*
X128694500Y-59156007D01*
X128694500Y-59293993D01*
X128694500Y-59293995D01*
X128694499Y-59293995D01*
X127650500Y-59293995D01*
X127650500Y-57246153D01*
X182024500Y-57246153D01*
X182024500Y-57403846D01*
X182055261Y-57558489D01*
X182055264Y-57558501D01*
X182115602Y-57704172D01*
X182115609Y-57704185D01*
X182203210Y-57835288D01*
X182203213Y-57835292D01*
X182314707Y-57946786D01*
X182314711Y-57946789D01*
X182445814Y-58034390D01*
X182445827Y-58034397D01*
X182500725Y-58057136D01*
X182591503Y-58094737D01*
X182746153Y-58125499D01*
X182746156Y-58125500D01*
X182746158Y-58125500D01*
X182903844Y-58125500D01*
X182903845Y-58125499D01*
X183058497Y-58094737D01*
X183204179Y-58034394D01*
X183335289Y-57946789D01*
X183446789Y-57835289D01*
X183534394Y-57704179D01*
X183594737Y-57558497D01*
X183614482Y-57459234D01*
X205124500Y-57459234D01*
X205124500Y-57910766D01*
X205134152Y-57946789D01*
X205163719Y-58057136D01*
X205185429Y-58094738D01*
X205239485Y-58188365D01*
X205346635Y-58295515D01*
X205477865Y-58371281D01*
X205624234Y-58410500D01*
X205624236Y-58410500D01*
X205775764Y-58410500D01*
X205775766Y-58410500D01*
X205922135Y-58371281D01*
X206053365Y-58295515D01*
X206160515Y-58188365D01*
X206227948Y-58071568D01*
X206278513Y-58023355D01*
X206347120Y-58010131D01*
X206382783Y-58019009D01*
X206387334Y-58020894D01*
X206387338Y-58020894D01*
X206387339Y-58020895D01*
X206387341Y-58020896D01*
X206561304Y-58055499D01*
X206561307Y-58055500D01*
X206561309Y-58055500D01*
X207338693Y-58055500D01*
X207338694Y-58055499D01*
X207396682Y-58043964D01*
X207512658Y-58020896D01*
X207512661Y-58020894D01*
X207512666Y-58020894D01*
X207676547Y-57953013D01*
X207824035Y-57854464D01*
X207949464Y-57729035D01*
X208048013Y-57581547D01*
X208115894Y-57417666D01*
X208118644Y-57403844D01*
X208150499Y-57243695D01*
X208150500Y-57243693D01*
X208150500Y-57066306D01*
X208150499Y-57066304D01*
X208115896Y-56892341D01*
X208115893Y-56892332D01*
X208048016Y-56728459D01*
X208048009Y-56728446D01*
X207949464Y-56580965D01*
X207949461Y-56580961D01*
X207824038Y-56455538D01*
X207824034Y-56455535D01*
X207676553Y-56356990D01*
X207676540Y-56356983D01*
X207512667Y-56289106D01*
X207512658Y-56289103D01*
X207338694Y-56254500D01*
X207338691Y-56254500D01*
X206561309Y-56254500D01*
X206561306Y-56254500D01*
X206387341Y-56289103D01*
X206387332Y-56289106D01*
X206223459Y-56356983D01*
X206223446Y-56356990D01*
X206075965Y-56455535D01*
X206075961Y-56455538D01*
X205950538Y-56580961D01*
X205950535Y-56580965D01*
X205851990Y-56728446D01*
X205851983Y-56728459D01*
X205787992Y-56882952D01*
X205744152Y-56937356D01*
X205677858Y-56959421D01*
X205673431Y-56959500D01*
X205624234Y-56959500D01*
X205477863Y-56998719D01*
X205346635Y-57074485D01*
X205346632Y-57074487D01*
X205239487Y-57181632D01*
X205239485Y-57181635D01*
X205163719Y-57312863D01*
X205139341Y-57403846D01*
X205124500Y-57459234D01*
X183614482Y-57459234D01*
X183620911Y-57426915D01*
X183620911Y-57426914D01*
X183625499Y-57403846D01*
X183625500Y-57403844D01*
X183625500Y-57246155D01*
X183625499Y-57246153D01*
X183620606Y-57221553D01*
X183594737Y-57091503D01*
X183587688Y-57074485D01*
X183534397Y-56945827D01*
X183534390Y-56945814D01*
X183446789Y-56814711D01*
X183446786Y-56814707D01*
X183335292Y-56703213D01*
X183335288Y-56703210D01*
X183204185Y-56615609D01*
X183204172Y-56615602D01*
X183058501Y-56555264D01*
X183058489Y-56555261D01*
X182903845Y-56524500D01*
X182903842Y-56524500D01*
X182746158Y-56524500D01*
X182746155Y-56524500D01*
X182591510Y-56555261D01*
X182591498Y-56555264D01*
X182445827Y-56615602D01*
X182445814Y-56615609D01*
X182314711Y-56703210D01*
X182314707Y-56703213D01*
X182203213Y-56814707D01*
X182203210Y-56814711D01*
X182115609Y-56945814D01*
X182115602Y-56945827D01*
X182055264Y-57091498D01*
X182055261Y-57091510D01*
X182024500Y-57246153D01*
X127650500Y-57246153D01*
X127650500Y-55946153D01*
X165649500Y-55946153D01*
X165649500Y-56103846D01*
X165680261Y-56258489D01*
X165680264Y-56258501D01*
X165740602Y-56404172D01*
X165740609Y-56404185D01*
X165828210Y-56535288D01*
X165828213Y-56535292D01*
X165939707Y-56646786D01*
X165939711Y-56646789D01*
X166070814Y-56734390D01*
X166070827Y-56734397D01*
X166216498Y-56794735D01*
X166216503Y-56794737D01*
X166371153Y-56825499D01*
X166371156Y-56825500D01*
X166371158Y-56825500D01*
X166528844Y-56825500D01*
X166528845Y-56825499D01*
X166683497Y-56794737D01*
X166829179Y-56734394D01*
X166960289Y-56646789D01*
X167071789Y-56535289D01*
X167159394Y-56404179D01*
X167219737Y-56258497D01*
X167250500Y-56103842D01*
X167250500Y-55946158D01*
X167250500Y-55946155D01*
X167250499Y-55946153D01*
X167247108Y-55929106D01*
X167219737Y-55791503D01*
X167182043Y-55700500D01*
X167159397Y-55645827D01*
X167159390Y-55645814D01*
X167071789Y-55514711D01*
X167071786Y-55514707D01*
X166960292Y-55403213D01*
X166960288Y-55403210D01*
X166829185Y-55315609D01*
X166829172Y-55315602D01*
X166683501Y-55255264D01*
X166683489Y-55255261D01*
X166528845Y-55224500D01*
X166528842Y-55224500D01*
X166371158Y-55224500D01*
X166371155Y-55224500D01*
X166216510Y-55255261D01*
X166216498Y-55255264D01*
X166070827Y-55315602D01*
X166070814Y-55315609D01*
X165939711Y-55403210D01*
X165939707Y-55403213D01*
X165828213Y-55514707D01*
X165828210Y-55514711D01*
X165740609Y-55645814D01*
X165740602Y-55645827D01*
X165680264Y-55791498D01*
X165680261Y-55791510D01*
X165649500Y-55946153D01*
X127650500Y-55946153D01*
X127650500Y-54821153D01*
X189549500Y-54821153D01*
X189549500Y-54978846D01*
X189580261Y-55133489D01*
X189580264Y-55133501D01*
X189640602Y-55279172D01*
X189640609Y-55279185D01*
X189728210Y-55410288D01*
X189728213Y-55410292D01*
X189839707Y-55521786D01*
X189839711Y-55521789D01*
X189970814Y-55609390D01*
X189970827Y-55609397D01*
X190116498Y-55669735D01*
X190116503Y-55669737D01*
X190271153Y-55700499D01*
X190271156Y-55700500D01*
X190271158Y-55700500D01*
X190428844Y-55700500D01*
X190428845Y-55700499D01*
X190583497Y-55669737D01*
X190729179Y-55609394D01*
X190860289Y-55521789D01*
X190971789Y-55410289D01*
X191059394Y-55279179D01*
X191119737Y-55133497D01*
X191150500Y-54978842D01*
X191150500Y-54821158D01*
X191150500Y-54821155D01*
X191150499Y-54821153D01*
X191119738Y-54666510D01*
X191119737Y-54666503D01*
X191119735Y-54666498D01*
X191059397Y-54520827D01*
X191059390Y-54520814D01*
X190971789Y-54389711D01*
X190971786Y-54389707D01*
X190860292Y-54278213D01*
X190860288Y-54278210D01*
X190729185Y-54190609D01*
X190729172Y-54190602D01*
X190583501Y-54130264D01*
X190583489Y-54130261D01*
X190428845Y-54099500D01*
X190428842Y-54099500D01*
X190271158Y-54099500D01*
X190271155Y-54099500D01*
X190116510Y-54130261D01*
X190116498Y-54130264D01*
X189970827Y-54190602D01*
X189970814Y-54190609D01*
X189839711Y-54278210D01*
X189839707Y-54278213D01*
X189728213Y-54389707D01*
X189728210Y-54389711D01*
X189640609Y-54520814D01*
X189640602Y-54520827D01*
X189580264Y-54666498D01*
X189580261Y-54666510D01*
X189549500Y-54821153D01*
X127650500Y-54821153D01*
X127650500Y-51877706D01*
X127650618Y-51872297D01*
X127655796Y-51753711D01*
X130549500Y-51753711D01*
X130549500Y-51996288D01*
X130581161Y-52236785D01*
X130643947Y-52471104D01*
X130688716Y-52579185D01*
X130736776Y-52695212D01*
X130858064Y-52905289D01*
X130858066Y-52905292D01*
X130858067Y-52905293D01*
X131005733Y-53097736D01*
X131005739Y-53097743D01*
X131177256Y-53269260D01*
X131177262Y-53269265D01*
X131369711Y-53416936D01*
X131579788Y-53538224D01*
X131770446Y-53617197D01*
X131802067Y-53630295D01*
X131803900Y-53631054D01*
X132038211Y-53693838D01*
X132218586Y-53717584D01*
X132278711Y-53725500D01*
X132278712Y-53725500D01*
X132521289Y-53725500D01*
X132569388Y-53719167D01*
X132761789Y-53693838D01*
X132996100Y-53631054D01*
X133220212Y-53538224D01*
X133430289Y-53416936D01*
X133622738Y-53269265D01*
X133794265Y-53097738D01*
X133941936Y-52905289D01*
X134063224Y-52695212D01*
X134156054Y-52471100D01*
X134218838Y-52236789D01*
X134234062Y-52121153D01*
X145924500Y-52121153D01*
X145924500Y-52278846D01*
X145955261Y-52433489D01*
X145955264Y-52433501D01*
X146015602Y-52579172D01*
X146015609Y-52579185D01*
X146103210Y-52710288D01*
X146103213Y-52710292D01*
X146214707Y-52821786D01*
X146214711Y-52821789D01*
X146345814Y-52909390D01*
X146345827Y-52909397D01*
X146491498Y-52969735D01*
X146491503Y-52969737D01*
X146646153Y-53000499D01*
X146646156Y-53000500D01*
X146646158Y-53000500D01*
X146803844Y-53000500D01*
X146803845Y-53000499D01*
X146958497Y-52969737D01*
X147104179Y-52909394D01*
X147235289Y-52821789D01*
X147346789Y-52710289D01*
X147434394Y-52579179D01*
X147494737Y-52433497D01*
X147519403Y-52309495D01*
X164139500Y-52309495D01*
X164139500Y-52545504D01*
X164139501Y-52545520D01*
X164161193Y-52710292D01*
X164170307Y-52779514D01*
X164205107Y-52909390D01*
X164231394Y-53007493D01*
X164321714Y-53225545D01*
X164321719Y-53225556D01*
X164391712Y-53346786D01*
X164439727Y-53429950D01*
X164439729Y-53429953D01*
X164439730Y-53429954D01*
X164583406Y-53617197D01*
X164583412Y-53617204D01*
X164750295Y-53784087D01*
X164750302Y-53784093D01*
X164766909Y-53796836D01*
X164937550Y-53927773D01*
X165068918Y-54003618D01*
X165141943Y-54045780D01*
X165141948Y-54045782D01*
X165141951Y-54045784D01*
X165360007Y-54136106D01*
X165587986Y-54197193D01*
X165821989Y-54228000D01*
X165821996Y-54228000D01*
X166058004Y-54228000D01*
X166058011Y-54228000D01*
X166292014Y-54197193D01*
X166519993Y-54136106D01*
X166738049Y-54045784D01*
X166942450Y-53927773D01*
X167129699Y-53784092D01*
X167296592Y-53617199D01*
X167440273Y-53429950D01*
X167558284Y-53225549D01*
X167648606Y-53007493D01*
X167709693Y-52779514D01*
X167740500Y-52545511D01*
X167740500Y-52309489D01*
X167709693Y-52075486D01*
X167648606Y-51847507D01*
X167558284Y-51629451D01*
X167558282Y-51629448D01*
X167558280Y-51629443D01*
X167502510Y-51532848D01*
X167440273Y-51425050D01*
X167408270Y-51383343D01*
X167365407Y-51327483D01*
X169219500Y-51327483D01*
X169219500Y-53527501D01*
X169219501Y-53527518D01*
X169230000Y-53630296D01*
X169230001Y-53630299D01*
X169251056Y-53693838D01*
X169285186Y-53796834D01*
X169377288Y-53946156D01*
X169501344Y-54070212D01*
X169650666Y-54162314D01*
X169817203Y-54217499D01*
X169919991Y-54228000D01*
X172120008Y-54227999D01*
X172222797Y-54217499D01*
X172389334Y-54162314D01*
X172538656Y-54070212D01*
X172662712Y-53946156D01*
X172754814Y-53796834D01*
X172809999Y-53630297D01*
X172820500Y-53527509D01*
X172820499Y-52646153D01*
X174774500Y-52646153D01*
X174774500Y-52803846D01*
X174805261Y-52958489D01*
X174805264Y-52958501D01*
X174865602Y-53104172D01*
X174865609Y-53104185D01*
X174953210Y-53235288D01*
X174953213Y-53235292D01*
X175064707Y-53346786D01*
X175064711Y-53346789D01*
X175195814Y-53434390D01*
X175195827Y-53434397D01*
X175341498Y-53494735D01*
X175341503Y-53494737D01*
X175496153Y-53525499D01*
X175496156Y-53525500D01*
X175496158Y-53525500D01*
X175653844Y-53525500D01*
X175653845Y-53525499D01*
X175808497Y-53494737D01*
X175954179Y-53434394D01*
X176085289Y-53346789D01*
X176196789Y-53235289D01*
X176284394Y-53104179D01*
X176344737Y-52958497D01*
X176375500Y-52803842D01*
X176375500Y-52646158D01*
X176375500Y-52646155D01*
X176375499Y-52646153D01*
X176362177Y-52579179D01*
X176344737Y-52491503D01*
X176320712Y-52433501D01*
X176284397Y-52345827D01*
X176284390Y-52345814D01*
X176196789Y-52214711D01*
X176196786Y-52214707D01*
X176085292Y-52103213D01*
X176085288Y-52103210D01*
X175954185Y-52015609D01*
X175954172Y-52015602D01*
X175808501Y-51955264D01*
X175808489Y-51955261D01*
X175653845Y-51924500D01*
X175653842Y-51924500D01*
X175496158Y-51924500D01*
X175496155Y-51924500D01*
X175341510Y-51955261D01*
X175341498Y-51955264D01*
X175195827Y-52015602D01*
X175195814Y-52015609D01*
X175064711Y-52103210D01*
X175064707Y-52103213D01*
X174953213Y-52214707D01*
X174953210Y-52214711D01*
X174865609Y-52345814D01*
X174865602Y-52345827D01*
X174805264Y-52491498D01*
X174805261Y-52491510D01*
X174774500Y-52646153D01*
X172820499Y-52646153D01*
X172820499Y-52345827D01*
X172820499Y-51753711D01*
X207549500Y-51753711D01*
X207549500Y-51996288D01*
X207581161Y-52236785D01*
X207643947Y-52471104D01*
X207688716Y-52579185D01*
X207736776Y-52695212D01*
X207858064Y-52905289D01*
X207858066Y-52905292D01*
X207858067Y-52905293D01*
X208005733Y-53097736D01*
X208005739Y-53097743D01*
X208177256Y-53269260D01*
X208177262Y-53269265D01*
X208369711Y-53416936D01*
X208579788Y-53538224D01*
X208770446Y-53617197D01*
X208802067Y-53630295D01*
X208803900Y-53631054D01*
X209038211Y-53693838D01*
X209218586Y-53717584D01*
X209278711Y-53725500D01*
X209278712Y-53725500D01*
X209521289Y-53725500D01*
X209569388Y-53719167D01*
X209761789Y-53693838D01*
X209996100Y-53631054D01*
X210220212Y-53538224D01*
X210430289Y-53416936D01*
X210622738Y-53269265D01*
X210794265Y-53097738D01*
X210941936Y-52905289D01*
X211063224Y-52695212D01*
X211156054Y-52471100D01*
X211218838Y-52236789D01*
X211250500Y-51996288D01*
X211250500Y-51753712D01*
X211249253Y-51744243D01*
X211234140Y-51629443D01*
X211218838Y-51513211D01*
X211156054Y-51278900D01*
X211063224Y-51054788D01*
X210941936Y-50844711D01*
X210873135Y-50755048D01*
X210794266Y-50652263D01*
X210794260Y-50652256D01*
X210622743Y-50480739D01*
X210622736Y-50480733D01*
X210430293Y-50333067D01*
X210430292Y-50333066D01*
X210430289Y-50333064D01*
X210220212Y-50211776D01*
X210220205Y-50211773D01*
X209996104Y-50118947D01*
X209782270Y-50061650D01*
X209761789Y-50056162D01*
X209761788Y-50056161D01*
X209761785Y-50056161D01*
X209521289Y-50024500D01*
X209521288Y-50024500D01*
X209278712Y-50024500D01*
X209278711Y-50024500D01*
X209038214Y-50056161D01*
X208803895Y-50118947D01*
X208579794Y-50211773D01*
X208579785Y-50211777D01*
X208369706Y-50333067D01*
X208177263Y-50480733D01*
X208177256Y-50480739D01*
X208005739Y-50652256D01*
X208005733Y-50652263D01*
X207858067Y-50844706D01*
X207858064Y-50844710D01*
X207858064Y-50844711D01*
X207852133Y-50854984D01*
X207736777Y-51054785D01*
X207736773Y-51054794D01*
X207643947Y-51278895D01*
X207581161Y-51513214D01*
X207549500Y-51753711D01*
X172820499Y-51753711D01*
X172820499Y-51749653D01*
X172820499Y-51327498D01*
X172820498Y-51327481D01*
X172809999Y-51224703D01*
X172809998Y-51224700D01*
X172802328Y-51201555D01*
X172754814Y-51058166D01*
X172662712Y-50908844D01*
X172538656Y-50784788D01*
X172389334Y-50692686D01*
X172222797Y-50637501D01*
X172222795Y-50637500D01*
X172120010Y-50627000D01*
X169919998Y-50627000D01*
X169919981Y-50627001D01*
X169817203Y-50637500D01*
X169817200Y-50637501D01*
X169650668Y-50692685D01*
X169650663Y-50692687D01*
X169501342Y-50784789D01*
X169377289Y-50908842D01*
X169285187Y-51058163D01*
X169285185Y-51058168D01*
X169278775Y-51077512D01*
X169230001Y-51224703D01*
X169230001Y-51224704D01*
X169230000Y-51224704D01*
X169219500Y-51327483D01*
X167365407Y-51327483D01*
X167296593Y-51237802D01*
X167296587Y-51237795D01*
X167129704Y-51070912D01*
X167129697Y-51070906D01*
X166942454Y-50927230D01*
X166942453Y-50927229D01*
X166942450Y-50927227D01*
X166860957Y-50880177D01*
X166738056Y-50809219D01*
X166738045Y-50809214D01*
X166519993Y-50718894D01*
X166359881Y-50675992D01*
X166292014Y-50657807D01*
X166292013Y-50657806D01*
X166292010Y-50657806D01*
X166058020Y-50627001D01*
X166058017Y-50627000D01*
X166058011Y-50627000D01*
X165821989Y-50627000D01*
X165821983Y-50627000D01*
X165821979Y-50627001D01*
X165587989Y-50657806D01*
X165360006Y-50718894D01*
X165141954Y-50809214D01*
X165141943Y-50809219D01*
X164937545Y-50927230D01*
X164750302Y-51070906D01*
X164750295Y-51070912D01*
X164583412Y-51237795D01*
X164583406Y-51237802D01*
X164439730Y-51425045D01*
X164321719Y-51629443D01*
X164321714Y-51629454D01*
X164231394Y-51847506D01*
X164170306Y-52075489D01*
X164139501Y-52309479D01*
X164139500Y-52309495D01*
X147519403Y-52309495D01*
X147525500Y-52278842D01*
X147525500Y-52121158D01*
X147525500Y-52121155D01*
X147525499Y-52121153D01*
X147504503Y-52015602D01*
X147494737Y-51966503D01*
X147490081Y-51955263D01*
X147434397Y-51820827D01*
X147434390Y-51820814D01*
X147346789Y-51689711D01*
X147346786Y-51689707D01*
X147235292Y-51578213D01*
X147235288Y-51578210D01*
X147104185Y-51490609D01*
X147104172Y-51490602D01*
X146958501Y-51430264D01*
X146958489Y-51430261D01*
X146803845Y-51399500D01*
X146803842Y-51399500D01*
X146646158Y-51399500D01*
X146646155Y-51399500D01*
X146491510Y-51430261D01*
X146491498Y-51430264D01*
X146345827Y-51490602D01*
X146345814Y-51490609D01*
X146214711Y-51578210D01*
X146214707Y-51578213D01*
X146103213Y-51689707D01*
X146103210Y-51689711D01*
X146015609Y-51820814D01*
X146015602Y-51820827D01*
X145955264Y-51966498D01*
X145955261Y-51966510D01*
X145924500Y-52121153D01*
X134234062Y-52121153D01*
X134236994Y-52098881D01*
X134250500Y-51996288D01*
X134250500Y-51753711D01*
X134234140Y-51629443D01*
X134218838Y-51513211D01*
X134156054Y-51278900D01*
X134063224Y-51054788D01*
X133941936Y-50844711D01*
X133873135Y-50755048D01*
X133794266Y-50652263D01*
X133794260Y-50652256D01*
X133622743Y-50480739D01*
X133622736Y-50480733D01*
X133430293Y-50333067D01*
X133430292Y-50333066D01*
X133430289Y-50333064D01*
X133220212Y-50211776D01*
X133220205Y-50211773D01*
X132996104Y-50118947D01*
X132782270Y-50061650D01*
X132761789Y-50056162D01*
X132761788Y-50056161D01*
X132761785Y-50056161D01*
X132521289Y-50024500D01*
X132521288Y-50024500D01*
X132278712Y-50024500D01*
X132278711Y-50024500D01*
X132038214Y-50056161D01*
X131803895Y-50118947D01*
X131579794Y-50211773D01*
X131579785Y-50211777D01*
X131369706Y-50333067D01*
X131177263Y-50480733D01*
X131177256Y-50480739D01*
X131005739Y-50652256D01*
X131005733Y-50652263D01*
X130858067Y-50844706D01*
X130858064Y-50844710D01*
X130858064Y-50844711D01*
X130852133Y-50854984D01*
X130736777Y-51054785D01*
X130736773Y-51054794D01*
X130643947Y-51278895D01*
X130581161Y-51513214D01*
X130549500Y-51753711D01*
X127655796Y-51753711D01*
X127656209Y-51744244D01*
X127656209Y-51744243D01*
X127659981Y-51657838D01*
X127668337Y-51466439D01*
X127669276Y-51455708D01*
X127721951Y-51055609D01*
X127723823Y-51044993D01*
X127811168Y-50651000D01*
X127813955Y-50640600D01*
X127935309Y-50255713D01*
X127938993Y-50245592D01*
X128093426Y-49872758D01*
X128097984Y-49862984D01*
X128284315Y-49505045D01*
X128289710Y-49495700D01*
X128290976Y-49493713D01*
X153199500Y-49493713D01*
X153199500Y-49706287D01*
X153232754Y-49916243D01*
X153278257Y-50056287D01*
X153298444Y-50118414D01*
X153394951Y-50307820D01*
X153519890Y-50479786D01*
X153670213Y-50630109D01*
X153842179Y-50755048D01*
X153842181Y-50755049D01*
X153842184Y-50755051D01*
X154031588Y-50851557D01*
X154233757Y-50917246D01*
X154443713Y-50950500D01*
X154443714Y-50950500D01*
X154656286Y-50950500D01*
X154656287Y-50950500D01*
X154866243Y-50917246D01*
X155068412Y-50851557D01*
X155257816Y-50755051D01*
X155307582Y-50718894D01*
X155429786Y-50630109D01*
X155429788Y-50630106D01*
X155429792Y-50630104D01*
X155580104Y-50479792D01*
X155580106Y-50479788D01*
X155580109Y-50479786D01*
X155705048Y-50307820D01*
X155705047Y-50307820D01*
X155705051Y-50307816D01*
X155709514Y-50299054D01*
X155757488Y-50248259D01*
X155825308Y-50231463D01*
X155891444Y-50253999D01*
X155930486Y-50299056D01*
X155934951Y-50307820D01*
X156059890Y-50479786D01*
X156210213Y-50630109D01*
X156382179Y-50755048D01*
X156382181Y-50755049D01*
X156382184Y-50755051D01*
X156571588Y-50851557D01*
X156773757Y-50917246D01*
X156983713Y-50950500D01*
X156983714Y-50950500D01*
X157196286Y-50950500D01*
X157196287Y-50950500D01*
X157406243Y-50917246D01*
X157608412Y-50851557D01*
X157797816Y-50755051D01*
X157931644Y-50657820D01*
X157969784Y-50630110D01*
X157969784Y-50630109D01*
X157969792Y-50630104D01*
X158083329Y-50516566D01*
X158144648Y-50483084D01*
X158214340Y-50488068D01*
X158270274Y-50529939D01*
X158287189Y-50560917D01*
X158336202Y-50692328D01*
X158336206Y-50692335D01*
X158422452Y-50807544D01*
X158422455Y-50807547D01*
X158537664Y-50893793D01*
X158537671Y-50893797D01*
X158672517Y-50944091D01*
X158672516Y-50944091D01*
X158679444Y-50944835D01*
X158732127Y-50950500D01*
X160527872Y-50950499D01*
X160587483Y-50944091D01*
X160722331Y-50893796D01*
X160837546Y-50807546D01*
X160923796Y-50692331D01*
X160974091Y-50557483D01*
X160980500Y-50497873D01*
X160980499Y-49052135D01*
X176494500Y-49052135D01*
X176494500Y-50847870D01*
X176494501Y-50847876D01*
X176500908Y-50907483D01*
X176551202Y-51042328D01*
X176551206Y-51042335D01*
X176637452Y-51157544D01*
X176637455Y-51157547D01*
X176752664Y-51243793D01*
X176752671Y-51243797D01*
X176887517Y-51294091D01*
X176887516Y-51294091D01*
X176894444Y-51294835D01*
X176947127Y-51300500D01*
X178742872Y-51300499D01*
X178802483Y-51294091D01*
X178937331Y-51243796D01*
X179052546Y-51157546D01*
X179138796Y-51042331D01*
X179187810Y-50910916D01*
X179229681Y-50854984D01*
X179295145Y-50830566D01*
X179363418Y-50845417D01*
X179391673Y-50866569D01*
X179505213Y-50980109D01*
X179677179Y-51105048D01*
X179677181Y-51105049D01*
X179677184Y-51105051D01*
X179866588Y-51201557D01*
X180068757Y-51267246D01*
X180278713Y-51300500D01*
X180278714Y-51300500D01*
X180491286Y-51300500D01*
X180491287Y-51300500D01*
X180701243Y-51267246D01*
X180903412Y-51201557D01*
X181092816Y-51105051D01*
X181118358Y-51086494D01*
X181264786Y-50980109D01*
X181264788Y-50980106D01*
X181264792Y-50980104D01*
X181415104Y-50829792D01*
X181415106Y-50829788D01*
X181415109Y-50829786D01*
X181540048Y-50657820D01*
X181540047Y-50657820D01*
X181540051Y-50657816D01*
X181544514Y-50649054D01*
X181592488Y-50598259D01*
X181660308Y-50581463D01*
X181726444Y-50603999D01*
X181765486Y-50649056D01*
X181769951Y-50657820D01*
X181894890Y-50829786D01*
X182045213Y-50980109D01*
X182217179Y-51105048D01*
X182217181Y-51105049D01*
X182217184Y-51105051D01*
X182406588Y-51201557D01*
X182608757Y-51267246D01*
X182818713Y-51300500D01*
X182818714Y-51300500D01*
X183031286Y-51300500D01*
X183031287Y-51300500D01*
X183241243Y-51267246D01*
X183443412Y-51201557D01*
X183632816Y-51105051D01*
X183658358Y-51086494D01*
X183804786Y-50980109D01*
X183804788Y-50980106D01*
X183804792Y-50980104D01*
X183955104Y-50829792D01*
X183955106Y-50829788D01*
X183955109Y-50829786D01*
X184080048Y-50657820D01*
X184080047Y-50657820D01*
X184080051Y-50657816D01*
X184176557Y-50468412D01*
X184242246Y-50266243D01*
X184275500Y-50056287D01*
X184275500Y-49881902D01*
X191824500Y-49881902D01*
X191824500Y-50118097D01*
X191861446Y-50351368D01*
X191934433Y-50575996D01*
X192025667Y-50755051D01*
X192041657Y-50786433D01*
X192180483Y-50977510D01*
X192347490Y-51144517D01*
X192538567Y-51283343D01*
X192572236Y-51300498D01*
X192749003Y-51390566D01*
X192749005Y-51390566D01*
X192749008Y-51390568D01*
X192777480Y-51399819D01*
X192973631Y-51463553D01*
X193206903Y-51500500D01*
X193206908Y-51500500D01*
X193443097Y-51500500D01*
X193676368Y-51463553D01*
X193700589Y-51455683D01*
X193900992Y-51390568D01*
X194111433Y-51283343D01*
X194302510Y-51144517D01*
X194469517Y-50977510D01*
X194608343Y-50786433D01*
X194715568Y-50575992D01*
X194788553Y-50351368D01*
X194795451Y-50307816D01*
X194825500Y-50118097D01*
X194825500Y-49981902D01*
X196074500Y-49981902D01*
X196074500Y-50218097D01*
X196111446Y-50451368D01*
X196184433Y-50675996D01*
X196270758Y-50845417D01*
X196291657Y-50886433D01*
X196430483Y-51077510D01*
X196597490Y-51244517D01*
X196788567Y-51383343D01*
X196870412Y-51425045D01*
X196999003Y-51490566D01*
X196999005Y-51490566D01*
X196999008Y-51490568D01*
X197062427Y-51511174D01*
X197223631Y-51563553D01*
X197456903Y-51600500D01*
X197456908Y-51600500D01*
X197693097Y-51600500D01*
X197926368Y-51563553D01*
X198150992Y-51490568D01*
X198361433Y-51383343D01*
X198552510Y-51244517D01*
X198719517Y-51077510D01*
X198858343Y-50886433D01*
X198965568Y-50675992D01*
X199038553Y-50451368D01*
X199075500Y-50218097D01*
X199075500Y-49981902D01*
X199038553Y-49748631D01*
X198968311Y-49532451D01*
X198965568Y-49524008D01*
X198965566Y-49524005D01*
X198965566Y-49524003D01*
X198909002Y-49412991D01*
X198858343Y-49313567D01*
X198719517Y-49122490D01*
X198552510Y-48955483D01*
X198361433Y-48816657D01*
X198318829Y-48794949D01*
X198150996Y-48709433D01*
X197926368Y-48636446D01*
X197693097Y-48599500D01*
X197693092Y-48599500D01*
X197456908Y-48599500D01*
X197456903Y-48599500D01*
X197223631Y-48636446D01*
X196999003Y-48709433D01*
X196788566Y-48816657D01*
X196732119Y-48857669D01*
X196597490Y-48955483D01*
X196597488Y-48955485D01*
X196597487Y-48955485D01*
X196430485Y-49122487D01*
X196430485Y-49122488D01*
X196430483Y-49122490D01*
X196389361Y-49179089D01*
X196291657Y-49313566D01*
X196184433Y-49524003D01*
X196111446Y-49748631D01*
X196074500Y-49981902D01*
X194825500Y-49981902D01*
X194825500Y-49881902D01*
X194788553Y-49648631D01*
X194747728Y-49522987D01*
X194715568Y-49424008D01*
X194715566Y-49424005D01*
X194715566Y-49424003D01*
X194644108Y-49283760D01*
X194608343Y-49213567D01*
X194469517Y-49022490D01*
X194302510Y-48855483D01*
X194111433Y-48716657D01*
X194082918Y-48702128D01*
X193900996Y-48609433D01*
X193676368Y-48536446D01*
X193443097Y-48499500D01*
X193443092Y-48499500D01*
X193206908Y-48499500D01*
X193206903Y-48499500D01*
X192973631Y-48536446D01*
X192749003Y-48609433D01*
X192538566Y-48716657D01*
X192503059Y-48742455D01*
X192347490Y-48855483D01*
X192347488Y-48855485D01*
X192347487Y-48855485D01*
X192180485Y-49022487D01*
X192180485Y-49022488D01*
X192180483Y-49022490D01*
X192148206Y-49066915D01*
X192041657Y-49213566D01*
X191934433Y-49424003D01*
X191861446Y-49648631D01*
X191824500Y-49881902D01*
X184275500Y-49881902D01*
X184275500Y-49843713D01*
X184242246Y-49633757D01*
X184176557Y-49431588D01*
X184080051Y-49242184D01*
X184080049Y-49242181D01*
X184080048Y-49242179D01*
X183955109Y-49070213D01*
X183804786Y-48919890D01*
X183632820Y-48794951D01*
X183443414Y-48698444D01*
X183443413Y-48698443D01*
X183443412Y-48698443D01*
X183241243Y-48632754D01*
X183241241Y-48632753D01*
X183241240Y-48632753D01*
X183079957Y-48607208D01*
X183031287Y-48599500D01*
X182818713Y-48599500D01*
X182770042Y-48607208D01*
X182608760Y-48632753D01*
X182406585Y-48698444D01*
X182217179Y-48794951D01*
X182045213Y-48919890D01*
X181894890Y-49070213D01*
X181769949Y-49242182D01*
X181765484Y-49250946D01*
X181717509Y-49301742D01*
X181649688Y-49318536D01*
X181583553Y-49295998D01*
X181544516Y-49250946D01*
X181540050Y-49242182D01*
X181415109Y-49070213D01*
X181264786Y-48919890D01*
X181092820Y-48794951D01*
X180903414Y-48698444D01*
X180903413Y-48698443D01*
X180903412Y-48698443D01*
X180701243Y-48632754D01*
X180701241Y-48632753D01*
X180701240Y-48632753D01*
X180539957Y-48607208D01*
X180491287Y-48599500D01*
X180278713Y-48599500D01*
X180230042Y-48607208D01*
X180068760Y-48632753D01*
X179866585Y-48698444D01*
X179677179Y-48794951D01*
X179505215Y-48919889D01*
X179391673Y-49033431D01*
X179330350Y-49066915D01*
X179260658Y-49061931D01*
X179204725Y-49020059D01*
X179187810Y-48989082D01*
X179138797Y-48857671D01*
X179138793Y-48857664D01*
X179052547Y-48742455D01*
X179052544Y-48742452D01*
X178937335Y-48656206D01*
X178937328Y-48656202D01*
X178802482Y-48605908D01*
X178802483Y-48605908D01*
X178742883Y-48599501D01*
X178742881Y-48599500D01*
X178742873Y-48599500D01*
X178742864Y-48599500D01*
X176947129Y-48599500D01*
X176947123Y-48599501D01*
X176887516Y-48605908D01*
X176752671Y-48656202D01*
X176752664Y-48656206D01*
X176637455Y-48742452D01*
X176637452Y-48742455D01*
X176551206Y-48857664D01*
X176551202Y-48857671D01*
X176500908Y-48992517D01*
X176494501Y-49052116D01*
X176494500Y-49052135D01*
X160980499Y-49052135D01*
X160980499Y-48702128D01*
X160974091Y-48642517D01*
X160972810Y-48639083D01*
X160923797Y-48507671D01*
X160923793Y-48507664D01*
X160837547Y-48392455D01*
X160837544Y-48392452D01*
X160722335Y-48306206D01*
X160722328Y-48306202D01*
X160587482Y-48255908D01*
X160587483Y-48255908D01*
X160527883Y-48249501D01*
X160527881Y-48249500D01*
X160527873Y-48249500D01*
X160527864Y-48249500D01*
X158732129Y-48249500D01*
X158732123Y-48249501D01*
X158672516Y-48255908D01*
X158537671Y-48306202D01*
X158537664Y-48306206D01*
X158422455Y-48392452D01*
X158422452Y-48392455D01*
X158336206Y-48507664D01*
X158336203Y-48507669D01*
X158287189Y-48639083D01*
X158245317Y-48695016D01*
X158179853Y-48719433D01*
X158111580Y-48704581D01*
X158083326Y-48683430D01*
X157969786Y-48569890D01*
X157797820Y-48444951D01*
X157608414Y-48348444D01*
X157608413Y-48348443D01*
X157608412Y-48348443D01*
X157406243Y-48282754D01*
X157406241Y-48282753D01*
X157406240Y-48282753D01*
X157244957Y-48257208D01*
X157196287Y-48249500D01*
X156983713Y-48249500D01*
X156935042Y-48257208D01*
X156773760Y-48282753D01*
X156571585Y-48348444D01*
X156382179Y-48444951D01*
X156210213Y-48569890D01*
X156059890Y-48720213D01*
X155934949Y-48892182D01*
X155930484Y-48900946D01*
X155882509Y-48951742D01*
X155814688Y-48968536D01*
X155748553Y-48945998D01*
X155709516Y-48900946D01*
X155705050Y-48892182D01*
X155580109Y-48720213D01*
X155429786Y-48569890D01*
X155257820Y-48444951D01*
X155068414Y-48348444D01*
X155068413Y-48348443D01*
X155068412Y-48348443D01*
X154866243Y-48282754D01*
X154866241Y-48282753D01*
X154866240Y-48282753D01*
X154704957Y-48257208D01*
X154656287Y-48249500D01*
X154443713Y-48249500D01*
X154395042Y-48257208D01*
X154233760Y-48282753D01*
X154031585Y-48348444D01*
X153842179Y-48444951D01*
X153670213Y-48569890D01*
X153519890Y-48720213D01*
X153394951Y-48892179D01*
X153298444Y-49081585D01*
X153232753Y-49283760D01*
X153210824Y-49422214D01*
X153199500Y-49493713D01*
X128290976Y-49493713D01*
X128451220Y-49242182D01*
X128506531Y-49155361D01*
X128512727Y-49146511D01*
X128758385Y-48826363D01*
X128765323Y-48818094D01*
X129037949Y-48520575D01*
X129045575Y-48512949D01*
X129343094Y-48240323D01*
X129351363Y-48233385D01*
X129671511Y-47987727D01*
X129680350Y-47981537D01*
X130020700Y-47764710D01*
X130030045Y-47759315D01*
X130387984Y-47572984D01*
X130397758Y-47568426D01*
X130770592Y-47413993D01*
X130780713Y-47410309D01*
X131165600Y-47288955D01*
X131176000Y-47286168D01*
X131569993Y-47198823D01*
X131580609Y-47196951D01*
X131980708Y-47144276D01*
X131991439Y-47143337D01*
X132384636Y-47126170D01*
X132397298Y-47125618D01*
X132402703Y-47125500D01*
X132444170Y-47125500D01*
X132444170Y-47125499D01*
X132449990Y-47125498D01*
X209397291Y-47125250D01*
X209402734Y-47125370D01*
G37*
%TD.AperFunction*%
%TD*%
M02*
