%TF.GenerationSoftware,KiCad,Pcbnew,10.0.0*%
%TF.CreationDate,2026-06-24T15:33:42-04:00*%
%TF.ProjectId,CanBus,43616e42-7573-42e6-9b69-6361645f7063,rev?*%
%TF.SameCoordinates,Original*%
%TF.FileFunction,Legend,Bot*%
%TF.FilePolarity,Positive*%
%FSLAX46Y46*%
G04 Gerber Fmt 4.6, Leading zero omitted, Abs format (unit mm)*
G04 Created by KiCad (PCBNEW 10.0.0) date 2026-06-24 15:33:42*
%MOMM*%
%LPD*%
G01*
G04 APERTURE LIST*
%ADD10C,0.100000*%
G04 APERTURE END LIST*
D10*
X154025496Y-57059593D02*
X154098068Y-57132165D01*
X154098068Y-57132165D02*
X154315782Y-57204736D01*
X154315782Y-57204736D02*
X154460925Y-57204736D01*
X154460925Y-57204736D02*
X154678639Y-57132165D01*
X154678639Y-57132165D02*
X154823782Y-56987022D01*
X154823782Y-56987022D02*
X154896353Y-56841879D01*
X154896353Y-56841879D02*
X154968925Y-56551593D01*
X154968925Y-56551593D02*
X154968925Y-56333879D01*
X154968925Y-56333879D02*
X154896353Y-56043593D01*
X154896353Y-56043593D02*
X154823782Y-55898450D01*
X154823782Y-55898450D02*
X154678639Y-55753307D01*
X154678639Y-55753307D02*
X154460925Y-55680736D01*
X154460925Y-55680736D02*
X154315782Y-55680736D01*
X154315782Y-55680736D02*
X154098068Y-55753307D01*
X154098068Y-55753307D02*
X154025496Y-55825879D01*
X153444925Y-56769307D02*
X152719211Y-56769307D01*
X153590068Y-57204736D02*
X153082068Y-55680736D01*
X153082068Y-55680736D02*
X152574068Y-57204736D01*
X152066067Y-57204736D02*
X152066067Y-55680736D01*
X152066067Y-55680736D02*
X151195210Y-57204736D01*
X151195210Y-57204736D02*
X151195210Y-55680736D01*
X149961496Y-56406450D02*
X149743782Y-56479022D01*
X149743782Y-56479022D02*
X149671211Y-56551593D01*
X149671211Y-56551593D02*
X149598639Y-56696736D01*
X149598639Y-56696736D02*
X149598639Y-56914450D01*
X149598639Y-56914450D02*
X149671211Y-57059593D01*
X149671211Y-57059593D02*
X149743782Y-57132165D01*
X149743782Y-57132165D02*
X149888925Y-57204736D01*
X149888925Y-57204736D02*
X150469496Y-57204736D01*
X150469496Y-57204736D02*
X150469496Y-55680736D01*
X150469496Y-55680736D02*
X149961496Y-55680736D01*
X149961496Y-55680736D02*
X149816354Y-55753307D01*
X149816354Y-55753307D02*
X149743782Y-55825879D01*
X149743782Y-55825879D02*
X149671211Y-55971022D01*
X149671211Y-55971022D02*
X149671211Y-56116165D01*
X149671211Y-56116165D02*
X149743782Y-56261307D01*
X149743782Y-56261307D02*
X149816354Y-56333879D01*
X149816354Y-56333879D02*
X149961496Y-56406450D01*
X149961496Y-56406450D02*
X150469496Y-56406450D01*
X148945496Y-55680736D02*
X148945496Y-56914450D01*
X148945496Y-56914450D02*
X148872925Y-57059593D01*
X148872925Y-57059593D02*
X148800354Y-57132165D01*
X148800354Y-57132165D02*
X148655211Y-57204736D01*
X148655211Y-57204736D02*
X148364925Y-57204736D01*
X148364925Y-57204736D02*
X148219782Y-57132165D01*
X148219782Y-57132165D02*
X148147211Y-57059593D01*
X148147211Y-57059593D02*
X148074639Y-56914450D01*
X148074639Y-56914450D02*
X148074639Y-55680736D01*
X147421497Y-57132165D02*
X147203783Y-57204736D01*
X147203783Y-57204736D02*
X146840925Y-57204736D01*
X146840925Y-57204736D02*
X146695783Y-57132165D01*
X146695783Y-57132165D02*
X146623211Y-57059593D01*
X146623211Y-57059593D02*
X146550640Y-56914450D01*
X146550640Y-56914450D02*
X146550640Y-56769307D01*
X146550640Y-56769307D02*
X146623211Y-56624165D01*
X146623211Y-56624165D02*
X146695783Y-56551593D01*
X146695783Y-56551593D02*
X146840925Y-56479022D01*
X146840925Y-56479022D02*
X147131211Y-56406450D01*
X147131211Y-56406450D02*
X147276354Y-56333879D01*
X147276354Y-56333879D02*
X147348925Y-56261307D01*
X147348925Y-56261307D02*
X147421497Y-56116165D01*
X147421497Y-56116165D02*
X147421497Y-55971022D01*
X147421497Y-55971022D02*
X147348925Y-55825879D01*
X147348925Y-55825879D02*
X147276354Y-55753307D01*
X147276354Y-55753307D02*
X147131211Y-55680736D01*
X147131211Y-55680736D02*
X146768354Y-55680736D01*
X146768354Y-55680736D02*
X146550640Y-55753307D01*
X145897496Y-56624165D02*
X144736354Y-56624165D01*
X144010639Y-57204736D02*
X144010639Y-55680736D01*
X144010639Y-55680736D02*
X143139782Y-57204736D01*
X143139782Y-57204736D02*
X143139782Y-55680736D01*
X142123783Y-55680736D02*
X141833497Y-55680736D01*
X141833497Y-55680736D02*
X141688354Y-55753307D01*
X141688354Y-55753307D02*
X141543211Y-55898450D01*
X141543211Y-55898450D02*
X141470640Y-56188736D01*
X141470640Y-56188736D02*
X141470640Y-56696736D01*
X141470640Y-56696736D02*
X141543211Y-56987022D01*
X141543211Y-56987022D02*
X141688354Y-57132165D01*
X141688354Y-57132165D02*
X141833497Y-57204736D01*
X141833497Y-57204736D02*
X142123783Y-57204736D01*
X142123783Y-57204736D02*
X142268926Y-57132165D01*
X142268926Y-57132165D02*
X142414068Y-56987022D01*
X142414068Y-56987022D02*
X142486640Y-56696736D01*
X142486640Y-56696736D02*
X142486640Y-56188736D01*
X142486640Y-56188736D02*
X142414068Y-55898450D01*
X142414068Y-55898450D02*
X142268926Y-55753307D01*
X142268926Y-55753307D02*
X142123783Y-55680736D01*
X140817497Y-57204736D02*
X140817497Y-55680736D01*
X140817497Y-55680736D02*
X140454640Y-55680736D01*
X140454640Y-55680736D02*
X140236926Y-55753307D01*
X140236926Y-55753307D02*
X140091783Y-55898450D01*
X140091783Y-55898450D02*
X140019212Y-56043593D01*
X140019212Y-56043593D02*
X139946640Y-56333879D01*
X139946640Y-56333879D02*
X139946640Y-56551593D01*
X139946640Y-56551593D02*
X140019212Y-56841879D01*
X140019212Y-56841879D02*
X140091783Y-56987022D01*
X140091783Y-56987022D02*
X140236926Y-57132165D01*
X140236926Y-57132165D02*
X140454640Y-57204736D01*
X140454640Y-57204736D02*
X140817497Y-57204736D01*
X139293497Y-56406450D02*
X138785497Y-56406450D01*
X138567783Y-57204736D02*
X139293497Y-57204736D01*
X139293497Y-57204736D02*
X139293497Y-55680736D01*
X139293497Y-55680736D02*
X138567783Y-55680736D01*
X136898640Y-56188736D02*
X136535783Y-57204736D01*
X136535783Y-57204736D02*
X136172926Y-56188736D01*
X134794069Y-57204736D02*
X135664926Y-57204736D01*
X135229497Y-57204736D02*
X135229497Y-55680736D01*
X135229497Y-55680736D02*
X135374640Y-55898450D01*
X135374640Y-55898450D02*
X135519783Y-56043593D01*
X135519783Y-56043593D02*
X135664926Y-56116165D01*
X154896353Y-58860005D02*
X154388353Y-58860005D01*
X154170639Y-59658291D02*
X154896353Y-59658291D01*
X154896353Y-59658291D02*
X154896353Y-58134291D01*
X154896353Y-58134291D02*
X154170639Y-58134291D01*
X153590068Y-59585720D02*
X153444925Y-59658291D01*
X153444925Y-59658291D02*
X153154639Y-59658291D01*
X153154639Y-59658291D02*
X153009496Y-59585720D01*
X153009496Y-59585720D02*
X152936925Y-59440577D01*
X152936925Y-59440577D02*
X152936925Y-59368005D01*
X152936925Y-59368005D02*
X153009496Y-59222862D01*
X153009496Y-59222862D02*
X153154639Y-59150291D01*
X153154639Y-59150291D02*
X153372354Y-59150291D01*
X153372354Y-59150291D02*
X153517496Y-59077720D01*
X153517496Y-59077720D02*
X153590068Y-58932577D01*
X153590068Y-58932577D02*
X153590068Y-58860005D01*
X153590068Y-58860005D02*
X153517496Y-58714862D01*
X153517496Y-58714862D02*
X153372354Y-58642291D01*
X153372354Y-58642291D02*
X153154639Y-58642291D01*
X153154639Y-58642291D02*
X153009496Y-58714862D01*
X152501497Y-58642291D02*
X151920925Y-58642291D01*
X152283782Y-58134291D02*
X152283782Y-59440577D01*
X152283782Y-59440577D02*
X152211211Y-59585720D01*
X152211211Y-59585720D02*
X152066068Y-59658291D01*
X152066068Y-59658291D02*
X151920925Y-59658291D01*
X151412925Y-59658291D02*
X151412925Y-58642291D01*
X151412925Y-58134291D02*
X151485497Y-58206862D01*
X151485497Y-58206862D02*
X151412925Y-58279434D01*
X151412925Y-58279434D02*
X151340354Y-58206862D01*
X151340354Y-58206862D02*
X151412925Y-58134291D01*
X151412925Y-58134291D02*
X151412925Y-58279434D01*
X150687211Y-59658291D02*
X150687211Y-58642291D01*
X150687211Y-58787434D02*
X150614640Y-58714862D01*
X150614640Y-58714862D02*
X150469497Y-58642291D01*
X150469497Y-58642291D02*
X150251783Y-58642291D01*
X150251783Y-58642291D02*
X150106640Y-58714862D01*
X150106640Y-58714862D02*
X150034069Y-58860005D01*
X150034069Y-58860005D02*
X150034069Y-59658291D01*
X150034069Y-58860005D02*
X149961497Y-58714862D01*
X149961497Y-58714862D02*
X149816354Y-58642291D01*
X149816354Y-58642291D02*
X149598640Y-58642291D01*
X149598640Y-58642291D02*
X149453497Y-58714862D01*
X149453497Y-58714862D02*
X149380926Y-58860005D01*
X149380926Y-58860005D02*
X149380926Y-59658291D01*
X148074640Y-59585720D02*
X148219783Y-59658291D01*
X148219783Y-59658291D02*
X148510069Y-59658291D01*
X148510069Y-59658291D02*
X148655211Y-59585720D01*
X148655211Y-59585720D02*
X148727783Y-59440577D01*
X148727783Y-59440577D02*
X148727783Y-58860005D01*
X148727783Y-58860005D02*
X148655211Y-58714862D01*
X148655211Y-58714862D02*
X148510069Y-58642291D01*
X148510069Y-58642291D02*
X148219783Y-58642291D01*
X148219783Y-58642291D02*
X148074640Y-58714862D01*
X148074640Y-58714862D02*
X148002069Y-58860005D01*
X148002069Y-58860005D02*
X148002069Y-59005148D01*
X148002069Y-59005148D02*
X148727783Y-59150291D01*
X146187782Y-59658291D02*
X146187782Y-58134291D01*
X145462068Y-58642291D02*
X145462068Y-59658291D01*
X145462068Y-58787434D02*
X145389497Y-58714862D01*
X145389497Y-58714862D02*
X145244354Y-58642291D01*
X145244354Y-58642291D02*
X145026640Y-58642291D01*
X145026640Y-58642291D02*
X144881497Y-58714862D01*
X144881497Y-58714862D02*
X144808926Y-58860005D01*
X144808926Y-58860005D02*
X144808926Y-59658291D01*
X143430069Y-59658291D02*
X143430069Y-58134291D01*
X143430069Y-59585720D02*
X143575211Y-59658291D01*
X143575211Y-59658291D02*
X143865497Y-59658291D01*
X143865497Y-59658291D02*
X144010640Y-59585720D01*
X144010640Y-59585720D02*
X144083211Y-59513148D01*
X144083211Y-59513148D02*
X144155783Y-59368005D01*
X144155783Y-59368005D02*
X144155783Y-58932577D01*
X144155783Y-58932577D02*
X144083211Y-58787434D01*
X144083211Y-58787434D02*
X144010640Y-58714862D01*
X144010640Y-58714862D02*
X143865497Y-58642291D01*
X143865497Y-58642291D02*
X143575211Y-58642291D01*
X143575211Y-58642291D02*
X143430069Y-58714862D01*
X142051212Y-58642291D02*
X142051212Y-59658291D01*
X142704354Y-58642291D02*
X142704354Y-59440577D01*
X142704354Y-59440577D02*
X142631783Y-59585720D01*
X142631783Y-59585720D02*
X142486640Y-59658291D01*
X142486640Y-59658291D02*
X142268926Y-59658291D01*
X142268926Y-59658291D02*
X142123783Y-59585720D01*
X142123783Y-59585720D02*
X142051212Y-59513148D01*
X141398069Y-59585720D02*
X141252926Y-59658291D01*
X141252926Y-59658291D02*
X140962640Y-59658291D01*
X140962640Y-59658291D02*
X140817497Y-59585720D01*
X140817497Y-59585720D02*
X140744926Y-59440577D01*
X140744926Y-59440577D02*
X140744926Y-59368005D01*
X140744926Y-59368005D02*
X140817497Y-59222862D01*
X140817497Y-59222862D02*
X140962640Y-59150291D01*
X140962640Y-59150291D02*
X141180355Y-59150291D01*
X141180355Y-59150291D02*
X141325497Y-59077720D01*
X141325497Y-59077720D02*
X141398069Y-58932577D01*
X141398069Y-58932577D02*
X141398069Y-58860005D01*
X141398069Y-58860005D02*
X141325497Y-58714862D01*
X141325497Y-58714862D02*
X141180355Y-58642291D01*
X141180355Y-58642291D02*
X140962640Y-58642291D01*
X140962640Y-58642291D02*
X140817497Y-58714862D01*
X140309498Y-58642291D02*
X139728926Y-58642291D01*
X140091783Y-58134291D02*
X140091783Y-59440577D01*
X140091783Y-59440577D02*
X140019212Y-59585720D01*
X140019212Y-59585720D02*
X139874069Y-59658291D01*
X139874069Y-59658291D02*
X139728926Y-59658291D01*
X139220926Y-59658291D02*
X139220926Y-58642291D01*
X139220926Y-58932577D02*
X139148355Y-58787434D01*
X139148355Y-58787434D02*
X139075784Y-58714862D01*
X139075784Y-58714862D02*
X138930641Y-58642291D01*
X138930641Y-58642291D02*
X138785498Y-58642291D01*
X138277497Y-59658291D02*
X138277497Y-58642291D01*
X138277497Y-58134291D02*
X138350069Y-58206862D01*
X138350069Y-58206862D02*
X138277497Y-58279434D01*
X138277497Y-58279434D02*
X138204926Y-58206862D01*
X138204926Y-58206862D02*
X138277497Y-58134291D01*
X138277497Y-58134291D02*
X138277497Y-58279434D01*
X136971212Y-59585720D02*
X137116355Y-59658291D01*
X137116355Y-59658291D02*
X137406641Y-59658291D01*
X137406641Y-59658291D02*
X137551783Y-59585720D01*
X137551783Y-59585720D02*
X137624355Y-59440577D01*
X137624355Y-59440577D02*
X137624355Y-58860005D01*
X137624355Y-58860005D02*
X137551783Y-58714862D01*
X137551783Y-58714862D02*
X137406641Y-58642291D01*
X137406641Y-58642291D02*
X137116355Y-58642291D01*
X137116355Y-58642291D02*
X136971212Y-58714862D01*
X136971212Y-58714862D02*
X136898641Y-58860005D01*
X136898641Y-58860005D02*
X136898641Y-59005148D01*
X136898641Y-59005148D02*
X137624355Y-59150291D01*
X136318069Y-59585720D02*
X136172926Y-59658291D01*
X136172926Y-59658291D02*
X135882640Y-59658291D01*
X135882640Y-59658291D02*
X135737497Y-59585720D01*
X135737497Y-59585720D02*
X135664926Y-59440577D01*
X135664926Y-59440577D02*
X135664926Y-59368005D01*
X135664926Y-59368005D02*
X135737497Y-59222862D01*
X135737497Y-59222862D02*
X135882640Y-59150291D01*
X135882640Y-59150291D02*
X136100355Y-59150291D01*
X136100355Y-59150291D02*
X136245497Y-59077720D01*
X136245497Y-59077720D02*
X136318069Y-58932577D01*
X136318069Y-58932577D02*
X136318069Y-58860005D01*
X136318069Y-58860005D02*
X136245497Y-58714862D01*
X136245497Y-58714862D02*
X136100355Y-58642291D01*
X136100355Y-58642291D02*
X135882640Y-58642291D01*
X135882640Y-58642291D02*
X135737497Y-58714862D01*
M02*
